<svg width="84" height="163" viewBox="0 0 84 163" fill="none" xmlns="http://www.w3.org/2000/svg">
<path d="M114.147 114.481C113.904 114.047 113.523 113.704 113.06 113.503C113.649 111.888 113.795 110.15 113.482 108.462C113.096 106.626 112.767 104.447 111.838 102.778C110.955 101.21 109.791 99.8093 108.399 98.6444C107.913 98.2325 106.777 97.4504 106.04 97.59C106.04 97.4713 106.04 97.3596 106.09 97.2479C106.283 96.0329 106.562 94.8319 106.805 93.6309C107.306 91.3615 107.885 89.0852 108.321 86.8019C108.492 85.9081 108.635 85.0143 108.785 84.1205C108.871 83.5968 109.3 82.6472 108.907 82.1584C108.514 81.6696 107.749 81.8233 107.284 81.7534C106.677 81.6696 105.626 81.118 105.011 81.3903C104.546 81.5928 104.553 82.0886 104.482 82.5145C104.318 83.5619 104.167 84.6093 104.01 85.6567C103.717 87.6468 103.51 89.6648 103.295 91.6688C103.074 92.8558 102.881 94.0568 102.673 95.2439C102.588 95.7047 102.509 96.1586 102.43 96.6404C101.457 96.4966 100.466 96.5154 99.4994 96.6963C97.3978 96.8626 95.3538 97.4497 93.4946 98.421C91.0283 99.8175 87.7756 102.094 87.2609 105.048C86.7868 104.827 86.2623 104.731 85.7386 104.767C85.2149 104.804 84.7099 104.973 84.2728 105.257C82.3856 106.598 82.6787 108.748 83.8797 110.368C83.4507 111.66 83.2291 113.008 82.8145 114.3C82.2855 115.961 81.6564 117.595 81.106 119.25C80.0194 122.511 79.133 125.842 78.2465 129.166C77.3601 132.489 76.4093 135.736 75.4514 139.011C74.6651 141.699 73.457 144.786 74.9439 147.446C75.5614 148.375 76.3207 149.206 77.1957 149.911C78.5699 151.1 80.0986 152.107 81.7422 152.907C84.3729 154.303 87.747 155.916 90.8353 155.762C91.3049 155.742 91.7635 155.616 92.176 155.396C92.5886 155.176 92.9442 154.866 93.2158 154.492C94.3455 153.061 95.3612 151.549 96.2539 149.967C97.9553 147.174 99.5065 144.269 100.951 141.336C102.659 137.88 104.353 134.43 105.955 130.918C107.556 127.406 109.35 124.047 111.087 120.619V120.584L111.452 120.353C112.967 119.243 115.233 116.45 114.147 114.481ZM104.632 88.6453C104.732 87.4443 104.854 86.2502 105.047 85.0632C105.133 84.5535 105.097 82.6332 105.44 82.3749C105.783 82.1165 107.356 82.4726 107.72 82.5983C108.335 82.8148 108.199 82.9474 108.085 83.5899C108.013 84.0018 107.97 84.4138 107.899 84.8258C107.499 86.9834 106.941 89.0992 106.469 91.2428C106.226 92.3042 105.997 93.3725 105.754 94.4339C105.6 95.6126 105.361 96.7793 105.04 97.9252C104.963 98.1746 104.82 98.3996 104.625 98.5775C104.431 98.7553 104.191 98.8796 103.932 98.9377C103.052 99.0913 103.009 98.6793 103.102 98.1626C103.243 97.855 103.36 97.5376 103.453 97.213C103.652 96.3368 103.805 95.4512 103.91 94.5596C104.203 92.6184 104.475 90.6144 104.632 88.6453ZM93.3301 99.7128C94.8543 98.7564 96.5535 98.0973 98.3342 97.7716C99.1634 97.611 99.9998 97.4644 100.836 97.3457C101.258 97.2898 101.851 97.1501 102.38 97.1292C102.337 97.3736 102.287 97.611 102.237 97.8624C102.08 98.3629 102.08 98.898 102.237 99.3986C102.845 100.544 104.646 99.9223 105.39 99.2799C105.713 98.9596 105.912 98.5403 105.955 98.0928C106.913 98.618 107.776 99.2953 108.507 100.097C109.586 101.235 110.809 102.611 111.266 104.126C111.737 105.598 112.111 107.097 112.388 108.616C112.554 109.891 112.449 111.187 112.081 112.421C111.705 111.342 111.259 110.288 110.744 109.265C109.736 107.121 107.449 104.992 107.928 102.541C107.934 102.485 107.927 102.429 107.908 102.377C107.888 102.325 107.856 102.278 107.814 102.239C107.772 102.201 107.722 102.173 107.667 102.158C107.613 102.142 107.555 102.14 107.499 102.15C107.013 102.227 106.684 102.597 106.198 102.722C105.694 102.839 105.17 102.842 104.665 102.732C104.159 102.622 103.686 102.401 103.281 102.087C102.273 101.298 101.787 100.271 100.422 99.8943C99.3135 99.5801 96.7972 100.069 96.7829 101.382C96.0733 101.082 95.3167 100.902 94.5454 100.851C93.25 100.768 91.9557 101.028 90.7995 101.605C91.5827 100.901 92.4297 100.267 93.3301 99.7128V99.7128ZM88.5405 105.166C89.8702 102.534 93.9092 100.607 96.7829 102.08C98.0768 102.736 98.5558 104.217 99.6424 105.131C100.453 105.956 101.537 106.473 102.702 106.591C102.888 106.591 102.988 106.311 102.781 106.256C100.708 105.655 99.5852 104.224 98.3842 102.604C98.0785 102.2 97.6948 101.858 97.2547 101.598C97.5633 101.121 98.0507 100.78 98.613 100.648C99.0727 100.508 99.562 100.488 100.032 100.589C100.503 100.691 100.938 100.911 101.294 101.228C102.101 101.856 102.559 102.729 103.495 103.225C104.069 103.555 104.725 103.724 105.391 103.714C106.056 103.704 106.706 103.516 107.27 103.169C107.257 103.285 107.257 103.402 107.27 103.518C107.311 103.841 107.393 104.158 107.513 104.461C107.987 105.506 108.554 106.508 109.207 107.457C109.744 108.48 110.186 109.548 110.53 110.648C110.896 111.391 111.119 112.193 111.187 113.015L110.63 112.945C108.492 112.648 106.379 112.195 104.31 111.59C100.457 110.494 96.6829 109.16 92.8726 107.924L91.879 107.45C90.6709 106.87 89.5342 106.179 88.3547 105.557C88.3614 105.518 88.3614 105.478 88.3547 105.439C88.3547 105.39 88.3905 105.348 88.4047 105.306C88.4396 105.295 88.4717 105.277 88.4988 105.253C88.5259 105.229 88.5475 105.199 88.562 105.166H88.5405ZM92.7654 152.886C92.3436 153.458 91.9004 154.233 91.1498 154.415C90.3486 154.53 89.531 154.461 88.7622 154.212C87.1775 153.819 85.632 153.289 84.1442 152.627C81.4491 151.37 78.654 149.736 76.7024 147.502C76.0769 146.776 75.7083 145.872 75.6516 144.925C76.6789 144.963 77.7049 144.824 78.6826 144.513C81.299 143.815 84.1227 142.6 86.5461 144.423C88.2189 145.673 88.4047 147.97 89.62 149.569C90.3777 150.56 91.7002 152.062 93.1228 152.362L92.7654 152.886ZM93.7447 151.489C92.8941 151.063 91.9648 150.861 91.207 150.141C90.5461 149.5 89.9978 148.757 89.5842 147.942C89.3483 147.509 89.0267 147.132 88.8051 146.685C88.5835 146.238 88.4619 145.756 88.2046 145.33C87.7844 144.679 87.2201 144.128 86.5532 143.717C85.7922 143.26 84.9387 142.968 84.0514 142.864C83.1642 142.759 82.2642 142.843 81.4134 143.11C80.3268 143.375 79.233 143.675 78.1536 143.969C77.3476 144.23 76.5075 144.379 75.6587 144.409C75.6587 142.454 76.5094 140.345 76.9955 138.613C77.16 138.013 77.3315 137.412 77.4959 136.812C78.1548 137.825 79.1371 138.598 80.291 139.011C82.6572 139.947 85.6739 139.772 88.1545 139.248C89.5842 138.941 91.3786 138.152 92.8583 138.669C94.8528 139.367 94.0378 141.239 94.4953 142.747C94.7598 143.627 95.7177 144.29 96.404 144.842C96.7325 145.119 97.129 145.309 97.555 145.393C96.3326 147.488 95.0887 149.541 93.7447 151.489ZM97.9196 144.639C97.3364 144.505 96.8053 144.209 96.3897 143.787C95.7797 143.372 95.3174 142.781 95.0672 142.097C94.9457 141.616 94.96 141.106 94.8456 140.61C94.7952 139.903 94.5147 139.23 94.045 138.69C93.3301 138.11 92.1935 138.068 91.3571 138.089C90.3053 138.169 89.2626 138.338 88.2403 138.592C86.9237 138.796 85.5912 138.884 84.2585 138.857C82.2498 138.857 78.1608 138.264 77.7533 135.855C78.3395 133.76 78.9113 131.665 79.4332 129.571C79.7763 128.209 80.1481 126.847 80.4912 125.5C80.4679 126.035 80.563 126.568 80.77 127.064C81.3017 128.055 82.1261 128.868 83.1362 129.396C85.4128 130.696 88.0567 131.246 90.678 130.967C92.2007 130.82 93.7019 130.353 95.2388 130.513C96.0824 130.604 97.1904 130.82 97.7122 131.561C98.0357 132.155 98.2762 132.789 98.4271 133.446C98.688 134.468 99.1762 135.422 99.8568 136.239C100.297 136.777 100.847 137.219 101.472 137.538C100.357 139.94 99.1849 142.314 97.9196 144.639ZM102.144 136.127L101.823 136.826C101.381 136.618 100.979 136.337 100.636 135.995C100.051 135.481 99.5976 134.84 99.3135 134.123C98.9632 133.292 98.8203 132.315 98.4057 131.505C97.605 129.948 95.5462 129.605 93.9449 129.668C92.7154 129.71 91.5072 129.976 90.2777 130.073C88.7426 130.198 87.1973 130.025 85.7311 129.564C84.3618 129.242 83.1039 128.572 82.0853 127.622C81.3458 126.67 80.8905 125.537 80.77 124.348C81.1846 122.839 81.6231 121.34 82.0853 119.851C82.4797 121.043 83.2728 122.071 84.3372 122.769C86.6319 124.355 89.5771 124.04 92.2007 123.628C93.7662 123.384 95.9179 122.93 97.4477 123.475C98.9775 124.019 100.014 125.702 101.022 126.854C101.848 127.706 102.856 128.368 103.974 128.795C104.415 128.999 104.875 129.16 105.347 129.277C104.289 131.561 103.224 133.851 102.144 136.127ZM105.719 128.446C105.06 128.365 104.416 128.198 103.803 127.951C102.33 127.252 101.522 126.261 100.514 125.081C99.0847 123.412 97.6122 122.427 95.3532 122.574C92.6296 122.755 89.9131 123.586 87.1823 123.16C85.6809 122.969 84.3131 122.219 83.3649 121.066C82.8223 120.366 82.5039 119.526 82.4499 118.65C82.8717 117.393 83.3149 116.143 83.7152 114.879C84.1155 113.615 84.33 112.407 84.5945 111.164C87.0538 113.29 89.7832 115.097 92.7153 116.541C95.7801 118.235 99.0514 119.544 102.452 120.437C104.046 120.827 105.678 121.047 107.32 121.094C107.987 121.132 108.655 121.132 109.322 121.094C108.099 123.558 106.905 125.981 105.719 128.446ZM111.438 118.594C110.287 119.907 109.064 119.955 107.406 119.955C105.809 119.951 104.218 119.778 102.659 119.439C99.8075 118.717 97.0547 117.665 94.4596 116.304C91.8625 115.118 89.4014 113.667 87.118 111.974C85.9885 111.081 84.6803 110.215 84.137 108.846C83.9509 108.467 83.8862 108.041 83.9512 107.625C84.0162 107.209 84.208 106.822 84.5016 106.514C85.3022 105.592 86.4174 105.816 87.361 106.353C89.6248 107.589 91.9644 108.688 94.3667 109.642C97.4742 110.884 100.651 111.954 103.881 112.847C106.051 113.51 108.296 113.907 110.565 114.027C110.695 114.041 110.824 114.062 110.951 114.09C111.021 114.19 111.128 114.26 111.248 114.286C111.369 114.312 111.496 114.292 111.602 114.23L111.816 114.293C111.919 114.386 112.055 114.439 112.195 114.439C112.368 114.499 112.527 114.591 112.664 114.711C112.8 114.831 112.91 114.976 112.989 115.137C113.453 116.234 112.152 117.861 111.495 118.594H111.438Z" fill="white"/>
<path d="M71.1775 124.189C70.7536 121.979 69.919 119.863 68.715 117.949C67.4329 116.195 65.5638 114.937 63.4332 114.395C63.2935 111.878 62.8527 109.387 62.1199 106.972C61.9486 106.377 61.6846 105.432 61.0493 105.167C60.2499 104.824 59.008 105.369 58.1943 105.523C56.6026 105.831 54.0188 106.174 55.4891 108.189C56.2528 109.231 57.245 110.071 57.9302 111.176C58.5468 112.156 59.0999 113.172 59.5861 114.22C58.979 114.397 58.4381 114.745 58.0301 115.22C56.3456 117.207 56.8167 120.222 56.0816 122.559C55.2179 125.323 53.3336 127.673 51.385 129.793C51.332 129.848 51.3015 129.92 51.2994 129.996L49.6649 131.927C46.403 135.642 43.2411 139.574 41.3211 144.15C39.658 148.158 38.5588 153.406 40.5431 157.526C42.4773 161.521 46.9026 163.515 51.2494 163.312C55.5643 163.114 59.6433 161.324 62.6695 158.303C66.0741 154.952 67.9299 150.572 69.3289 146.122C70.8648 141.309 71.7831 136.327 72.0626 131.29C72.1077 128.894 71.8098 126.504 71.1775 124.189ZM58.7367 110.491C58.3243 109.885 57.8637 109.312 57.3592 108.777C57.0951 108.49 56.1529 107.734 56.1886 107.377C56.2386 106.86 56.7239 106.811 57.1593 106.678C58.1029 106.366 59.0801 106.161 60.0715 106.069C61.2135 106.069 61.292 107.433 61.499 108.343C61.9308 110.243 62.1864 112.177 62.2627 114.122C61.6336 114.012 60.9916 113.994 60.3569 114.066C60.0827 112.775 59.5303 111.556 58.7367 110.491ZM56.2386 124.994C56.5134 124.478 56.7288 123.933 56.881 123.371C57.2631 122.437 57.5314 121.463 57.6804 120.467C57.9944 118.368 58.0658 115.199 60.9851 115.171C61.4942 115.173 62.0015 115.23 62.4982 115.339C62.6182 115.417 62.762 115.452 62.9051 115.437C64.3873 115.833 65.7429 116.591 66.845 117.641C68.4153 119.215 69.2004 121.552 69.75 123.63L69.8785 124.14C68.0727 124.84 67.5445 122.489 67.2162 121.083C67.1921 121.008 67.1466 120.941 67.0853 120.891C67.0239 120.84 66.9491 120.808 66.8697 120.798C66.7902 120.788 66.7095 120.8 66.6368 120.833C66.5642 120.866 66.5027 120.919 66.4596 120.985C65.7458 122.216 65.8458 123.784 65.2034 125.064C64.7109 126.043 64.6395 124.427 64.6466 124C64.6655 123.091 64.749 122.184 64.8965 121.286C64.9237 121.179 64.9112 121.066 64.8612 120.968C64.8112 120.869 64.727 120.792 64.6238 120.749C64.5205 120.706 64.4049 120.7 64.2979 120.733C64.1909 120.766 64.0994 120.836 64.04 120.929C62.9765 122.524 62.3912 124.378 61.1849 125.917C61.0422 126.106 60.7067 126.617 60.4712 126.701C59.9216 126.82 60.0001 125.833 60.0358 125.4C60.0715 124.966 60.1714 124.357 60.2356 123.839C60.2386 123.315 60.2791 122.791 60.3569 122.272C60.4569 122.118 60.5497 121.957 60.6353 121.797C60.6803 121.703 60.6915 121.598 60.6671 121.497C60.6427 121.397 60.5842 121.307 60.5011 121.244C60.418 121.18 60.3154 121.147 60.2101 121.148C60.1048 121.149 60.003 121.185 59.9216 121.251C59.7504 121.396 59.6284 121.589 59.5718 121.804C58.4915 123.308 57.2176 124.67 55.7818 125.854C55.9245 125.575 56.0887 125.323 56.2386 124.994V124.994ZM68.8221 143.513C67.6016 147.997 66.0385 152.51 63.005 156.155C60.5019 159.289 56.8803 161.376 52.8697 161.997C50.529 162.382 48.1246 162.077 45.9605 161.122C44.9008 160.667 43.9491 160 43.1653 159.166C42.3815 158.331 41.7827 157.347 41.4067 156.274C40.022 151.866 41.2711 146.983 43.2554 142.981C45.5537 138.329 49.1795 134.46 52.4343 130.458C53.3122 129.38 54.183 128.282 54.9681 127.128C56.1025 126.681 57.1022 125.959 57.8731 125.029C58.3299 124.539 58.8224 124.077 59.3006 123.63C59.1935 124.329 59.0651 124.987 59.0222 125.658C58.9794 126.498 59.165 128.072 60.3641 127.932C61.2706 127.834 61.9772 126.743 62.4554 126.092C62.9221 125.43 63.3259 124.728 63.6616 123.993C63.626 125.246 63.8401 126.449 64.8251 126.624C66.1669 126.869 66.5952 124.728 66.8807 123.049C67.0396 123.779 67.4086 124.449 67.9442 124.98C68.2401 125.246 68.6123 125.417 69.0105 125.47C69.4088 125.523 69.8139 125.454 70.1711 125.274C70.5988 126.874 70.8383 128.517 70.8849 130.171C70.7841 134.687 70.0909 139.171 68.8221 143.513V143.513Z" fill="white"/>
<path d="M15.7618 168.154C16.5089 167.005 16.9977 165.786 18.031 164.837C18.7293 164.179 19.6579 163.736 20.2514 162.94C20.8712 161.942 21.4262 160.905 21.9132 159.837C23.1212 157.725 25.3625 156.659 26.8009 154.754C27.3589 154.012 27.8276 153.208 28.1973 152.358C28.5735 151.211 29.0405 150.095 29.5938 149.02C30.9903 146.881 33.6505 145.717 35.3123 143.785C36.6739 142.213 37.8469 140.516 38.1052 138.411C38.3471 136.301 37.9967 134.166 37.0928 132.241C36.9113 131.86 36.7297 131.486 36.5272 131.133C37.3474 130.404 38.1085 129.612 38.8035 128.765C39.818 127.755 40.7235 126.643 41.5056 125.448C41.8966 124.755 42.2667 124.104 42.6996 123.46C42.9416 123.167 43.1242 122.831 43.2373 122.47C43.356 121.833 42.9999 121.556 42.539 121.327L43.2373 120.6C44.8059 119.14 46.1409 117.452 47.1962 115.593C47.692 114.617 48.7253 112.823 47.7897 111.764C46.9518 110.829 44.7733 110.933 43.7749 111.417C42.0991 112.221 41.2543 114.741 40.3466 116.21C39.4389 117.678 38.587 118.91 37.7282 120.268C38.3147 118.973 38.9012 117.685 39.5227 116.41C40.5007 114.45 41.2054 112.368 41.6174 110.219C41.8827 108.772 42.0223 107.449 40.151 107.228C38.4404 107.062 37.421 108.363 37.1556 109.866C36.8345 111.674 36.5412 113.433 36.1153 115.205C35.3193 114.977 34.3348 114.866 33.7203 115.385C32.8476 116.119 32.4146 117.927 32.0306 118.945C31.5279 120.33 31.1089 121.653 30.7179 123.031C30.2993 124.191 30.0432 125.403 29.9569 126.632C27.8855 126.568 25.8411 127.11 24.0777 128.19C22.4173 129.231 21.1809 130.82 20.5866 132.677C20.1956 133.688 19.8883 134.755 19.5602 135.766C19.073 136.988 18.2566 138.054 17.2001 138.848C15.6221 140.233 14.4072 141.479 13.9534 143.557C13.4995 145.634 13.5763 147.878 12.6546 149.893C11.8936 151.576 10.7136 153.085 10.4622 154.962C10.148 157.24 10.2806 159.422 9.56844 161.659C8.94701 163.625 7.94156 165.447 7.97647 167.559C7.97647 168.944 8.45127 170.966 9.81283 171.714C11.1744 172.462 12.8501 171.347 13.8486 170.384C14.572 169.718 15.2141 168.969 15.7618 168.154V168.154ZM42.2946 122.698C42.0673 123.107 41.7957 123.49 41.4847 123.841C40.9417 124.786 40.3205 125.685 39.6274 126.528C38.9292 127.269 38.189 127.913 37.4978 128.605C37.0104 129.145 36.4779 129.643 35.9058 130.094C35.7377 129.853 35.5558 129.622 35.3612 129.402C35.822 129.18 36.0594 128.785 36.3806 128.308C37.03 127.428 37.7771 126.59 38.4753 125.759C39.6553 124.374 40.9261 123.031 42.1969 121.708C42.2966 121.851 42.3584 122.017 42.3767 122.19C42.395 122.363 42.3692 122.538 42.3016 122.698H42.2946ZM42.2318 115.046C42.6127 114.184 43.1006 113.372 43.6841 112.629C44.2846 112.027 46.2606 111.75 46.9798 112.373C48.097 113.336 45.7788 116.528 45.1015 117.359C43.9634 118.799 42.5739 120.032 41.3101 121.369C40.0463 122.705 38.6918 123.993 37.4908 125.392C36.5482 126.5 35.6894 127.664 34.7817 128.799C34.5618 128.601 34.3285 128.418 34.0834 128.252L34.3278 127.754C34.656 127.317 35.1587 126.5 35.2076 126.369C35.6056 125.614 36.0315 124.866 36.4923 124.146C37.421 122.684 38.2938 121.189 39.2433 119.741C40.1929 118.294 41.3241 116.667 42.2388 115.046H42.2318ZM37.9446 111.66C38.0983 110.711 38.0494 109.742 38.6429 108.931C39.1107 108.239 40.0393 107.796 40.7376 108.502C41.2752 109.07 41.0169 109.714 40.8702 110.483C40.6893 111.393 40.4562 112.292 40.172 113.176C39.4972 115.059 38.6947 116.893 37.7701 118.668C36.9532 120.392 36.1362 122.13 35.2774 123.827C34.5177 125.082 33.8705 126.4 33.3433 127.767L32.9243 127.58L32.7358 127.511C34.6839 125.281 35.438 121.971 36.1432 119.201C36.5761 117.498 37.1137 115.801 37.4978 114.077C37.6304 113.287 37.812 112.47 37.9446 111.66ZM32.3239 120.988C32.6171 120.018 32.9872 119.083 33.3712 118.149C33.6924 117.387 33.9647 116.223 34.8026 115.822C35.2038 115.696 35.6265 115.651 36.0455 115.69L36.0036 115.877C35.4869 117.878 35.0958 119.908 34.4465 121.874C34.0853 123.07 33.6492 124.243 33.1408 125.385C32.8406 126.015 32.4426 126.59 32.1493 127.22C31.8421 127.052 31.5165 126.92 31.1788 126.826C31.1814 126.803 31.1814 126.779 31.1788 126.756C31.4079 124.807 31.7884 122.879 32.3169 120.988H32.3239ZM10.916 170.62C9.75 170.481 9.44277 168.639 9.40786 167.746C9.34502 166.056 10.0712 164.574 10.6437 163.03C11.719 164.193 13.1993 165.8 14.8331 165.724C14.9257 165.736 15.0193 165.711 15.0933 165.654C15.1673 165.598 15.2156 165.514 15.2276 165.422C15.2397 165.331 15.2144 165.238 15.1575 165.164C15.1005 165.091 15.0165 165.043 14.9239 165.031C14.1971 164.843 13.4943 164.574 12.8292 164.228C12.0918 163.778 11.3914 163.271 10.7345 162.711L10.7764 162.607C11.3257 161.007 11.6591 159.343 11.7679 157.656C11.8307 156.79 11.7679 155.897 11.9006 155.031C12.099 154.077 12.4603 153.164 12.9689 152.331L13.2621 151.784C13.8671 152.847 14.705 153.763 15.714 154.463C16.723 155.162 17.8775 155.629 19.0924 155.828C19.115 155.833 19.1387 155.829 19.1587 155.817C19.1786 155.805 19.1932 155.786 19.1994 155.764C19.2057 155.742 19.2032 155.718 19.1923 155.698C19.1815 155.677 19.1632 155.662 19.1412 155.655C17.7594 155.016 16.5093 154.129 15.4546 153.037C15.0636 152.67 14.7912 152.206 14.4212 151.818C14.1698 151.555 13.8975 151.306 13.6322 151.049C14.1371 150.076 14.4992 149.036 14.7074 147.961C14.9937 146.257 14.8611 144.498 15.4546 142.823C15.7546 142.034 16.2322 141.323 16.851 140.745C16.8081 141.336 16.8963 141.929 17.1094 142.483C17.5983 143.533 18.2668 144.492 19.0854 145.316C20.6215 146.811 23.191 147.587 25.2717 147.857C25.6139 147.899 25.6418 147.393 25.3485 147.296C23.4004 146.638 20.9287 145.828 19.5322 144.256C18.879 143.525 18.3099 142.723 17.8355 141.867C17.6209 141.356 17.4526 140.828 17.3328 140.288C18.2295 139.582 19.0549 138.791 19.7976 137.926C20.7611 136.659 21.0614 135.004 21.5432 133.488C21.5728 133.745 21.6242 134 21.6968 134.249C21.99 135.353 22.5703 136.36 23.3795 137.172C24.9436 138.702 27.5689 140.025 29.8172 139.976C30.1454 139.976 30.2501 139.45 29.894 139.395C27.6491 138.979 25.5802 137.908 23.952 136.32C23.1872 135.482 22.6449 134.468 22.3741 133.37C22.2484 132.934 22.2414 132.407 22.1436 131.929C22.5124 131.065 23.0846 130.3 23.8124 129.7C24.7913 128.947 25.8914 128.364 27.0662 127.975C27.3874 127.864 27.7295 127.761 28.0786 127.67C29.4456 127.706 30.7936 127.997 32.0516 128.529C33.9158 129.277 34.8445 130.752 35.7522 132.47C36.5698 134.057 36.9595 135.827 36.8833 137.608C36.4193 137.563 35.9531 137.544 35.4869 137.553C34.3185 137.416 33.1674 137.161 32.0516 136.791C29.915 136.154 28.3928 134.062 27.4432 132.179C27.4432 132.179 27.3804 132.179 27.3874 132.179C28.1834 134.319 29.2307 136.618 31.4301 137.663C32.3239 138.093 35.2565 139.27 36.7507 138.841C36.3035 140.434 35.4692 141.894 34.3208 143.093C33.6818 143.793 32.9808 144.435 32.2261 145.011C32.195 144.946 32.1497 144.889 32.0934 144.845C31.2207 144.208 29.7404 144.214 28.721 143.882C27.1469 143.328 25.6958 142.476 24.4478 141.375C24.4386 141.366 24.426 141.361 24.4129 141.361C24.3998 141.361 24.3872 141.366 24.378 141.375C24.3687 141.384 24.3635 141.397 24.3635 141.41C24.3635 141.423 24.3687 141.435 24.378 141.444C26.2772 143.75 28.6442 144.845 31.4581 145.599C30.8715 146.063 30.278 146.527 29.7195 147.033C28.3719 148.259 27.8552 149.734 27.1709 151.347C26.752 151.347 26.2911 151.382 25.9071 151.347C25.2089 151.278 24.5106 151.243 23.7705 151.139C22.6062 150.986 21.4904 150.579 20.5028 149.948C19.4569 149.147 18.5183 148.216 17.7098 147.178C17.647 147.109 17.5283 147.178 17.5772 147.275C18.429 148.577 19.0714 149.9 20.2933 150.897C21.271 151.634 22.4222 152.111 23.6379 152.282C24.6048 152.478 25.5907 152.566 26.5774 152.545C25.79 153.868 24.7709 155.04 23.568 156.008C22.1831 157.136 21.0812 158.568 20.3492 160.191C20.1187 160.682 19.8953 161.188 19.6509 161.666C19.5986 161.637 19.5421 161.615 19.4834 161.603C18.2545 161.361 16.9767 161.395 15.8037 160.911C14.2931 160.376 12.9926 159.379 12.0891 158.065C12.0891 158.065 12.0053 158.065 12.0262 158.099C13.3319 160.945 15.9224 162.303 18.9038 162.69L18.855 162.746C18.0698 163.36 17.3193 164.017 16.6066 164.713C15.3708 166.167 14.6865 167.912 13.283 169.262C12.7035 169.775 11.7679 170.724 10.9091 170.62H10.916Z" fill="white"/>
<path d="M86.1631 -4.44283C85.7713 -5.66904 84.4817 -4.66255 83.6125 -3.77656C83.6125 -3.84744 83.6125 -3.91123 83.6481 -3.98211C83.7336 -4.52079 83.6054 -5.20124 82.8716 -4.96025C81.9881 -4.66964 81.1617 -3.41507 80.6915 -2.68501C80.3922 -2.20303 79.979 -1.65017 79.5943 -1.07605C79.5855 -1.20459 79.5483 -1.32964 79.4855 -1.44233C79.4227 -1.55501 79.3358 -1.65259 79.2309 -1.72814C77.9343 -2.5149 76.3027 1.23463 75.9679 1.92216C74.8279 4.30371 74.1297 6.88373 73.232 9.33616C72.8045 10.534 72.4412 11.7461 72.0137 12.9439C71.8926 13.2912 71.7287 13.6527 71.6076 14.0638C71.5216 14.0124 71.423 13.9854 71.3226 13.9859C70.2254 13.9859 69.9547 15.687 69.5985 16.4666C68.9261 17.9609 68.3827 19.5092 67.974 21.0951C67.5181 22.8954 66.8698 24.639 66.2784 26.3969C65.8937 27.5451 65.566 28.7288 65.1955 29.8771C64.7454 30.4052 64.3267 30.959 63.9415 31.5356C63.8827 31.4632 63.8101 31.4029 63.7278 31.3584C63.6257 31.3032 63.5085 31.2816 63.3932 31.2969C63.278 31.3122 63.1706 31.3635 63.0866 31.4435C62.6882 31.9923 62.3959 32.61 62.2245 33.2651C61.8541 34.1086 61.5121 34.9804 61.2485 35.8593C60.6286 37.7659 60.1014 39.6726 59.6668 41.6218C59.4602 42.5432 59.3248 43.4718 59.1966 44.4003C58.5696 46.9448 57.9854 49.5036 57.2088 52.0127C56.8454 53.1964 56.4108 54.6495 57.9213 55.259C59.4317 55.8686 60.6286 54.5998 61.22 53.4162C62.1461 51.5875 62.5736 49.539 63.1935 47.5969C63.8133 45.6548 64.4616 44.053 64.5543 42.0612C65.1598 40.8634 65.5802 39.5521 66.2428 38.3755C67.0336 36.9579 67.9527 35.5899 68.7506 34.1582C70.4784 31.1792 71.8213 27.9951 72.7475 24.6816C72.861 24.3186 72.9234 23.9417 72.9328 23.5617C74.8493 21.0525 76.7302 18.6001 77.92 15.6232C78.5612 14.0851 79.2879 12.5895 79.808 11.0018C80.1286 10.0237 80.6131 8.5423 80.15 7.55708C80.1352 7.52191 80.1129 7.49038 80.0846 7.46467C80.0563 7.43896 80.0227 7.4197 79.9861 7.40824C81.2527 6.0297 82.2959 4.46341 83.0782 2.76562C83.4007 2.25369 83.6164 1.68239 83.7123 1.08578V1.08578C83.9708 0.647416 84.2539 0.223834 84.5601 -0.182964C84.8451 -0.707473 85.066 -1.2816 85.3153 -1.82737C85.5386 -2.31429 85.7267 -2.81645 85.8781 -3.33002C86.0064 -3.66315 86.27 -4.08843 86.1631 -4.44283ZM68.4799 23.3987C69.0214 21.9102 69.342 20.3579 69.9048 18.8836C70.2041 18.1748 70.546 17.466 70.8952 16.7076C70.9806 16.5375 71.1588 15.935 71.3297 15.5027C71.4879 16.1129 71.5834 16.7374 71.6147 17.3668C71.7501 18.1465 71.8071 18.912 71.8783 19.6917C71.971 20.7265 71.9425 21.7543 72.0137 22.782C71.1588 22.9096 70.2611 24.3839 69.8265 24.9084C68.8361 26.0637 67.7318 27.1411 66.6703 28.2468C67.4255 26.6662 67.9171 24.9722 68.4799 23.3987ZM63.8845 41.4588C63.8845 41.6643 63.8845 41.8699 63.8418 42.0683L63.7207 42.5078C63.7045 42.5384 63.696 42.5724 63.696 42.607C63.696 42.6416 63.7045 42.6757 63.7207 42.7063C63.4825 43.8644 63.112 44.9916 62.6164 46.0659C62.0037 47.4835 61.5691 49.0216 61.0561 50.4959C60.7979 51.2892 60.4958 52.0677 60.1513 52.8279C59.9944 53.2031 59.7805 53.5521 59.5172 53.8627C59.1562 54.373 58.7715 54.3305 58.363 53.7351C57.7645 53.6642 57.5437 53.4516 57.6933 53.1043C57.6897 53.0713 57.6897 53.038 57.6933 53.0051C58.3453 51.2417 58.8971 49.4432 59.3462 47.6182C59.5457 46.7606 59.6882 45.8958 59.8306 45.0311C59.9233 44.4924 60.023 43.9608 60.1156 43.4221C60.1869 43.0819 60.2581 42.7488 60.3436 42.4086C60.821 40.6011 61.3339 38.822 61.9253 37.0501C62.2245 36.157 62.5309 35.271 62.8943 34.4063C63.0652 33.9952 63.3003 33.5911 63.4571 33.173V33.1163L63.507 33.0808V33.0454C63.7136 34.1794 63.8062 36.2775 63.8204 36.5114C63.9273 38.1583 63.9487 39.8096 63.8845 41.4588V41.4588ZM71.9567 24.5823C71.8 25.036 71.7857 25.6172 71.6504 26.1063C71.4543 26.8096 71.2164 27.5007 70.9379 28.1759C70.3964 29.5156 69.5771 30.678 68.9502 31.968C68.3659 33.1517 67.6819 34.3212 66.998 35.4553C66.314 36.5893 65.4804 37.7801 64.8606 39.0347C64.7524 39.2437 64.6573 39.4591 64.5756 39.6797C64.5756 38.0849 64.4973 36.4901 64.3405 34.9166C64.2907 34.4063 64.4189 33.2084 64.2764 32.3295C65.9507 30.5433 67.7176 28.8564 69.4346 27.0986C70.3466 26.163 71.1944 25.1777 72.0849 24.2279C72.1163 24.1931 72.1496 24.1599 72.1847 24.1287V24.1287C72.1491 24.2634 71.9995 24.4619 71.9567 24.5823ZM78.5754 12.2139C78.0055 13.5889 77.3215 14.9711 76.6162 16.2824C75.9108 17.5936 75.1913 18.8765 74.3933 20.1382C74.0228 20.7407 73.7521 21.4069 73.3389 21.9811C73.1608 22.2433 72.9613 22.4843 72.7618 22.7253C72.7618 21.492 72.605 20.2516 72.5195 19.0325C72.4554 18.1536 72.4412 17.1683 72.3201 16.1973C73.4386 14.9498 74.6926 13.7803 75.8325 12.547C76.4737 11.8382 77.1363 11.1861 77.7561 10.4773C78.3513 9.7307 78.9913 9.0206 79.6727 8.35093C79.865 9.4921 78.9317 11.342 78.5754 12.2139ZM84.8879 -3.25914C84.7243 -2.74482 84.5243 -2.24268 84.2894 -1.75649C84.0946 -1.21898 83.8388 -0.70533 83.527 -0.225496C83.3782 -0.0389546 83.2425 0.157617 83.1209 0.362806C83.0477 0.352038 82.9733 0.352038 82.9001 0.362806C82.266 -0.0837351 81.354 1.00781 80.9764 1.41183C80.5988 1.81584 79.7083 2.53172 79.9647 3.14128C79.9784 3.16175 79.9969 3.17854 80.0187 3.19016C80.0404 3.20177 80.0647 3.20785 80.0894 3.20785C80.1141 3.20785 80.1384 3.20177 80.1602 3.19016C80.1819 3.17854 80.2005 3.16175 80.2141 3.14128C80.3139 2.94282 80.6986 2.7798 80.8767 2.64513C81.0548 2.51046 81.4182 2.20567 81.6818 1.97886C81.9454 1.75204 82.209 1.48979 82.5011 1.27006C82.7789 1.20627 82.665 1.31968 82.5866 1.62446C82.4575 1.98399 82.2853 2.32669 82.0736 2.64513C81.696 3.35392 81.3113 4.06272 80.8981 4.70064C80.1856 5.82762 79.4233 6.90499 78.7108 8.02488C77.2859 9.03137 76.1816 10.5907 75.0773 11.824C73.9857 12.9022 73.0092 14.0899 72.1633 15.368C72.1633 15.2759 72.1135 15.1766 72.0921 15.0845C72.7856 14.1272 73.3241 13.0677 73.688 11.9445C74.4694 10.0915 75.152 8.19878 75.7327 6.27416C76.308 4.18071 77.1107 2.15579 78.1266 0.235223C78.2121 0.0792876 78.5256 -0.693297 78.7179 -0.742913C79.0742 -0.835057 78.9459 -0.0341209 78.8676 0.355717C78.7982 0.564628 78.7552 0.78128 78.7393 1.00072C78.7246 1.03954 78.7246 1.0824 78.7393 1.12122C78.6538 1.95051 78.5826 2.7798 78.5113 3.61618C78.0197 4.04022 77.603 4.54337 77.2788 5.10465C76.7707 5.68039 76.3767 6.34655 76.1175 7.06801C76.1086 7.10387 76.1116 7.14165 76.1262 7.17562C76.1408 7.2096 76.1661 7.23794 76.1982 7.25636C76.2304 7.27477 76.2678 7.28225 76.3046 7.27768C76.3415 7.27312 76.3758 7.25675 76.4024 7.23104V7.23104C76.5592 7.05384 76.7801 6.92626 76.9439 6.75614C77.1078 6.58603 77.3215 6.30252 77.5067 6.04735C77.7989 5.70004 78.0767 5.33855 78.3546 4.98416C78.5402 4.73459 78.7425 4.49778 78.9602 4.27536V4.04146C78.9602 4.14778 78.9602 4.24701 78.9602 4.34624C78.8679 4.94644 78.8393 5.5546 78.8747 6.16075C78.8747 6.39466 79.2452 6.40175 79.352 6.22455C79.6798 5.69295 80.1928 3.07041 79.0599 3.27596C79.1929 2.3309 79.3212 1.38583 79.4447 0.440774C80.3994 -0.976817 81.2543 -2.67084 82.5438 -3.812L82.6151 -3.8687C82.5795 -3.68442 82.5438 -3.51431 82.5367 -3.48595C82.3372 -2.62831 82.3158 -1.78484 82.1377 -0.927202C82.0594 -0.537364 82.608 -0.260933 82.8502 -0.643682C83.2018 -1.38011 83.4097 -2.17623 83.4629 -2.98979C83.983 -3.2237 84.439 -3.61354 84.952 -3.8687C84.9448 -3.5781 84.9235 -3.37963 84.8879 -3.27331V-3.25914Z" fill="white"/>
<path d="M100.307 5.86109C100.176 4.58867 98.7661 5.31275 97.7688 6.00169L97.8376 5.81188C98.0302 5.30573 98.037 4.61679 97.3011 4.70818C96.4069 4.81363 95.3821 5.86812 94.7974 6.48675C94.4123 6.89449 93.9102 7.3444 93.4218 7.8365C93.4382 7.70998 93.4269 7.58134 93.3888 7.45979C93.3508 7.33825 93.2869 7.22682 93.2017 7.1335C92.1356 6.11417 89.852 9.43229 89.4118 10.0369C87.9588 12.1847 86.6136 14.4067 85.3813 16.6942C84.7347 17.7768 84.1638 18.8805 83.5242 19.9631C83.3384 20.2795 83.1115 20.6169 82.9189 20.9684C82.8476 20.9008 82.7596 20.8546 82.6644 20.8348C81.6327 20.5958 81.0343 22.2408 80.5528 22.9086C79.6222 24.2244 78.8074 25.6218 78.1179 27.0844C77.3338 28.7435 76.3778 30.3041 75.4767 31.8999C74.8921 32.9404 74.3487 34.0089 73.7778 35.0634C73.2504 35.4879 72.7475 35.9433 72.2715 36.4272C72.2294 36.3452 72.1708 36.2734 72.0996 36.2163C72.0135 36.142 71.9067 36.0972 71.7944 36.0884C71.682 36.0795 71.5698 36.1071 71.4736 36.1671C70.9371 36.5256 70.6758 37.2427 70.3112 37.7629C69.7885 38.5151 69.3277 39.3024 68.8806 40.0968C67.9245 41.8262 67.051 43.5766 66.26 45.3833C65.8817 46.241 65.5722 47.1127 65.2764 47.9914C64.1897 50.3394 63.1373 52.7085 61.9199 55.0213C61.3421 56.0969 60.6475 57.4256 61.9199 58.3113C63.1924 59.1971 64.6093 58.2059 65.4003 57.1725C66.6314 55.5767 67.4637 53.6575 68.406 51.9141C69.3483 50.1707 70.2975 48.6874 70.7652 46.8034C71.5699 45.7559 72.2234 44.5678 73.0762 43.5555C74.108 42.3253 75.2429 41.1794 76.2746 39.9562C78.4901 37.3976 80.3805 34.5632 81.9009 31.5203C82.0783 31.1888 82.2102 30.834 82.293 30.4658C84.5903 28.4131 86.8532 26.3674 88.5796 23.7522C89.4875 22.3814 90.4642 21.0668 91.269 19.6257C91.7573 18.7399 92.507 17.4042 92.2594 16.3497C92.2519 16.3132 92.237 16.2787 92.2157 16.2485C92.1944 16.2182 92.1671 16.1928 92.1356 16.174C93.6016 15.088 94.892 13.7739 95.9599 12.2794C96.3657 11.8473 96.6816 11.3355 96.8884 10.775V10.7399C97.2177 10.3646 97.5667 10.0079 97.9339 9.67131C98.3122 9.2214 98.6217 8.70821 98.9725 8.26533C99.2749 7.83343 99.5505 7.38263 99.7978 6.91558C100.011 6.5922 100.341 6.21259 100.307 5.86109ZM78.1661 29.4184C78.964 28.0756 79.5417 26.6064 80.4152 25.3129C80.8417 24.6521 81.3025 24.0264 81.7908 23.3937C81.9078 23.2461 82.1898 22.6907 82.4374 22.3111C82.4686 22.9359 82.4386 23.5623 82.348 24.1811C82.348 24.9614 82.2242 25.7136 82.1416 26.4939C82.0247 27.5062 81.8046 28.5045 81.667 29.5168C80.8348 29.4746 79.6999 30.7259 79.1909 31.1337C78.0285 32.0546 76.7767 32.8841 75.5524 33.7488C76.5291 32.385 77.3338 30.8033 78.1661 29.4184ZM70.3043 46.0512C70.2562 46.255 70.2012 46.4448 70.1462 46.6346L69.9398 47.0353C69.9246 47.0671 69.9167 47.1019 69.9167 47.1373C69.9167 47.1726 69.9246 47.2075 69.9398 47.2392C69.4888 48.3167 68.9188 49.3379 68.2409 50.2832C67.388 51.5626 66.6796 52.9475 65.9023 54.2762C65.5071 55.0045 65.0708 55.7087 64.5955 56.3851C64.3732 56.7188 64.1018 57.0152 63.7908 57.2639C63.3505 57.6927 62.9929 57.5732 62.7246 56.9194C62.1744 56.7296 62.0368 56.4836 62.2157 56.1672C62.2128 56.1345 62.2128 56.1015 62.2157 56.0688C63.1759 54.4795 64.0485 52.8366 64.8294 51.1479C65.187 50.3535 65.5172 49.538 65.7854 48.7296C65.9849 48.2304 66.1775 47.7313 66.3701 47.2252C66.5007 46.9088 66.6383 46.5995 66.7896 46.2902C67.5875 44.6241 68.4197 43.0002 69.3277 41.3692C69.7747 40.5608 70.2424 39.7664 70.7514 39.0001C70.999 38.6276 71.2948 38.2971 71.5287 37.9035C71.53 37.8871 71.53 37.8706 71.5287 37.8543C71.5467 37.8594 71.5657 37.8594 71.5837 37.8543C71.5837 38.9931 71.2329 41.0529 71.2054 41.2849C70.9825 42.8879 70.6817 44.4786 70.3043 46.0512V46.0512ZM81.2268 31.2461C80.9861 31.6609 80.8554 32.2233 80.6353 32.6521C80.308 33.2952 79.9429 33.9173 79.5417 34.5151C78.7714 35.7101 77.7672 36.6732 76.9212 37.8051C76.0751 38.9369 75.2635 39.8437 74.3968 40.8139C73.5302 41.784 72.5054 42.7682 71.6456 43.8578C71.5011 44.0476 71.3705 44.2374 71.2467 44.4272C71.5424 42.8807 71.7969 41.32 71.9345 39.7594C72.1236 38.9241 72.2705 38.0794 72.3747 37.2286C74.3074 35.8226 76.309 34.5361 78.2761 33.1653C79.3147 32.4623 80.3396 31.6539 81.3369 30.9087L81.4538 30.8243C81.4745 30.9439 81.2887 31.1407 81.2268 31.2461ZM89.9277 20.5185C89.1161 21.7417 88.2082 22.9438 87.2796 24.0827C86.3511 25.2215 85.4157 26.3182 84.4321 27.3867C83.9575 27.8999 83.5792 28.4904 83.0564 28.9755C82.8363 29.1864 82.5956 29.3832 82.3686 29.58C82.5819 28.3779 82.6988 27.1477 82.857 25.9456C82.9739 25.0739 83.1527 24.1178 83.2146 23.1336C84.5215 22.1494 85.9315 21.2566 87.2521 20.2795C87.9881 19.7382 88.7447 19.2179 89.4738 18.6556C90.1808 18.0389 90.9251 17.4683 91.7023 16.9473C91.6404 18.1564 90.3954 19.7663 89.9277 20.5185ZM98.8693 6.74686C98.6126 7.21369 98.3254 7.66229 98.0095 8.08958C97.7173 8.57033 97.3761 9.01805 96.9916 9.42526C96.8131 9.57445 96.6452 9.73656 96.4894 9.91033C96.4257 9.88382 96.3585 9.86723 96.29 9.86111C95.7741 9.30575 94.7011 10.1845 94.2266 10.5079C93.752 10.8312 92.8096 11.3374 92.9335 11.9842C92.9425 12.0064 92.9567 12.026 92.9749 12.0413C92.9931 12.0566 93.0146 12.0671 93.0377 12.072C93.0607 12.0768 93.0846 12.0758 93.1072 12.0691C93.1298 12.0624 93.1504 12.0501 93.1673 12.0334C93.3049 11.8576 93.7038 11.7803 93.8895 11.6819C94.1922 11.5342 94.4879 11.3585 94.7837 11.1898C95.0794 11.021 95.3821 10.8242 95.6985 10.6696C95.9667 10.6696 95.836 10.7469 95.6985 11.0281C95.5029 11.3512 95.2721 11.6507 95.0107 11.9209C94.5223 12.5114 94.0202 13.116 93.4975 13.6854C92.6171 14.6415 91.6748 15.5343 90.7806 16.4974C89.2674 17.2004 87.8918 18.4939 86.6056 19.471C85.3659 20.3038 84.2134 21.265 83.1665 22.3392V22.051C84.0093 21.2576 84.7264 20.335 85.2918 19.3164C86.3894 17.6752 87.4019 15.9763 88.3251 14.2267C89.2754 12.3064 90.4286 10.4983 91.7642 8.83475C91.8742 8.70118 92.3213 8.01224 92.5139 8.00521C92.8716 8.00521 92.6033 8.7082 92.4451 9.10188C92.3374 9.29007 92.252 9.49066 92.1906 9.69943C92.1763 9.73793 92.1763 9.78043 92.1906 9.81893C91.9499 10.6133 91.716 11.4077 91.5028 12.2021C90.9511 12.5146 90.4576 12.9239 90.0446 13.4112C89.4507 13.8683 88.9467 14.436 88.559 15.0843C88.5466 15.1177 88.5444 15.1541 88.5528 15.1887C88.5611 15.2234 88.5796 15.2546 88.6057 15.2782C88.6319 15.3019 88.6644 15.3169 88.6991 15.3212C88.7337 15.3254 88.7688 15.3189 88.7997 15.3023V15.3023C88.9785 15.1687 89.2124 15.0843 89.3981 14.9508C89.5838 14.8172 89.8452 14.5852 90.0859 14.4024C90.4298 14.1212 90.7737 13.833 91.097 13.5307C91.3161 13.3393 91.5457 13.1609 91.7848 12.9965L91.8467 12.7715C91.8467 12.8769 91.8123 12.9754 91.7917 13.0738C91.5902 13.6386 91.4451 14.2227 91.3584 14.8172C91.3626 14.8674 91.3809 14.9153 91.4113 14.955C91.4416 14.9948 91.4826 15.0246 91.5292 15.041C91.5758 15.0574 91.6261 15.0596 91.6739 15.0473C91.7218 15.035 91.765 15.0088 91.7985 14.9719C92.2112 14.522 93.2086 12.0755 92.0943 12.0545C92.4107 11.1687 92.7133 10.2829 93.0091 9.39713C94.1921 8.18096 95.3202 6.7328 96.7646 5.88218L96.8402 5.84C96.7646 6.00872 96.7027 6.16337 96.6889 6.19852C96.3313 6.9929 96.1524 7.80135 95.8223 8.60276C95.7847 8.68167 95.7761 8.77177 95.7981 8.85661C95.8201 8.94145 95.8713 9.01537 95.9422 9.06484C96.0132 9.11431 96.0991 9.13605 96.1845 9.12607C96.2698 9.11609 96.3487 9.07507 96.4069 9.0105C96.8824 8.36398 97.2347 7.63186 97.4455 6.85231C97.982 6.7328 98.491 6.43754 99.0275 6.29694C98.9931 6.45863 98.9312 6.64141 98.8693 6.74686Z" fill="white"/>
<path d="M88.3733 72.6883C87.1147 71.87 84.9936 71.2895 85.2482 69.4989C85.4744 67.9461 85.8421 66.4213 86.0825 64.8685C86.2663 63.7354 87.2632 59.203 85.7007 58.6924C85.5909 58.6491 85.4698 58.6427 85.356 58.6743C85.2423 58.706 85.1423 58.7738 85.0714 58.8673C84.4775 59.7486 84.1735 60.8048 83.5725 61.6651C82.8782 62.6652 82.1324 63.6294 81.3382 64.5538C79.6554 66.5612 77.803 69.5408 74.7345 68.9393L72.6134 68.5336C71.8285 68.3448 71.0366 68.1839 70.2448 68.051C70.2707 67.8462 70.2397 67.6383 70.1549 67.4497C70.0702 67.2611 69.935 67.099 69.764 66.9809C69.3468 66.6871 68.7246 66.7081 68.2651 66.5122C67.5085 66.2045 67.056 65.519 66.3419 65.1763C65.7914 64.9623 65.1909 64.9065 64.6097 65.0154C64.1348 65.1256 63.64 65.1194 63.1681 64.9975C62.6962 64.8756 62.2615 64.6417 61.9017 64.316C60.7492 63.3787 59.7806 64.0292 58.5362 64.5398C58.0723 64.7626 57.5635 64.8783 57.0479 64.8783C56.5323 64.8783 56.0234 64.7626 55.5596 64.5398C54.937 64.3213 54.263 64.2896 53.6223 64.4489C52.8396 64.6649 52.0938 64.995 51.4093 65.4281C50.7517 65.7988 49.4154 67.0298 48.673 66.4983C48.2912 66.2255 48.2205 65.8408 47.6336 65.8757C47.0468 65.9107 46.4175 66.6451 45.9862 67.0648C44.6877 68.3602 43.5049 69.7643 42.451 71.2615C41.2208 72.9471 39.8704 74.5908 38.7391 76.3394C38.23 77.1368 37.7705 77.9342 37.325 78.7455C35.4831 80.6508 33.9496 82.8261 32.7788 85.1944C31.6189 87.6734 30.6176 90.2221 29.7809 92.8253C29.4132 93.8815 29.0314 94.9237 28.7203 96.0148C28.6005 96.256 28.5824 96.5344 28.6699 96.7888C28.7574 97.0432 28.9433 97.2529 29.187 97.3717C30.0783 97.8331 31.0301 98.1697 32.0151 98.3719C33.1292 98.6994 34.2692 98.9334 35.4231 99.0714C38.0838 99.2837 40.7604 99.1875 43.3985 98.7846C45.6769 98.4734 47.9307 98.006 50.1436 97.3857C50.3133 97.5536 50.4759 97.7634 50.5961 97.8683C50.9921 98.2181 51.3951 98.5678 51.7769 98.8965C52.4075 99.522 53.1386 100.04 53.9404 100.428C54.5202 100.694 55.0646 100.932 55.6232 100.505C56.1483 100.004 56.5144 99.3624 56.6767 98.6587C57.7443 98.9805 59.0311 99.2532 59.7594 98.6587C60.2472 98.274 60.2331 97.5186 60.5513 97.036C60.8694 96.5534 61.3714 96.3366 61.2583 95.6721C60.9384 94.9684 60.3703 94.404 59.6604 94.0843L59.9361 93.9724C64.5889 92.0033 68.8068 89.1519 72.3518 85.5791C74.1406 85.9498 76.0849 86.3485 77.393 84.7398C78.4818 83.3968 77.4495 81.7322 76.5233 80.4871C76.8553 79.8849 77.2385 79.3116 77.6687 78.7735C78.6232 77.6404 80.4473 78.0111 81.7978 78.0111C83.2826 78.0111 84.7744 78.0811 86.2663 78.095C87.7581 78.109 89.1722 78.2279 90.6216 78.207C91.3287 78.207 92.5165 78.3329 92.6933 77.4166C92.8347 76.6752 91.76 75.5211 91.3358 75.0455C90.4605 74.1309 89.4639 73.338 88.3733 72.6883ZM65.4298 66.1905C65.8115 66.2501 66.1676 66.4177 66.455 66.6731C66.9748 67.1595 67.5912 67.5334 68.2651 67.7712C68.5322 67.8116 68.804 67.8116 69.0711 67.7712C69.0771 67.8036 69.0771 67.8368 69.0711 67.8692C68.2226 67.7503 67.3742 67.6523 66.5187 67.5754C65.4793 67.4845 64.4541 67.4005 63.4289 67.3586C64.0615 66.9142 64.7308 66.5234 65.4298 66.1905V66.1905ZM64.2703 66.1485C63.774 66.5224 63.3017 66.9265 62.8562 67.3586C61.7047 67.3144 60.5515 67.3542 59.4059 67.4775C60.2109 66.8252 61.0857 66.2623 62.0148 65.7988C62.7115 66.1451 63.5 66.2673 64.2703 66.1485V66.1485ZM58.9392 65.4001C59.6462 65.1273 60.4381 64.5188 61.2583 65.0574C61.3662 65.1362 61.4615 65.2305 61.5411 65.3372C61.2934 65.4749 61.057 65.6316 60.8341 65.8058C60.1271 66.3396 59.4607 66.9241 58.8402 67.5544L58.4302 67.6104C56.8686 67.8826 55.33 68.2707 53.8273 68.7714C55.2414 67.6244 56.7403 66.6731 58.31 65.617C58.5221 65.582 58.7342 65.4771 58.9392 65.4001ZM54.8313 65.7289C54.8687 65.699 54.8938 65.6568 54.902 65.61C55.4606 65.61 55.9838 65.7918 56.5848 65.8478C55.2608 66.7414 54.0707 67.8151 53.0496 69.0372C51.6025 69.557 50.1861 70.1572 48.8074 70.8348C49.472 70.1843 50.1295 69.5478 50.8153 68.9183C52.1092 67.7503 53.4738 66.799 54.8313 65.7289V65.7289ZM49.4366 67.9881C50.0247 67.7865 50.5834 67.509 51.0982 67.1627C51.7848 66.7424 52.4927 66.3572 53.2193 66.0086C52.2959 66.7264 51.435 67.5196 50.6456 68.3798C49.6699 69.31 48.7861 70.3172 47.8882 71.3104C46.2903 72.1288 44.7489 73.0311 43.2641 73.9683C43.1864 74.0173 43.1227 74.0662 43.045 74.1082C43.9641 73.1849 44.8409 72.2267 45.7529 71.3104C46.9266 70.0794 48.1993 69.0792 49.4366 67.9881V67.9881ZM39.3825 76.7731C40.5421 75.1364 41.8996 73.5976 43.151 72.0239C43.8581 71.1566 44.5651 70.3382 45.3075 69.5268C45.7883 69.0093 46.2408 68.4707 46.7216 67.9881C46.8064 67.9041 47.4781 67.1417 47.6125 67.1697C47.7468 67.1977 48.0367 67.7503 48.3195 67.8692L48.4821 67.9391C48.369 68.044 48.2559 68.1489 48.1427 68.2399C47.3394 68.8931 46.5767 69.5938 45.859 70.3382C44.5368 71.7371 43.4126 73.2339 42.1965 74.6818C41.1912 75.3664 40.2257 76.1067 39.3047 76.899C39.3351 76.8599 39.3611 76.8177 39.3825 76.7731ZM54.6687 99.6729C53.9617 99.6309 53.1203 98.8476 52.6042 98.4419C52.0704 97.9726 51.4954 97.5512 50.8861 97.1829L51.5436 96.994C51.9207 97.1741 52.3078 97.3329 52.7031 97.4697C53.6505 97.7634 54.6192 97.9872 55.5737 98.274L55.906 98.3789C55.5949 98.8965 55.3687 99.7009 54.6687 99.6659V99.6729ZM59.922 96.5464C59.7594 96.8402 59.6321 97.2109 59.4554 97.4906C58.9887 98.2251 58.1827 98.0712 57.4262 97.9383C55.7293 97.6375 54.0606 97.1549 52.392 96.7422C54.4354 96.1057 56.4575 95.3783 58.4443 94.5949L58.5362 94.6369C59.001 94.7841 59.4314 95.022 59.8018 95.3363C60.2967 95.805 60.226 95.9798 59.922 96.5394V96.5464ZM75.8375 84.7957C75.0657 85.0801 74.2327 85.162 73.4194 85.0335L72.9527 84.9916C73.8486 84.0868 74.6936 83.1341 75.4839 82.1378C75.6588 81.9133 75.8216 81.6798 75.9718 81.4384C76.2276 81.8179 76.4636 82.2101 76.6788 82.6135C76.8007 82.8047 76.8759 83.0213 76.8984 83.2463C76.9209 83.4712 76.89 83.6983 76.8084 83.9094C76.7267 84.1205 76.5965 84.3099 76.4279 84.4625C76.2594 84.6152 76.0572 84.7269 75.8375 84.7887V84.7957ZM90.5651 76.948C89.1934 76.948 87.8218 76.85 86.4501 76.8291C84.0886 76.8291 81.7271 76.6822 79.3797 76.7031C78.5101 76.7031 77.9162 76.5982 77.2586 77.2207C76.389 78.0601 75.9081 79.2561 75.2435 80.2493C72.4931 84.3411 68.4277 87.6565 64.2844 90.2934C59.9432 93.0492 54.8101 94.7628 49.8679 96.1337L48.2347 96.5674C48.4372 95.1777 48.4775 93.7695 48.3548 92.3707C48.6164 92.3707 48.878 92.3148 49.1467 92.2938C49.8538 92.2378 50.6315 92.2938 51.3739 92.1958C52.8967 91.9983 54.4023 91.6874 55.8777 91.2656C57.4297 90.9586 58.9359 90.458 60.3604 89.7758C61.0038 89.426 61.8168 88.9784 61.937 88.195C61.9455 87.7833 61.8404 87.377 61.633 87.02C61.1805 85.9078 61.5058 85.3972 61.8452 84.3761C62.2552 83.173 61.5128 82.8722 61.025 81.872C60.6573 81.1096 61.1381 80.5501 60.8906 79.7737C60.8155 79.529 60.6584 79.3168 60.4452 79.1722C60.2614 79.0533 60.0281 79.0673 59.8584 78.9693C59.0594 78.5287 59.0806 78.144 59.2786 77.4236C59.4766 76.7031 59.6816 76.1296 59.8584 75.4791C59.8874 75.397 59.892 75.3085 59.8716 75.2239C59.8513 75.1393 59.8069 75.0622 59.7436 75.0019C59.6804 74.9415 59.6009 74.9004 59.5147 74.8833C59.4286 74.8662 59.3392 74.874 59.2574 74.9056C57.9988 75.2973 56.9595 76.5633 56.0615 77.4516C54.9161 78.5847 53.799 79.7387 52.689 80.8998C50.6907 83.0475 48.8029 85.2932 47.0327 87.6285C46.9903 87.5585 46.9549 87.4746 46.9124 87.4046C46.1758 86.0235 45.1517 84.8125 43.9075 83.8515C42.8108 83.1395 41.5413 82.7313 40.231 82.6694C40.2065 82.6654 40.1815 82.6705 40.1607 82.6838C40.1399 82.6972 40.125 82.7177 40.1188 82.7414C40.1125 82.7651 40.1155 82.7903 40.1271 82.8119C40.1387 82.8335 40.1581 82.8501 40.1815 82.8583C41.3622 83.3339 42.4935 83.5577 43.5116 84.39C44.7266 85.4527 45.6693 86.7856 46.262 88.279C46.8169 89.7613 47.1457 91.3172 47.2377 92.8953C47.3155 93.7235 47.3155 94.5571 47.2377 95.3853C47.1305 95.8633 47.0713 96.3506 47.0609 96.8402C43.0167 97.7634 38.6755 98.288 34.6807 97.6096C33.597 97.4266 32.5304 97.1552 31.4919 96.7982L30.7213 96.5044C32.4448 96.7028 34.1893 96.6296 35.8897 96.2876C37.1687 96.1324 38.4368 95.8988 39.6865 95.5881C40.7117 95.2944 41.6663 94.8887 42.6632 94.539C43.144 94.3711 42.8187 93.6857 42.3521 93.8395C40.0428 94.5515 37.6779 95.0732 35.2817 95.3993C34.0979 95.5649 32.906 95.6676 31.7111 95.7071C31.1722 95.6905 30.6356 95.7833 30.1344 95.9798L30.1768 95.8609C30.8839 93.5318 31.6546 91.1397 32.5878 88.8665C34.5039 84.2292 37.0917 80.0675 41.0723 76.927C43.538 75.0455 46.1998 73.4299 49.0124 72.1078C51.6611 70.7256 54.4666 69.6596 57.3696 68.9323C58.218 68.7505 59.0806 68.7295 59.9149 68.5756C60.7187 68.4036 61.5504 68.4036 62.3542 68.5756C63.5279 68.7575 64.9491 68.4357 66.1652 68.4777L67.9257 68.6176C68.1944 68.6176 68.4701 68.6805 68.7388 68.7225C70.0822 68.9393 71.4043 69.1841 72.7335 69.5129C73.9002 69.8136 75.2436 70.3312 76.4667 70.0724C78.8777 69.5548 80.3201 67.5824 81.6776 65.7568C82.4907 64.6797 83.3745 63.6585 84.1664 62.5534C84.627 61.8526 85.0381 61.1211 85.3966 60.3641C85.3472 61.2594 85.1774 62.6233 85.1492 62.8751C85.1209 63.1269 85.0855 63.4417 85.0502 63.7285C84.9875 63.7259 84.9256 63.743 84.8734 63.7774C83.028 64.8895 82.1584 67.1417 80.7443 68.6735C80.6878 68.7365 80.7797 68.8134 80.8433 68.7714C81.7688 68.0541 82.6042 67.2299 83.3321 66.3164C83.7366 65.7592 84.1834 65.2331 84.6684 64.7427C84.7603 64.6657 84.8522 64.6028 84.9371 64.5398C84.8663 65.0574 84.7744 65.575 84.6684 66.0996C84.5835 66.5192 84.4987 66.9459 84.4209 67.3726C84.2695 67.4153 84.1279 67.4865 84.0038 67.5824C83.5405 67.9357 83.112 68.3315 82.724 68.7645C82.0014 69.4195 81.3433 70.1408 80.7585 70.9187C80.7266 70.9623 80.7135 71.0167 80.7221 71.0698C80.7308 71.1229 80.7604 71.1705 80.8044 71.202C80.8485 71.2336 80.9034 71.2465 80.9571 71.238C81.0108 71.2294 81.0589 71.2001 81.0908 71.1566C81.743 70.4222 82.4522 69.7394 83.2119 69.1142C83.5371 68.8274 83.9189 68.5756 84.2371 68.2888C84.1522 68.8274 84.0745 69.366 84.025 69.8976C83.9888 70.1481 83.9888 70.4024 84.025 70.653C83.7226 70.7486 83.4292 70.8703 83.1482 71.0167C82.206 71.4258 81.3443 71.9965 80.6029 72.7023C80.5904 72.712 80.5799 72.724 80.572 72.7376C80.5642 72.7513 80.5591 72.7663 80.5572 72.7819C80.5552 72.7975 80.5564 72.8133 80.5606 72.8285C80.5648 72.8436 80.572 72.8578 80.5817 72.8702C80.5915 72.8826 80.6035 72.893 80.6174 72.9007C80.6312 72.9085 80.6464 72.9135 80.6621 72.9155C80.6779 72.9174 80.6939 72.9163 80.7092 72.9121C80.7245 72.9079 80.7389 72.9008 80.7514 72.8912C81.6147 72.3428 82.5463 71.9079 83.523 71.5972C83.7846 71.5063 84.0674 71.4573 84.3361 71.3804C84.4514 71.537 84.5869 71.6781 84.7391 71.8C85.0417 72.0409 85.366 72.2539 85.7077 72.4365C85.031 72.5868 84.3668 72.7879 83.721 73.0381C83.0139 73.2689 82.0099 73.3388 81.5079 73.8774C81.3807 74.0103 81.6069 74.2201 81.7412 74.0942C82.2856 73.6046 83.6078 73.7235 84.2937 73.5556C84.7532 73.4437 85.1774 73.2829 85.637 73.1919C85.7289 73.1919 86.4006 72.9751 86.436 72.9891C86.5176 73.0094 86.6041 72.9968 86.6764 72.9541C86.9521 73.108 87.2278 73.2619 87.4895 73.4298L88.4369 74.0592C87.8996 74.1292 87.3692 74.2551 86.8178 74.374C85.5804 74.6328 84.3007 74.6678 83.0917 75.0734C82.8513 75.1504 82.9644 75.5421 83.2048 75.4931C84.4916 75.2133 85.8279 75.3952 87.1289 75.1574C87.8359 75.0175 88.7904 75.1014 89.547 74.9056C89.8543 75.1573 90.1404 75.4333 90.4025 75.7309C90.657 76.0247 90.862 76.5143 91.1095 76.843C90.9469 76.906 90.6358 76.941 90.5651 76.941V76.948ZM53.693 89.2582C52.7564 89.689 51.768 89.9992 50.7517 90.1814C49.981 90.3633 48.7084 90.1814 48.0437 90.6711C48.0013 90.4752 47.9589 90.2724 47.9094 90.0765C49.0705 89.7595 50.1959 89.326 51.2678 88.7826C52.6254 88.188 53.9193 87.3837 55.2626 86.7472C55.3077 86.723 55.3419 86.683 55.3586 86.635C55.3753 86.5871 55.3733 86.5347 55.3529 86.4882C55.3325 86.4417 55.2952 86.4044 55.2483 86.3837C55.2015 86.363 55.1486 86.3604 55.1 86.3765C53.8041 86.8452 52.5364 87.387 51.3032 87.9992C50.7376 88.2929 50.1154 88.4258 49.5427 88.6986C48.9712 89.011 48.3601 89.2462 47.7256 89.3981C47.7286 89.3702 47.7286 89.342 47.7256 89.3141C48.1778 88.9658 48.65 88.6436 49.1396 88.3489C49.7336 87.8453 50.3204 87.3347 50.9285 86.8381C52.1317 85.8296 53.2589 84.7356 54.301 83.5647C54.3505 83.5087 54.2516 83.4178 54.195 83.4668C53.007 84.5786 51.7558 85.6225 50.4476 86.5933C49.4507 87.2927 48.5669 88.1531 47.5771 88.8665C47.4922 88.6357 47.4003 88.4049 47.3014 88.167C48.1181 87.5421 48.85 86.8157 49.479 86.0058C50.5113 84.8587 51.6001 83.7535 52.6324 82.6414C53.6647 81.5293 54.9374 80.2214 56.1181 79.0393C56.6908 78.4658 57.2706 77.9062 57.8433 77.3327C58.0978 77.0878 58.3665 76.7731 58.6564 76.4793C58.417 77.0961 58.2878 77.7493 58.2746 78.4098C58.2746 79.2701 58.6705 79.2841 59.3069 79.6618C59.7099 79.8996 60.0139 80.0325 60.0139 80.662C60.0139 80.8998 59.9291 81.1446 59.9291 81.3614C59.9046 81.7425 59.9878 82.1227 60.1694 82.4596C60.4876 83.0261 60.9967 83.159 60.8765 83.9354C60.8058 84.411 60.4664 84.8447 60.3674 85.3343C60.127 86.4674 61.23 87.7614 60.2897 88.6427C59.2008 89.6639 57.3555 89.9157 55.9626 90.2584C54.5662 90.6371 53.15 90.9407 51.7204 91.1677C51.0133 91.2726 50.2709 91.2866 49.5497 91.3425C49.1397 91.3775 48.673 91.4964 48.2488 91.4964C48.2488 91.3635 48.1993 91.2306 48.171 91.1047C49.1336 91.1221 50.0916 90.9681 50.9992 90.6501C51.9954 90.3653 52.9318 89.9057 53.7637 89.2931C53.7849 89.3001 53.7425 89.2232 53.693 89.2512V89.2582Z" fill="white"/>
<path d="M36.9118 89.1557C36.7688 89.0134 36.6022 88.9205 36.4264 88.8851C36.2506 88.8496 36.0711 88.8727 35.9035 88.9523C35.7359 89.0319 35.5852 89.1656 35.4647 89.3417C35.3442 89.5178 35.2575 89.7311 35.2121 89.9628C35.1439 90.2028 35.1192 90.4613 35.14 90.7168C35.1608 90.9723 35.2266 91.2174 35.3318 91.4317L35.3857 91.5124C35.4886 91.7209 35.6331 91.8861 35.8024 91.9889C35.9718 92.0917 36.1593 92.1279 36.3433 92.0936C36.5647 92.0146 36.7666 91.8576 36.9283 91.6389C37.09 91.4201 37.2056 91.1473 37.2635 90.8484C37.3213 90.5496 37.3192 90.2353 37.2575 89.9379C37.1957 89.6405 37.0764 89.3705 36.9118 89.1557Z" fill="white"/>
<path d="M48.6832 56.5937C48.3137 55.9932 47.8977 55.423 47.4392 54.8884C47.1979 54.6175 47.0351 54.2849 46.9686 53.927C46.902 53.5691 46.9343 53.1996 47.0618 52.859C47.3201 51.0581 47.4811 49.2445 47.544 47.426C47.8376 43.9027 47.9913 39.3928 50.3396 36.5882H50.3885C50.5004 36.6018 50.6139 36.5847 50.717 36.5389V36.5389C50.9886 36.4903 51.2537 36.4099 51.5068 36.2993C51.596 36.2625 51.6733 36.2015 51.7304 36.1232C52.9557 35.7145 54.0887 35.0655 55.0641 34.2135C56.2243 33.0297 55.6093 31.3949 56.2033 29.9855C56.9022 28.245 58.8801 27.3923 59.4322 25.4898C59.6104 24.7641 59.653 24.0114 59.558 23.2701C59.4504 22.7893 59.4011 22.2971 59.4112 21.8044C59.615 21.1956 59.9799 20.6547 60.4666 20.24C61.4171 19.1266 62.3745 17.7525 62.2837 16.2093C62.1858 14.4335 61.1236 13.0172 60.3967 11.4669C59.6699 9.91664 60.7391 8.09155 59.9843 6.44264C59.4043 5.17424 58.0554 4.44843 56.8603 3.87765C55.9378 3.43371 54.6378 3.31392 53.9459 2.46832C53.5662 1.85931 53.1209 1.2945 52.618 0.784171C51.3234 -0.138103 49.7857 -0.650803 48.201 -0.688578C46.4747 -0.773138 44.9372 -0.0825693 43.3088 0.326137C41.6803 0.734843 40.0799 0.445934 38.6192 1.24925C37.1585 2.05257 36.6203 3.75081 35.1876 4.40615C33.7549 5.06149 32.5458 5.4702 31.6931 6.80907C30.925 8.04447 30.518 9.47326 30.519 10.9314C30.5854 11.3371 30.6274 11.7466 30.6448 12.1575C30.5796 12.6799 30.4209 13.186 30.1765 13.6514C29.8585 14.3247 29.696 15.0619 29.7013 15.8077C29.7572 17.52 30.6867 18.9857 31.5394 20.4162C32.2383 21.5366 32.4549 22.0651 32.0915 23.3617C31.8378 24.118 31.7034 24.9098 31.6931 25.7082C31.8539 29.5486 35.1876 31.9586 38.0461 33.8894C38.4375 34.594 38.745 35.2987 39.1713 35.947C39.8702 36.9406 40.1707 38.061 40.7858 39.0616C40.8281 39.1351 40.8914 39.1941 40.9674 39.2307C41.3053 41.5934 41.4943 43.9752 41.5335 46.362C41.5335 47.9334 41.6733 49.5048 41.6663 51.0832C41.6593 52.6617 40.1288 53.5918 39.1294 54.7193C37.8504 56.1709 35.3833 59.4406 37.7665 61.0613C38.745 61.7237 40.1917 61.5616 41.261 61.2656C42.0167 61.0362 42.6942 60.5995 43.2179 60.0043C43.756 61.8857 45.4613 63.4712 47.565 62.8229C50.0531 62.0055 49.7106 58.3554 48.6832 56.5937ZM39.5976 34.8125C39.3171 34.3115 38.9363 33.8747 38.4794 33.53V33.53C36.18 31.8388 33.2237 28.9426 33.0909 25.8703C33.035 24.5173 34.0135 23.3264 33.9086 21.9805C33.8178 20.8249 32.9162 19.782 32.3501 18.8166C31.5254 17.4072 30.8265 16.0684 31.4136 14.4124C31.6904 13.8413 31.9037 13.241 32.0496 12.6226C32.1404 11.8615 31.8329 11.1287 31.8818 10.3676C31.9213 9.58849 32.1227 8.82641 32.4731 8.13082C32.8235 7.43523 33.3149 6.82166 33.9156 6.32989C35.0478 5.53362 36.2639 5.42087 37.1515 4.27226C38.2348 2.86293 39.2482 1.8764 41.0863 1.83412C42.4904 1.77088 43.8797 1.51727 45.2167 1.08013C46.6582 0.582213 48.2069 0.489643 49.6967 0.812358C50.5435 0.998341 51.3371 1.37672 52.0169 1.91868C52.6459 2.46128 52.7578 3.32802 53.3588 3.85651C53.8597 4.1784 54.4213 4.39195 55.0082 4.48367C55.8967 4.77665 56.741 5.1916 57.5173 5.71683C58.1576 6.05745 58.6377 6.64036 58.8521 7.33757C59.0968 8.28182 58.6844 9.21902 58.6564 10.1562C58.6145 11.481 59.4322 12.5803 60.0542 13.6796C61.0397 15.5681 61.1375 17.0549 59.7677 18.7461C58.7613 20.0004 57.8248 20.8601 58.0205 22.5583C58.1532 23.7422 58.3419 24.8203 57.65 25.8914C57.1216 26.5806 56.5447 27.2306 55.9238 27.8363C55.0264 28.9032 54.5467 30.264 54.5749 31.6626C54.519 32.8817 54.0088 33.3538 52.9954 33.9105C52.1078 34.4038 51.1923 34.8477 50.2767 35.3198H50.2348C49.4918 35.3583 48.7589 35.5104 48.0612 35.7708C47.5023 36.063 46.9732 36.41 46.4817 36.8067C45.4334 35.9047 44.8463 34.4672 43.176 34.742C41.7782 34.9746 41.6104 36.1513 41.261 37.2718C41.1537 36.9956 41.0276 36.7271 40.8836 36.4684C40.4869 35.8938 40.0599 35.3411 39.6046 34.8125H39.5976ZM47.558 61.1529C46.964 61.7589 46.1602 61.5405 45.5102 61.1529C45.0555 60.89 44.686 60.4998 44.4466 60.0296C44.2072 59.5593 44.1081 59.0292 44.1614 58.5034C44.177 58.367 44.1434 58.2296 44.0667 58.1163C43.99 58.0029 43.8753 57.9212 43.7438 57.8861C43.6122 57.851 43.4725 57.8649 43.3503 57.9252C43.228 57.9855 43.1314 58.0882 43.0781 58.2144C42.6728 58.9529 42.0363 59.5352 41.268 59.8704C40.6669 60.1241 39.367 60.3637 38.752 60.0395C37.2144 59.2151 39.0105 56.9249 39.6885 56.1498C41.0863 54.6066 42.9802 53.4791 42.9313 51.2171C42.9259 48.8113 42.7695 46.4083 42.4631 44.0225C42.2744 42.7893 42.0507 41.5702 41.8131 40.3441C41.7362 39.9284 41.7153 39.5056 41.6663 39.0898C41.6663 39.0898 41.6663 39.0898 41.7083 39.0475C42.4072 38.1315 42.1765 36.7715 43.106 36.1302C43.77 35.6863 44.0706 35.9259 44.6227 36.4755C44.8044 36.6587 44.9651 36.8983 45.1329 37.0956C45.3822 37.4428 45.6707 37.7597 45.9925 38.0398C46.0769 38.1077 46.178 38.1514 46.285 38.1663C46.392 38.1812 46.501 38.1667 46.6005 38.1244C47.2994 37.8073 47.7607 37.2365 48.4666 36.9406C48.5574 36.8983 48.6553 36.8701 48.7461 36.8349C47.5983 38.6571 46.8809 40.7208 46.6494 42.8668C46.4607 44.1775 46.335 45.4882 46.1952 46.8059C46.0275 48.3562 46.1952 49.9205 45.9226 51.4637C45.7758 52.408 45.2237 53.7257 45.5732 54.67C45.9226 55.6142 46.971 56.178 47.4672 57.0165C48.187 58.1863 48.6203 60.0677 47.565 61.1529H47.558Z" fill="white"/>
<path d="M40.5001 26.7141C39.4563 26.0954 38.0719 25.9759 37.8906 24.5347C37.7457 23.3958 38.4778 22.6716 38.9344 21.7225C39.739 20.0774 37.202 19.1073 36.7599 17.6309C36.4047 16.4498 37.231 15.5218 37.2963 14.418C37.2893 13.7526 37.0519 13.1089 36.6222 12.5901C35.6146 11.0224 35.8538 9.67957 37.3832 8.54066C38.572 7.65484 40.0144 6.83932 41.5439 7.26114C41.5628 7.26771 41.5835 7.26713 41.602 7.25951C41.6204 7.2519 41.6353 7.23782 41.6435 7.22008C41.6517 7.20234 41.6527 7.18223 41.6464 7.16378C41.64 7.14533 41.6267 7.1299 41.6091 7.12054C39.6303 6.2769 36.7671 7.59157 35.6364 9.29994C35.3382 9.76262 35.1664 10.2913 35.1373 10.8362C35.1081 11.3811 35.2225 11.9242 35.4697 12.4144C35.8828 13.2791 36.296 13.8204 35.9698 14.8117C35.6763 15.4243 35.4503 16.0653 35.2957 16.724C35.2566 17.2876 35.3346 17.853 35.5252 18.3868C35.7157 18.9206 36.0148 19.4118 36.4047 19.8314C36.6729 20.1548 37.637 20.8789 37.7094 21.2374C37.7819 21.596 37.1078 22.4256 36.9846 22.756C36.7621 23.2772 36.6629 23.8402 36.6943 24.4035C36.7257 24.9668 36.8868 25.5161 37.1658 26.011C37.8472 27.157 38.9707 27.3609 40.2537 27.3609C40.5436 27.3257 40.8553 26.8969 40.5001 26.7141Z" fill="white"/>
<path d="M46.6939 30.3475C45.2997 29.9709 43.6756 30.6457 42.8176 28.998C42.5725 28.5272 42.312 28.1192 42.0516 27.6642C41.7803 27.1995 41.6501 26.6627 41.6774 26.1221C41.7046 25.5814 41.8882 25.0613 42.2048 24.6277C42.4116 24.2589 41.8294 23.9294 41.5919 24.2589C40.912 24.9887 40.5428 25.9652 40.5654 26.9737C40.6225 27.4873 40.7985 27.9796 41.0787 28.4095C41.3928 28.9352 41.5843 29.508 41.8907 30.0258C42.7793 31.5244 45.5371 32.2541 46.916 31.1321C46.984 31.0782 47.0345 31.0046 47.0611 30.9208C47.0877 30.8371 47.0891 30.7471 47.0652 30.6625C47.0412 30.578 46.993 30.5027 46.9268 30.4466C46.8606 30.3904 46.7795 30.3559 46.6939 30.3475V30.3475Z" fill="white"/>
<path d="M45.4697 22.9704C44.8015 23.0365 43.7725 22.9042 43.7926 22.0117C43.7926 21.3505 44.4207 20.848 44.7815 20.3918C44.8394 20.3034 44.8619 20.1967 44.8445 20.0928C44.8272 19.9888 44.7712 19.895 44.6877 19.8296C44.6041 19.7643 44.4989 19.7322 44.3927 19.7396C44.2865 19.7469 44.1868 19.7933 44.1133 19.8695C43.5988 20.5307 42.8572 21.1918 42.777 22.0183C41.8416 21.7737 40.9128 21.4034 40.6055 20.3852C40.1912 19.01 40.826 17.9058 41.9418 17.0794C42.2425 16.8546 41.9017 16.4182 41.5943 16.6231C40.1444 17.5422 39.0687 19.043 39.6299 20.8216C40.0375 22.1439 41.5141 23.2547 42.924 22.8844C43.1591 23.3906 43.5723 23.7948 44.0866 24.0216C44.3806 24.1227 44.6957 24.1491 45.0028 24.0983C45.3098 24.0474 45.599 23.921 45.8438 23.7307C46.198 23.5125 45.8772 22.9241 45.4697 22.9704Z" fill="white"/>
<path d="M43.3277 13.58C42.6629 13.5405 41.7904 13.4444 41.9067 12.8571C42.0632 12.4533 42.3219 12.0711 42.6713 11.7275C42.987 11.3379 42.0148 10.9482 41.6741 11.3322C41.1672 11.897 40.4608 12.5352 40.5772 13.2411C40.7351 14.2182 42.0813 14.5344 43.336 14.3707C43.4733 14.3542 43.5975 14.3052 43.6867 14.2324C43.7759 14.1596 43.8243 14.0677 43.8233 13.9729C43.8223 13.8782 43.772 13.7868 43.6813 13.7149C43.5906 13.6429 43.4653 13.5951 43.3277 13.58V13.58Z" fill="white"/>
<path d="M52.4982 6.36131C51.9373 5.27716 51.0434 4.37814 49.9334 3.78173C48.8747 3.33419 47.5199 3.91226 46.6058 4.40331C46.5006 4.45926 46.4349 4.49655 46.4349 4.50898C46.2968 4.50898 46.1455 4.43439 46.0074 4.43439C45.459 4.47486 44.9481 4.71298 44.5803 5.09949C44.1947 5.4311 43.9388 5.87605 43.854 6.36227C43.7693 6.84849 43.8607 7.34751 44.1134 7.77852C44.1592 7.84675 44.229 7.89746 44.3106 7.92165C44.3922 7.94584 44.4801 7.94194 44.5589 7.91066C44.6378 7.87937 44.7023 7.82272 44.7411 7.75074C44.78 7.67876 44.7905 7.59611 44.771 7.51745C44.3502 6.50427 45.1393 4.94409 46.4875 5.3792C46.5579 5.40861 46.6353 5.41951 46.7117 5.41076C46.7881 5.402 46.8606 5.37392 46.9215 5.32947C47.4137 4.93176 48.0453 4.72214 48.6924 4.74169C49.3396 4.76123 49.9558 5.00855 50.4201 5.43515C50.9199 5.94485 51.3868 6.61615 52.1299 6.77777C52.1866 6.78433 52.2441 6.77739 52.2972 6.75755C52.3503 6.73772 52.3973 6.70564 52.4339 6.66423C52.4705 6.62282 52.4956 6.57341 52.5068 6.5205C52.5181 6.46758 52.5151 6.41286 52.4982 6.36131V6.36131Z" fill="white"/>
<path d="M57.3454 16.7548C56.8825 15.7039 58.0261 14.4859 57.4611 13.2748C56.9914 12.196 55.9567 12.1961 54.9629 12.2935C54.6294 12.2935 54.6225 12.892 54.9629 12.899C57.7198 12.9756 55.6845 15.4881 56.3243 16.8871C56.7872 17.938 57.2297 18.5714 56.4264 19.6711C55.9162 20.2113 55.3752 20.7202 54.8064 21.1953C54.4524 21.5711 54.9561 22.0862 55.3645 21.94C55.911 21.7477 56.4097 21.4356 56.826 21.0257C57.2422 20.6158 57.5658 20.1178 57.7742 19.5667C58.1827 18.4183 57.7878 17.7919 57.3454 16.7548Z" fill="white"/>
<path d="M52.2631 21.1452C52.1743 20.6301 51.7726 20.9601 51.8403 21.4672C51.9953 22.1855 52.0379 22.9738 51.9629 23.7372C51.8196 24.4372 51.6456 25.1131 51.4428 25.7576C51.3752 26.0313 51.5485 26.3935 51.6965 26.2486C52.7789 25.1619 52.5802 22.9403 52.2631 21.1452Z" fill="white"/>
<path d="M26.7233 4.48849C26.6441 4.40311 26.5399 4.34335 26.4248 4.31721C26.3097 4.29107 26.1891 4.29981 26.0792 4.34225C25.6227 4.48306 25.1796 4.66248 24.7552 4.87846C24.8042 4.64878 24.8042 4.41176 24.7552 4.18208C25.5425 3.54837 26.1866 2.17649 25.8717 1.22244C25.4924 0.156977 24.3258 0.205723 23.3525 0.400711C23.3881 0.0387871 23.3142 -0.325367 23.14 -0.647022C22.9659 -0.968676 22.6989 -1.23382 22.372 -1.40989C22.5121 -1.5793 22.6165 -1.77398 22.679 -1.98276C22.7416 -2.19153 22.7611 -2.41027 22.7365 -2.62641C22.7119 -2.84255 22.6436 -3.05183 22.5356 -3.24222C22.4276 -3.4326 22.282 -3.60035 22.1072 -3.73581C21.1553 -4.662 20.3108 -4.18846 19.4663 -3.51993C19.3017 -3.72188 19.2015 -4.00044 18.951 -4.14668C18.7656 -4.25812 18.5534 -4.32053 18.3356 -4.32774C18.3639 -4.36897 18.379 -4.41743 18.379 -4.46701C18.379 -4.5166 18.3639 -4.56507 18.3356 -4.60629C18.1396 -4.88864 17.8525 -5.09938 17.5197 -5.20518C17.1628 -5.30392 16.7805 -5.26397 16.4533 -5.09376C16.4698 -5.03245 16.4704 -4.96812 16.455 -4.90654C16.4397 -4.84495 16.4088 -4.78804 16.3653 -4.7409C16.3218 -4.69376 16.2669 -4.65787 16.2056 -4.63644C16.1443 -4.61501 16.0785 -4.60871 16.0141 -4.61811C15.9497 -4.62751 15.8887 -4.65232 15.8366 -4.6903C15.7844 -4.72829 15.7428 -4.77827 15.7154 -4.83576C15.688 -4.89325 15.6757 -4.95645 15.6796 -5.01971C15.6835 -5.08297 15.7034 -5.14431 15.7377 -5.19822C15.558 -5.48141 15.3044 -5.71314 15.0026 -5.86974C14.7008 -6.02634 14.3618 -6.10221 14.02 -6.08959C13.508 -6.02045 13.0307 -5.79846 12.6538 -5.4542C12.2769 -5.10995 12.0191 -4.66041 11.9159 -4.16757C11.2718 -5.12858 10.0337 -5.90853 8.94583 -5.24C8.5247 -4.99489 8.17112 -4.65384 7.91554 -4.24623C7.65995 -3.83862 7.51004 -3.37666 7.4787 -2.90015C6.66282 -3.51297 4.78058 -3.42244 4.12216 -3.06032C3.70776 -2.77254 3.37363 -2.38879 3.14995 -1.94377C2.92628 -1.49876 2.82011 -1.00652 2.84108 -0.511551C2.50931 -0.673243 2.13221 -0.724613 1.76756 -0.657791C0.971523 -0.543727 0.236706 -0.176424 -0.322213 0.386785C-0.84466 0.99264 -1.35997 2.47593 -0.966343 3.30463C-1.31582 3.40236 -1.63635 3.57965 -1.90144 3.82185C-2.16652 4.06404 -2.36851 4.36416 -2.49072 4.6974C-2.76633 5.38721 -2.76633 6.15246 -2.49072 6.84227H-2.55513C-2.64232 6.87945 -2.71796 6.93826 -2.77448 7.01281C-2.831 7.08735 -2.86642 7.17502 -2.8772 7.26706C-2.97739 8.36735 -2.26171 9.69048 -1.91102 10.7072C-1.40289 12.2184 -0.916229 13.7295 -0.479664 15.2546C0.40778 18.1515 1.13061 21.0973 2.1254 23.9594C3.19176 27.0235 4.07922 30.0667 4.86647 33.2074C5.09549 34.1196 5.18851 35.4915 5.83262 36.2227C6.47673 36.9539 8.30888 37.4483 9.2822 37.8174L9.92631 38.0681C9.9452 38.0719 9.96469 38.0719 9.98358 38.0681C11.0499 38.486 12.1306 38.9247 13.2113 39.2729C14.292 39.6211 15.7305 40.4498 16.8398 40.2896C17.9491 40.1294 19.1228 39.3286 20.1534 38.9317C21.6778 38.3537 23.1521 37.6642 24.6693 37.0653C25.3063 36.8146 25.9576 36.5779 26.5945 36.3202C27.1828 36.1716 27.7399 35.9242 28.2406 35.589C28.9563 34.8926 28.4481 33.7297 28.3336 32.9079C27.9114 29.809 27.2672 26.6753 27.0812 23.5485C26.8808 20.0666 26.7019 16.4802 26.7878 12.9704C26.8379 11.1947 26.938 9.42585 27.0239 7.65007C27.0883 6.82138 27.4533 5.22666 26.7233 4.48849ZM23.2881 0.81854C23.5712 0.725227 23.8733 0.699925 24.1687 0.744791C24.464 0.789656 24.7438 0.90336 24.9842 1.0762C25.5782 1.59849 25.02 2.46898 24.6765 2.92859C24.5763 3.0609 24.3831 3.22803 24.2184 3.41606C24.0585 3.31966 23.8812 3.25351 23.696 3.22107C23.4312 3.17211 23.1593 3.17211 22.8945 3.22107H22.8229C22.9547 2.95647 23.0209 2.66548 23.0161 2.37148C22.9985 2.12166 22.9119 1.88109 22.7656 1.6751C23.0192 1.44319 23.2004 1.14626 23.2881 0.81854V0.81854ZM12.3739 11.0902C12.0567 11.306 11.7098 11.4771 11.3434 11.5986C10.6635 11.7866 9.98357 11.4036 9.35378 11.2016C8.72398 10.9997 8.00829 10.8186 7.33555 10.6376C7.3319 10.1308 7.44952 9.63009 7.67909 9.17516L8.30173 8.61805C8.54313 8.53994 8.80424 8.54126 9.04479 8.6218C9.28535 8.70234 9.492 8.85763 9.6329 9.06373C9.73436 9.12577 9.84231 9.17713 9.95494 9.21694C10.0244 9.24062 10.1006 9.23802 10.1682 9.20964C10.2358 9.18126 10.29 9.12917 10.3199 9.06373C10.7565 7.86595 12.1664 7.92863 12.3883 9.14034C12.4442 9.69668 12.3957 10.2583 12.2451 10.7977C12.2362 10.8533 12.2435 10.9103 12.2663 10.962C12.2891 11.0137 12.3264 11.0582 12.3739 11.0902V11.0902ZM3.72854 9.19605C3.1059 8.88267 2.49041 8.5693 1.86777 8.29075L1.53854 8.15147C0.472174 6.87012 1.16639 5.31718 3.10588 5.74894C3.16288 5.75673 3.22091 5.75329 3.27652 5.73882C3.33213 5.72435 3.38418 5.69916 3.42958 5.66473C3.47498 5.6303 3.5128 5.58734 3.5408 5.5384C3.56879 5.48946 3.5864 5.43555 3.59256 5.37986C3.56968 5.02689 3.67903 4.67781 3.90036 4.39727C4.1217 4.11674 4.44001 3.92376 4.79636 3.85407C5.1527 3.78438 5.52293 3.84271 5.83847 4.01826C6.15401 4.1938 6.39348 4.47466 6.51252 4.80882C6.33391 5.00517 6.20782 5.24134 6.1454 5.49643C6.08298 5.75151 6.08617 6.01763 6.15468 6.27123C6.00757 6.17036 5.84145 6.09875 5.66582 6.06051C5.4902 6.02227 5.30853 6.01815 5.13127 6.04839C4.87379 6.10351 4.63057 6.20914 4.41646 6.3588C4.20235 6.50847 4.02186 6.69904 3.88599 6.91887C3.65952 7.25275 3.52596 7.63809 3.49836 8.03723C3.47076 8.43637 3.55007 8.83566 3.72854 9.19605V9.19605ZM4.12216 7.95648C4.24143 7.4561 4.55745 7.02111 5.00245 6.74477C5.38892 6.52889 5.93999 6.87012 6.34077 7.02333C6.38293 7.03954 6.42832 7.04627 6.47354 7.043C6.51876 7.03973 6.56261 7.02655 6.60185 7.00444C6.64109 6.98234 6.67469 6.95188 6.70012 6.91536C6.72554 6.87883 6.74217 6.83718 6.74871 6.79352C6.74871 6.54282 6.62703 6.21552 6.70575 5.97875L7.67909 4.99685C7.9896 5.00867 8.28996 5.10768 8.54394 5.2819C8.79792 5.45613 8.99467 5.69815 9.11045 5.97875C9.41103 6.72388 9.00309 7.25314 8.88142 7.87988C8.10849 7.68489 7.33555 7.97738 6.73438 8.95928C6.50744 9.38998 6.39197 9.86807 6.39801 10.352L5.95429 10.2197L5.48911 10.0596C5.20283 9.92724 4.92372 9.78797 4.64461 9.64173C4.28449 9.15129 4.10083 8.55889 4.12216 7.95648ZM6.45528 3.42302C6.59842 2.09293 7.264 1.09013 8.98163 1.94668C9.24643 2.079 9.36094 2.34362 9.69731 2.24613C10.2126 2.09293 10.413 1.36869 10.9569 1.20852C11.1842 1.15046 11.4228 1.14777 11.6514 1.20069C11.8801 1.2536 12.0918 1.36049 12.268 1.51192C12.4441 1.66335 12.5792 1.85465 12.6614 2.06894C12.7435 2.28322 12.7702 2.51388 12.739 2.74056C12.739 3.16536 12.6316 3.17929 12.6674 3.36731C12.3195 3.55055 12.0032 3.7855 11.7298 4.06369C11.6618 3.95971 11.5717 3.87111 11.4655 3.80384C11.3593 3.73657 11.2396 3.69221 11.1143 3.67372C10.9019 3.6664 10.6903 3.70365 10.494 3.78296C10.2976 3.86227 10.1211 3.98176 9.97641 4.13333C9.72359 4.36802 9.52585 4.65307 9.39671 4.96899C9.13645 4.65935 8.78783 4.43159 8.39477 4.31439C7.98492 4.20914 7.55128 4.23353 7.15663 4.38403C7.00252 4.01514 6.76243 3.68615 6.45528 3.42302V3.42302ZM9.97641 8.49966C9.87199 8.40754 9.76206 8.3215 9.64721 8.24199C9.84286 7.81632 9.94991 7.35717 9.9622 6.89102C9.97448 6.42487 9.89176 5.96097 9.71878 5.5261C9.83057 5.16594 10.0528 4.84764 10.3557 4.61384C11.1931 4.09851 11.1716 4.61384 11.5438 4.83668C11.6175 4.88739 11.7085 4.90845 11.7979 4.89547C11.8872 4.8825 11.9679 4.8365 12.0233 4.76704C12.214 4.49263 12.4569 4.25626 12.739 4.07066C13.7123 3.64586 14.1703 4.35618 13.9198 5.08738C13.7896 5.37171 13.6982 5.67137 13.6479 5.97875C13.4589 6.0248 13.2797 6.10257 13.1183 6.20856C12.8724 6.38898 12.6664 6.6158 12.5127 6.87544C12.359 7.13509 12.2607 7.42224 12.2237 7.71971C12.0253 7.61756 11.8073 7.55669 11.5835 7.54096C11.3597 7.52522 11.1349 7.55498 10.9236 7.62834C10.7122 7.70169 10.5189 7.81704 10.3558 7.96705C10.1927 8.11705 10.0635 8.29844 9.97641 8.49966V8.49966ZM12.7676 8.0679C12.8177 7.37151 13.8769 6.46622 14.3492 7.04422C14.3863 7.0892 14.435 7.12384 14.4903 7.14463C14.5456 7.16542 14.6056 7.17162 14.6641 7.1626C15.3011 7.04422 15.5086 6.19463 16.0526 5.8534C16.7682 5.38682 17.577 5.59574 17.7058 6.48711C17.7497 7.1521 17.5236 7.8073 17.076 8.31164C17.0405 8.35931 17.0158 8.41373 17.0035 8.47133C16.9911 8.52894 16.9915 8.58842 17.0044 8.6459C15.6732 9.29354 14.3492 9.96207 13.0539 10.6933C13.324 10.2905 13.4431 9.80931 13.3909 9.33101C13.3388 8.8527 13.1186 8.40656 12.7676 8.0679V8.0679ZM15.3369 5.46343C15.1436 5.63752 14.9504 6.06928 14.7428 6.15981C14.7064 6.17837 14.6746 6.20452 14.6498 6.23641H14.5926C14.5039 6.22145 14.4204 6.18558 14.3492 6.13196C14.5816 5.80655 14.7218 5.42735 14.7557 5.0325C14.7896 4.63764 14.7161 4.24105 14.5425 3.88263C14.6172 3.64632 14.7498 3.43123 14.9289 3.25589L15.8665 2.74753C16.0405 2.83862 16.2197 2.92 16.4032 2.99126C16.5292 3.02078 16.6607 3.01904 16.7858 2.98618C16.9108 2.95333 17.0254 2.89042 17.1189 2.80324C17.4174 2.54022 17.7753 2.34936 18.1638 2.24613C18.2294 2.26327 18.2986 2.26327 18.3642 2.24613C18.5715 2.3022 18.7531 2.42493 18.8795 2.59432C19.081 2.96167 19.1728 3.37661 19.1443 3.7921C19.0441 4.40492 18.5073 4.78793 18.3069 5.352C18.3049 5.33815 18.3049 5.32408 18.3069 5.31022C17.4481 4.38403 16.1957 4.67651 15.3369 5.46343ZM18.5574 5.82554C18.6231 5.81218 18.6845 5.7835 18.7364 5.74198C18.8938 5.56788 19.0512 5.40075 19.1944 5.22665C19.3729 5.09434 19.5647 4.98001 19.7669 4.88543C20.2536 4.66955 20.6902 4.70437 20.9263 5.23362C20.9836 5.36593 20.9263 5.55395 20.9621 5.69323C20.9851 5.77868 21.0345 5.85521 21.1036 5.91249C21.1727 5.96977 21.2582 6.00505 21.3486 6.01357C21.5418 6.05535 21.6993 5.91607 21.8424 6.09713C21.888 6.16237 21.9059 6.24219 21.8925 6.31998L19.5307 7.44116L18.4501 7.94951C18.6348 7.62742 18.7406 7.26817 18.7592 6.89976C18.7778 6.53134 18.7088 6.16372 18.5574 5.82554ZM21.5561 5.36593C21.506 5.09434 21.5561 4.78793 21.3844 4.5442C21.2758 4.4365 21.1451 4.3523 21.0008 4.2971C20.8565 4.2419 20.7019 4.21694 20.547 4.22386C20.2491 4.22599 19.9565 4.30018 19.6954 4.43974C19.9188 3.95755 19.9519 3.41214 19.7884 2.90769C20.3323 2.37844 21.4488 1.61938 22.0356 2.21131C22.4794 2.67789 21.9712 3.1375 21.8925 3.64586C21.8826 3.72797 21.9002 3.81099 21.9428 3.88254C21.9853 3.95408 22.0506 4.0103 22.1287 4.0428C22.4078 4.17512 22.6153 4.0428 22.8945 3.9662C23.4455 3.86174 23.5457 3.76425 23.7962 4.34225C23.8538 4.4455 23.8894 4.55903 23.9008 4.67601C23.9121 4.79299 23.899 4.91099 23.8622 5.02291C23.8254 5.13483 23.7657 5.23835 23.6868 5.32722C23.6078 5.41609 23.5111 5.48848 23.4026 5.54003V5.54003L22.7728 5.84644C22.7638 5.77453 22.7446 5.70421 22.7155 5.63752C22.4507 5.12916 22.0142 5.33111 21.5561 5.36593ZM22.4149 -0.351385C22.7513 0.233577 22.4149 0.748901 22.1931 1.31297C21.6957 1.2103 21.1779 1.25955 20.7103 1.45399C20.2428 1.64843 19.8483 1.97858 19.5809 2.39934C19.4898 2.23291 19.3657 2.08568 19.2159 1.96615C19.066 1.84663 18.8933 1.75717 18.7077 1.70295C18.8265 1.26913 18.786 0.808599 18.5932 0.400711C18.7435 -0.295673 19.2445 -0.922418 20.0246 -0.511551C20.2607 -0.386202 20.2536 -0.295672 20.5399 -0.365311C20.9335 -0.462805 21.2913 -0.74136 21.6277 -0.797071C21.7106 -0.765944 21.8024 -0.765944 21.8853 -0.797071C21.9969 -0.760622 22.0996 -0.702252 22.187 -0.625584C22.2744 -0.548916 22.3447 -0.455586 22.3935 -0.351385H22.4149ZM19.2588 -2.83051C19.3194 -2.78853 19.3919 -2.76596 19.4663 -2.76596C19.5407 -2.76596 19.6133 -2.78853 19.6739 -2.83051C20.2178 -3.22049 20.9478 -3.97258 21.5847 -3.20656C22.0643 -2.6216 21.6993 -2.07145 21.4846 -1.51435L21.1983 -1.45167C20.912 -1.36114 20.59 -1.03384 20.3323 -1.08955C20.0747 -1.14526 19.9602 -1.4656 19.4806 -1.40292C19.1747 -1.32291 18.8979 -1.16112 18.6816 -0.935883C18.4653 -0.710649 18.3182 -0.430975 18.2568 -0.128543C18.0252 -0.39346 17.7174 -0.584794 17.3729 -0.677885C17.0285 -0.770975 16.6634 -0.761554 16.3245 -0.650831C16.4774 -1.09926 16.5406 -1.57204 16.5106 -2.0436C16.5964 -2.37395 16.7583 -2.681 16.9839 -2.94157C17.2096 -3.20215 17.4931 -3.40944 17.8131 -3.54779C18.7292 -3.77759 18.8151 -3.09514 19.2588 -2.83051V-2.83051ZM17.4553 -4.61325C17.5412 -4.57147 17.7201 -4.39041 17.899 -4.27899L17.7058 -4.22328C17.374 -4.10069 17.0711 -3.91413 16.8153 -3.67479C16.5595 -3.43545 16.356 -3.14828 16.2171 -2.83051C16.0938 -2.99846 15.944 -3.14651 15.7734 -3.26923L15.8164 -3.51993C16.0239 -4.12578 16.7324 -4.92663 17.4553 -4.61325V-4.61325ZM16.9901 -0.05194L17.534 0.198759C17.7649 0.342564 17.9328 0.56445 18.0055 0.821632C18.0782 1.07881 18.0505 1.35308 17.9276 1.59153V1.64027C17.7613 1.67485 17.5984 1.72379 17.441 1.78651C17.2549 1.87008 17.1118 1.99543 16.94 2.09292C16.5607 2.3088 16.5535 2.25309 16.1527 2.16256C15.9574 2.08268 15.7443 2.0529 15.5338 2.07607C15.3233 2.09923 15.1224 2.17457 14.9504 2.29488C14.5558 2.58298 14.2571 2.97776 14.0916 3.42998C13.8795 3.28723 13.6328 3.20082 13.3759 3.17928C13.5732 2.7888 13.6041 2.3383 13.4618 1.92579C13.503 1.90413 13.5358 1.86994 13.5552 1.82845C13.5745 1.78696 13.5795 1.74044 13.5691 1.69599C13.4976 1.21548 13.3258 0.56088 13.7409 0.156977C14.3779 -0.476732 14.6355 0.212688 15.115 0.505169C15.3082 0.616591 15.3297 0.707122 15.573 0.686231C16.2315 0.658376 16.0955 -0.135506 16.9901 -0.05194V-0.05194ZM12.3739 -3.35977C12.1163 -4.55058 13.7337 -6.02691 14.8645 -5.21214C15.5301 -4.7386 15.1723 -4.23721 15.1222 -3.58957C14.8969 -3.632 14.664 -3.61272 14.4494 -3.53386C14.2022 -3.4445 13.9723 -3.315 13.7695 -3.15085C13.6438 -3.00586 13.529 -2.85226 13.426 -2.69124C13.1403 -2.98046 12.7751 -3.18354 12.3739 -3.2762C12.3823 -3.28863 12.3867 -3.30314 12.3867 -3.31798C12.3867 -3.33281 12.3823 -3.34733 12.3739 -3.35977V-3.35977ZM13.0896 -1.967C13.1439 -1.90771 13.2154 -1.86595 13.2947 -1.84728C13.374 -1.82862 13.4572 -1.83394 13.5333 -1.86254C13.8554 -1.96003 13.927 -2.26644 14.1846 -2.39875C14.4423 -2.53106 15.3726 -2.53107 15.616 -2.23162C15.8593 -1.93218 15.6732 -1.14526 15.616 -0.755284C15.6048 -0.682903 15.6184 -0.608958 15.6546 -0.5448C15.6908 -0.480641 15.7476 -0.429818 15.8164 -0.400132V-0.400132C15.6947 -0.309602 15.6446 -0.135503 15.4872 -0.135503C15.4872 -0.135503 15.0506 -0.574227 14.9647 -0.61601C14.8103 -0.705916 14.6354 -0.757397 14.4557 -0.7659C14.2759 -0.774402 14.0968 -0.739663 13.9341 -0.664756C13.0324 -0.34442 12.925 0.372858 13.0395 1.13192C12.7513 0.832089 12.3837 0.615545 11.977 0.506179C11.5704 0.396813 11.1406 0.398876 10.735 0.512135C10.7898 -0.0206118 10.6933 -0.557774 10.4559 -1.0408C10.8496 -1.93218 11.7227 -3.44333 13.0896 -1.93914V-1.967ZM9.29653 -4.66897C10.4273 -5.24696 11.1716 -4.02829 11.7155 -3.2762C11.4737 -3.20969 11.2442 -3.10627 11.0356 -2.96979C10.7767 -2.81665 10.5521 -2.61445 10.3751 -2.37519C10.198 -2.13594 10.0722 -1.86451 10.005 -1.57702C9.67674 -1.93933 9.23337 -2.18445 8.74544 -2.2734C8.54696 -2.3115 8.34275 -2.3115 8.14427 -2.2734C8.05612 -2.73973 8.11976 -3.22121 8.32632 -3.65065C8.53288 -4.0801 8.87206 -4.43609 9.29653 -4.66897V-4.66897ZM8.22301 -1.08259C9.11761 -1.39596 9.13908 -1.45864 9.65437 -0.748324C9.97481 -0.279235 10.1002 0.290786 10.005 0.846396C10.0011 0.876449 10.0011 0.906877 10.005 0.93693C10.1124 0.8464 9.35378 1.63331 9.53986 1.5776C9.23212 1.6542 9.0532 1.15977 8.7383 0.971746C8.56647 0.840781 8.36209 0.756343 8.14591 0.726992C7.92974 0.697641 7.70944 0.724422 7.50733 0.804615C7.05 1.00297 6.66287 1.32804 6.3943 1.73923C6.12573 2.15042 5.98762 2.62949 5.99723 3.11661C5.54034 2.94599 5.04045 2.9168 4.56587 3.03304C4.4063 2.74016 4.22948 2.45649 4.03628 2.18345C3.72853 0.902106 4.1794 -0.943311 5.9686 -0.0728307C6.26919 0.07341 6.42664 0.338039 6.77732 0.386785C6.83487 0.389706 6.89204 0.376075 6.94167 0.347592C6.99131 0.319108 7.03123 0.277031 7.05645 0.226615C7.12802 0.0873379 7.18526 -0.0588994 7.24251 -0.20514C7.46437 -0.873669 7.24969 -0.748323 8.22301 -1.08955V-1.08259ZM4.89508 -2.57981C5.34198 -2.65292 5.79937 -2.63872 6.24056 -2.53803C6.68725 -2.47507 7.10521 -2.28624 7.4429 -1.99485C6.9847 -1.48733 6.6822 -0.864808 6.56979 -0.19818C6.17617 -0.386204 5.85411 -0.852781 5.38176 -0.894564C5.14885 -0.925556 4.91171 -0.901904 4.6901 -0.825586C4.4685 -0.749268 4.26886 -0.622493 4.10785 -0.455839C3.94466 -0.308556 3.80047 -0.142529 3.67844 0.0385933L3.55676 -0.05194C3.35637 -0.999023 4.00048 -2.35697 4.89508 -2.57981ZM-0.307907 1.78651C-0.174037 1.21259 0.185665 0.712582 0.694041 0.393745C1.16656 0.0626807 1.73647 -0.110765 2.31865 -0.100687C2.72841 0.0400357 3.11073 0.247239 3.44941 0.512135C3.33474 0.873418 3.31993 1.25772 3.40647 1.62635C3.07907 1.4105 2.68276 1.31657 2.29002 1.36172C2.02219 1.39019 1.76366 1.47384 1.53166 1.60713C1.29966 1.74041 1.09951 1.92026 0.944533 2.13471C0.778513 2.50565 0.665343 2.89692 0.608162 3.29767C0.297258 3.22129 -0.0232471 3.18846 -0.343683 3.20018C-0.488166 2.74218 -0.475615 2.25088 -0.307907 1.80044V1.78651ZM-1.58182 4.86454C-1.10231 3.93835 -0.150465 3.93834 0.758449 4.09851C0.827666 4.10538 0.897553 4.09491 0.961438 4.0681C1.02532 4.04128 1.08109 3.99901 1.12345 3.94531C1.48845 3.47177 1.12346 2.60825 1.78189 2.29488L3.21325 2.35755C3.54588 2.5671 3.7976 2.87818 3.92893 3.24196C3.62262 3.3896 3.35694 3.60628 3.15404 3.87396C2.95113 4.14165 2.81686 4.4526 2.76237 4.78097C2.38308 4.6064 1.95415 4.56221 1.5457 4.65562C1.29841 4.75159 1.0738 4.89555 0.885541 5.07872C0.697287 5.2619 0.549339 5.48046 0.450712 5.72109C0.287756 6.0216 0.202578 6.35625 0.202578 6.69603C0.202578 7.0358 0.287756 7.37045 0.450712 7.67096C0.0213038 7.50383 -0.415266 7.34366 -0.851831 7.19046C-1.03791 7.12778 -1.23113 7.04422 -1.42437 6.97458C-1.62519 6.66452 -1.74459 6.31117 -1.77205 5.94565C-1.79951 5.58013 -1.73418 5.21364 -1.58182 4.87846V4.86454ZM8.07987 35.9651C7.42144 35.6865 6.98488 35.5542 6.64851 34.8996C6.32473 34.1401 6.06852 33.3549 5.88272 32.5528C5.16704 30.0945 4.33685 27.6781 3.50666 25.2477C2.48324 22.2672 1.67452 19.2309 0.822858 16.1947C0.443547 14.8437 0.071397 13.4858 -0.336541 12.1348C-0.601342 11.2573 -0.916236 10.3869 -1.20251 9.50942C-1.42516 8.97567 -1.61398 8.42914 -1.7679 7.87291C-1.44768 7.96267 -1.13438 8.07438 -0.830362 8.20718C-0.243504 8.60412 0.357674 8.9732 0.966003 9.31443C1.23593 10.1985 1.45809 11.0958 1.63158 12.0025C2.01805 13.3952 2.38304 14.8228 2.79098 16.2226C3.50666 18.6042 4.22235 20.9719 5.03822 23.3257C5.89704 25.8953 6.65567 28.4929 7.48586 31.0764C7.93674 32.4692 8.43055 33.862 8.84565 35.2547C8.94584 35.589 9.03172 35.9929 9.13192 36.4038C8.79555 36.2436 8.43055 36.1113 8.07987 35.9651ZM11.5366 37.2743C10.9712 37.0444 10.4058 36.8425 9.83329 36.6336C9.16055 34.5444 8.62378 32.4553 7.90095 30.3661C6.9634 27.6781 6.0545 24.9692 5.20284 22.2533C4.35118 19.5374 3.57823 16.9538 2.88402 14.2727C2.51902 12.8799 2.11109 11.4871 1.70315 10.0944C1.66021 9.94117 1.61728 9.781 1.56003 9.61387C2.82801 10.2883 4.14336 10.8747 5.49627 11.3688L5.66803 11.4245C6.09744 13.5136 6.44096 15.6028 6.96341 17.6919C7.60752 20.2337 8.39477 22.7407 8.98163 25.2895C9.52555 27.685 10.2412 30.0458 10.7851 32.4483C11.1644 34.1266 11.5795 35.791 12.0805 37.4344L11.5366 37.2743ZM15.3369 38.5835C14.4995 38.2979 13.6765 38.0403 12.8463 37.7548C12.3596 35.9233 11.9374 34.0639 11.5294 32.1837C10.9855 29.6767 10.2412 27.2254 9.60427 24.7393C8.96731 22.2532 8.1729 19.8646 7.55741 17.3925C7.07075 15.5122 6.93477 13.4161 6.19046 11.5986C7.20673 11.9259 8.24447 12.1905 9.23926 12.5665C9.69914 12.7535 10.1793 12.889 10.6706 12.9704C10.8066 17.5666 12.102 22.1766 12.8177 26.7031C13.2039 28.9203 13.7346 31.1114 14.4065 33.2631C14.8144 34.6001 15.2009 35.9372 15.5158 37.3021C15.616 37.7478 15.6876 38.2562 15.8235 38.7297L15.3369 38.5835ZM18.4572 35.5542C18.5028 36.3947 18.6153 37.2306 18.7936 38.0542L18.4859 38.1865C17.9818 38.4513 17.4607 38.6839 16.9257 38.8829H16.8469C16.5293 38.0532 16.3224 37.1873 16.2315 36.3063C15.9452 35.0249 15.5516 33.7784 15.208 32.5179C14.6069 30.3383 14.1918 28.1307 13.7767 25.9093C12.9823 21.6335 12.3453 17.2184 11.1501 13.0192C11.4735 13.0083 11.7917 12.9374 12.0877 12.8103C12.8523 12.4698 13.5871 12.0692 14.2848 11.6125C14.4801 13.5186 14.8053 15.4099 15.2581 17.2741C15.7019 19.6348 16.1169 22.0025 16.5249 24.3703C16.7396 25.6237 17.0903 26.8494 17.3121 28.1029C17.534 29.3564 17.6628 30.7561 17.9133 32.0653C18.1495 33.2283 18.2568 34.3912 18.4572 35.5542ZM22.3291 29.8508C22.4865 31.0625 22.5796 32.2603 22.6654 33.479C22.7298 34.3982 22.9517 35.3522 22.9803 36.2645C21.8734 36.7288 20.7665 37.193 19.6596 37.6573C19.5797 36.9853 19.4506 36.3197 19.2731 35.6656C19.0012 34.5096 18.8008 33.3397 18.5574 32.1837C18.2712 30.8814 18.128 29.5653 17.9419 28.2491C17.7559 26.933 17.398 25.5959 17.2263 24.2658C16.8684 21.9468 16.5106 19.6418 16.1026 17.302C15.9166 16.2226 15.616 15.171 15.4514 14.0847C15.3354 13.1131 15.1658 12.1484 14.9432 11.1947C15.1365 11.0832 15.3297 10.9718 15.5301 10.8674C16.7539 10.2267 18.0207 9.67655 19.266 9.08462L20.1534 8.65287C20.776 13.3883 20.9263 18.2003 21.4416 22.9496C21.6778 25.2756 22.0356 27.5597 22.3291 29.8508ZM25.9075 9.03587C25.8359 10.4286 25.7572 11.7727 25.7214 13.1445C25.6498 15.7629 25.8001 18.3744 25.9003 20.9928C26.0005 23.6112 26.1794 26.2784 26.5086 28.9316C26.6804 30.2756 26.845 31.6126 26.9881 32.9636C27.0605 33.4595 27.0939 33.96 27.0883 34.4609C27.0839 34.4932 27.0839 34.526 27.0883 34.5584L27.0025 34.6071C26.6753 34.7805 26.3328 34.925 25.979 35.0389L23.6531 35.9929C23.6531 35.2965 23.5457 34.5375 23.4956 33.8411C23.4026 32.7199 23.3596 31.5918 23.2738 30.4706C23.0948 28.0472 22.6583 25.6377 22.3935 23.2212C21.8639 18.2978 21.4917 13.3117 20.6186 8.43002C22.465 7.4899 24.2542 6.46622 26.0864 5.51217C26.3082 6.31998 25.9719 8.56233 25.9289 9.03587H25.9075Z" fill="white"/>
<path d="M73.2536 185.323C73.3811 185.954 73.6032 186.562 73.9123 187.126C75.6641 190.241 80.1556 190.34 83.2597 190.297C85.4423 190.225 87.6197 190.04 89.7833 189.743C90.9605 189.603 92.1307 189.526 93.2868 189.435C93.9624 189.475 94.6396 189.39 95.2838 189.182C95.9425 188.831 95.9075 188.193 96.1317 187.547C96.3 186.946 96.6712 186.421 97.1823 186.063C97.6933 185.705 98.3125 185.535 98.9345 185.583C100.091 185.639 100.995 186.242 102.053 186.6C102.851 186.863 103.697 186.954 104.533 186.867C108.611 186.446 112.486 184.636 116.445 183.787C117.889 183.478 120.124 183.534 120.768 181.871C120.992 181.037 121.008 180.16 120.818 179.318C120.684 178.3 120.586 177.276 120.418 176.259C120.229 175.094 120.047 173.937 119.928 172.751C119.939 172.061 119.896 171.372 119.801 170.688C119.745 170.478 119.626 170.29 119.461 170.149C119.296 170.007 119.093 169.919 118.877 169.895C118.662 169.839 118.444 169.79 118.225 169.748C117.875 169.622 117.489 169.545 117.125 169.432C116.242 169.166 115.338 168.948 114.441 168.731C112.423 168.261 110.412 167.777 108.401 167.265C107.497 167.04 106.586 166.837 105.703 166.563C105.109 166.31 104.462 166.207 103.818 166.261C103.076 166.388 102.417 166.844 101.716 167.04C100.679 167.369 99.5735 167.412 98.5141 167.166C98.1362 167.127 97.7801 166.97 97.495 166.719C97.21 166.468 97.0102 166.134 96.9235 165.763C96.7795 165.217 96.5425 164.699 96.2228 164.234C95.7393 163.722 94.9055 163.686 94.2608 163.567C93.6162 163.448 92.8594 163.28 92.0816 163.209C90.1827 163.027 88.2838 162.831 86.3848 162.599C85.4389 162.487 84.4999 162.353 83.582 162.283C82.9794 162.241 82.594 162.164 82.1456 162.543C80.2186 162.543 78.7332 164.213 77.4439 165.581C75.9317 167.239 74.7434 169.167 73.9403 171.264C72.3287 175.459 71.0254 181.107 73.2536 185.323ZM117.398 170.59C116.592 170.744 115.59 170.716 114.96 170.843C113.754 171.081 112.549 171.296 111.344 171.488C108.786 171.881 106.194 172.148 103.636 172.421C98.5981 172.947 93.5741 173.333 88.5641 174.077C84.2477 174.715 79.7071 175.087 75.9514 177.585C74.6819 178.51 73.7748 179.85 73.3868 181.373C73.2995 180.65 73.269 179.92 73.2957 179.191C73.4243 176.939 73.8702 174.717 74.62 172.59C75.2512 170.676 76.1627 168.868 77.3247 167.222C78.0426 166.253 78.8471 165.352 79.7281 164.528C80.4087 163.865 81.2072 163.334 82.0825 162.964C82.1027 162.984 82.1267 163 82.1532 163.011C82.1796 163.022 82.208 163.028 82.2367 163.028C82.2653 163.028 82.2937 163.022 82.3202 163.011C82.3466 163 82.3707 162.984 82.3909 162.964C83.0355 162.501 84.9975 163.28 85.7542 163.434C86.511 163.588 87.4429 163.701 88.2908 163.841C89.9374 164.128 91.6401 164.304 93.2588 164.711C93.7282 164.83 94.6602 164.9 95.0596 165.258C95.459 165.616 95.5151 166.71 95.7954 167.236C96.3419 168.268 97.7433 168.64 98.7873 168.822C100.194 169.053 101.638 168.827 102.907 168.177C103.288 167.892 103.702 167.656 104.141 167.475C104.616 167.427 105.096 167.492 105.542 167.664C106.383 167.882 107.224 168.071 108.065 168.282C109.753 168.71 111.449 169.131 113.145 169.517C114.112 169.734 115.079 169.945 116.025 170.218C116.487 170.359 116.971 170.492 117.419 170.583L117.398 170.59ZM74.4378 185.555C74.4574 185.476 74.4574 185.395 74.4378 185.316C74.4378 185.316 74.4378 185.253 74.4378 185.225C74.2718 183.814 74.4522 182.383 74.9633 181.058C75.7481 178.953 78.0114 177.915 80.0225 177.199C81.8066 176.585 83.6431 176.137 85.509 175.859C89.3839 175.242 93.2658 174.554 97.1547 174.007C101.044 173.46 105.059 173.046 108.997 172.554C111.015 172.302 112.998 171.93 114.995 171.572C115.894 171.402 116.805 171.301 117.72 171.271C118.043 171.281 118.365 171.25 118.68 171.179C118.68 171.453 118.68 171.79 118.68 171.881C118.68 172.323 118.743 172.772 118.786 173.214C118.954 175.235 119.269 177.241 119.486 179.255C119.542 179.809 119.802 181.009 119.486 181.521C119.171 182.033 118.505 182.033 118.022 182.138C116.978 182.377 115.92 182.559 114.89 182.84C112.83 183.415 110.811 184.145 108.751 184.727C107.112 185.19 105.248 185.941 103.496 185.737C101.87 185.548 100.567 184.404 98.8784 184.334C98.1574 184.307 97.4424 184.476 96.8104 184.825C96.1783 185.173 95.653 185.688 95.2908 186.312C95.1506 186.594 95.0357 186.887 94.9475 187.189C94.7653 187.779 94.8914 187.786 94.3589 188.052C93.8263 188.319 92.5441 188.221 91.8434 188.291C88.1296 188.67 84.4159 189.54 80.6321 189.259C78.7262 189.119 76.1756 188.712 75.0685 186.965C74.7806 186.534 74.574 186.053 74.4589 185.548L74.4378 185.555Z" fill="white"/>
<g opacity="0.1">
</g>
</svg>
