<svg width="54" height="51" viewBox="0 0 54 51" fill="none" xmlns="http://www.w3.org/2000/svg">
<path d="M27 46C38.0457 46 47 37.0457 47 26C47 14.9543 38.0457 6 27 6C15.9543 6 7 14.9543 7 26C7 37.0457 15.9543 46 27 46Z" fill="#FFE14D"/>
<path d="M47 26C47 14.972 38.028 6 27 6V46C38.028 46 47 37.028 47 26Z" fill="#FFBB33"/>
<path d="M27 41.2344C18.6 41.2344 11.7656 34.4 11.7656 26C11.7656 17.6 18.6 10.7656 27 10.7656C35.4 10.7656 42.2344 17.6 42.2344 26C42.2344 34.4 35.4 41.2344 27 41.2344Z" fill="#FFBB33"/>
<path d="M42.2344 26C42.2344 17.6 35.4 10.7656 27 10.7656V41.2344C35.4 41.2344 42.2344 34.4 42.2344 26Z" fill="#E68A2E"/>
<path d="M28.1719 24.9116V20.2783C29.5197 20.609 30.5156 21.4762 30.5156 22.473C30.5156 23.1208 31.0398 23.6449 31.6875 23.6449C32.3352 23.6449 32.8594 23.1208 32.8594 22.473C32.8594 20.2088 30.8437 18.3157 28.1719 17.8804V16.6136C28.1719 15.9659 27.6477 15.4418 27 15.4418C26.3523 15.4418 25.8281 15.9659 25.8281 16.6136V17.8804C23.1563 18.3157 21.1406 20.2088 21.1406 22.473C21.1406 24.7372 23.1563 26.6304 25.8281 27.0657V31.699C24.4803 31.3683 23.4844 30.5011 23.4844 29.5043C23.4844 28.8565 22.9602 28.3324 22.3125 28.3324C21.6648 28.3324 21.1406 28.8565 21.1406 29.5043C21.1406 31.7685 23.1563 33.6616 25.8281 34.0969V35.3751C25.8281 36.0228 26.3523 36.5469 27 36.5469C27.6477 36.5469 28.1719 36.0228 28.1719 35.3751V34.0969C30.8437 33.6616 32.8594 31.7685 32.8594 29.5043C32.8594 27.2401 30.8437 25.3469 28.1719 24.9116ZM23.4844 22.473C23.4844 21.4762 24.4803 20.609 25.8281 20.2783V24.6677C24.4803 24.3369 23.4844 23.4697 23.4844 22.473ZM28.1719 31.699V27.3096C29.5197 27.6403 30.5156 28.5075 30.5156 29.5043C30.5156 30.5011 29.5197 31.3682 28.1719 31.699Z" fill="#FFE14D"/>
<path d="M28.1719 35.3751V34.0969C30.8437 33.6616 32.8594 31.7685 32.8594 29.5043C32.8594 27.2401 30.8437 25.3469 28.1719 24.9116V20.2783C29.5197 20.609 30.5156 21.4762 30.5156 22.473C30.5156 23.1208 31.0398 23.6449 31.6875 23.6449C32.3352 23.6449 32.8594 23.1208 32.8594 22.473C32.8594 20.2088 30.8437 18.3157 28.1719 17.8804V16.6136C28.1719 15.9659 27.6477 15.4418 27 15.4418V36.5469C27.6477 36.5469 28.1719 36.0228 28.1719 35.3751ZM28.1719 27.3095C29.5197 27.6402 30.5156 28.5074 30.5156 29.5042C30.5156 30.501 29.5197 31.3682 28.1719 31.6989V27.3095Z" fill="#FFBB33"/>
<circle cx="9.08337" cy="43.9166" r="1.25" fill="#FFBB33"/>
<circle cx="2" cy="2" r="2" fill="#FFE14D"/>
<circle cx="51" cy="3" r="3" fill="#FFE14D"/>
<circle cx="50" cy="47" r="4" fill="#FFBB33"/>
</svg>
