<svg width="57" height="57" viewBox="0 0 57 57" fill="none" xmlns="http://www.w3.org/2000/svg">
<path d="M30 53C41.0457 53 50 44.0457 50 33C50 21.9543 41.0457 13 30 13C18.9543 13 10 21.9543 10 33C10 44.0457 18.9543 53 30 53Z" fill="#32BA7C"/>
<path d="M24.8898 42.0221L35.1737 52.306C43.691 50.0347 50.0002 42.2745 50.0002 33C50.0002 32.8108 50.0002 32.6215 50.0002 32.4322L41.9245 24.9874L24.8898 42.0221Z" fill="#0AA06E"/>
<path d="M30.5046 37.4794C31.3879 38.3627 31.3879 39.8769 30.5046 40.7601L28.675 42.5898C27.7917 43.4731 26.2775 43.4731 25.3942 42.5898L17.3816 34.5141C16.4983 33.6308 16.4983 32.1166 17.3816 31.2333L19.2112 29.4037C20.0945 28.5204 21.6087 28.5204 22.492 29.4037L30.5046 37.4794Z" fill="white"/>
<path d="M37.5077 23.5362C38.391 22.653 39.9051 22.653 40.7884 23.5362L42.6181 25.3659C43.5014 26.2492 43.5014 27.7634 42.6181 28.6466L28.738 42.4637C27.8547 43.347 26.3405 43.347 25.4572 42.4637L23.6275 40.634C22.7443 39.7507 22.7443 38.2366 23.6275 37.3533L37.5077 23.5362Z" fill="white"/>
<circle cx="55" cy="5" r="2" fill="#32BA7C"/>
<circle cx="4" cy="1" r="1" fill="#32BA7C"/>
<circle cx="4.5" cy="52.5" r="4.5" fill="#32BA7C"/>
</svg>
