<svg width="390" height="384" viewBox="0 0 390 384" fill="none" xmlns="http://www.w3.org/2000/svg">
<path d="M15.8488 248.797C8.30546 153.496 88.4074 59.5637 182.328 52.1297C276.248 44.6956 349.467 78.4649 357.011 173.765C364.554 269.066 311.935 311.564 218.015 318.998C124.095 326.432 23.3921 344.097 15.8488 248.797Z" fill="#FBDF6A" fill-opacity="0.21"/>
<path d="M252.264 93.894C251.612 85.6597 258.533 77.5437 266.648 76.9013C274.763 76.259 281.089 79.1768 281.741 87.4111C282.393 95.6453 277.846 99.3173 269.731 99.9596C261.616 100.602 252.915 102.128 252.264 93.894Z" fill="#F89945"/>
<path d="M22.6515 64.9405C10.8132 54.7072 9.88875 33.9206 20.5649 21.5699C31.2411 9.21921 44.0945 4.22196 55.9328 14.4552C67.7711 24.6885 66.1792 36.095 55.503 48.4457C44.8268 60.7964 34.4898 75.1737 22.6515 64.9405Z" fill="#FBDF6A" fill-opacity="0.21"/>
<path d="M368.79 306.124C379.855 317.189 375.689 341.569 360.279 356.978C344.87 372.388 324.415 374.646 317.737 368.26C311.059 361.874 311.377 343.644 326.787 328.235C342.196 312.825 357.725 295.059 368.79 306.124Z" fill="#FBDF6A" fill-opacity="0.21"/>
<path d="M69.3234 250.524C63.3513 255.94 52.9833 255.469 47.6789 249.619C42.3745 243.77 40.879 237.169 46.8511 231.754C52.8232 226.338 58.3525 227.638 63.6569 233.487C68.9613 239.337 75.2955 245.108 69.3234 250.524Z" fill="#FBD246"/>
<path d="M202.95 218.146C202.95 218.146 199.216 229.956 200.812 233.581C202.408 237.206 245.177 265.917 278.45 270.122C278.942 270.18 279.439 270.134 279.912 269.987C280.385 269.84 280.822 269.595 281.195 269.268C283.94 266.868 290.467 260.842 291.377 256.959C292.542 252.029 267.12 258.038 202.95 218.146Z" fill="#F89945"/>
<path d="M212.147 232.596C215.349 236.105 219.926 234.359 222.711 237.643C225.496 240.927 226.025 241.872 229.834 241.183C230.538 241.055 231.162 241.76 231.611 242.144C235.18 245.124 237.165 246.79 242.703 247.303C243.866 247.287 244.998 247.678 245.904 248.408C248.682 250.418 252.093 251.357 255.507 251.051C255.749 251.04 255.99 251.084 256.212 251.179C258.597 252.317 258.821 254.191 261.014 255.793C264.391 258.212 267.512 260.423 271.401 257.684C272.03 257.351 272.755 257.249 273.45 257.395C277.484 258.1 276.923 262.554 282.189 260.599C284.91 259.622 285.743 262.025 287.183 263.146C289.037 261.347 290.469 259.158 291.377 256.738C292.545 251.836 267.048 257.812 202.688 218.146C201.712 221.295 200.952 224.506 200.415 227.758C202.4 231.956 209.394 229.617 212.147 232.596Z" fill="#D77124"/>
<path opacity="0.55" d="M254.192 258.418C251.043 253.989 246.937 247.603 246.58 241.858C231.984 235.612 217.851 228.357 204.287 220.146C204.287 220.146 201.317 229.775 202.859 232.84C204.092 235.279 230.448 252.401 256.415 261.146C255.587 260.264 254.873 259.365 254.192 258.418Z" fill="#CD4200"/>
<path d="M251.047 214.258C251.047 214.258 212.896 201.461 209.355 204.66C205.813 207.859 203.189 216.065 205.008 219.537C206.827 223.008 243.513 240.044 249.325 243.244C271.603 255.529 289.294 253.833 290.293 254.137C291.291 254.441 300.885 247.147 297.81 238.301C294.945 229.998 257.55 217.761 251.047 214.258Z" fill="#BE5B2A"/>
<path d="M252.736 235.942C249.591 231.647 247.096 226.916 245.33 221.9C244.457 218.507 243.85 215.053 243.514 211.568C235.481 209.057 222.918 205.298 215.351 204.146C211.512 211.711 211.19 219.213 215.866 226.538C227.561 233.127 244.944 241.652 249.169 242.948C251.049 243.523 255.354 244.691 260.415 246.146C257.615 242.931 255.049 239.521 252.736 235.942V235.942Z" fill="#AE4D25"/>
<path d="M235.873 216.384C241.85 218.975 246.385 223.069 251.689 226.748C256.121 229.622 260.326 232.83 264.267 236.345C267.36 239.304 272.535 248.517 277.086 245.574C280.499 243.335 284.617 243.526 288.463 242.999C291.734 242.493 295.068 242.558 298.317 243.191C298.544 241.527 298.374 239.834 297.821 238.248C294.969 229.995 257.761 217.759 251.272 214.256C251.272 214.256 213.296 201.461 209.771 204.66C208.835 205.554 208.041 206.584 207.415 207.715C217.446 208.866 226.515 212.257 235.873 216.384Z" fill="#953E25"/>
<path d="M203.433 218.152C206.279 218.108 209.122 218.336 211.924 218.832C214.892 219.56 221.404 225.605 229.479 227.789C237.555 229.973 234.986 234.309 244.45 236.572C253.914 238.835 254.744 243.25 257.967 243.629C261.191 244.009 269.043 248.456 270.607 249.738C272.171 251.02 284.476 249.5 287.541 251.811C290.605 254.121 295.281 252.697 295.393 254.438C295.504 256.178 295.393 260.103 290.222 258.932C285.051 257.761 282.019 258.441 280.359 256.542C278.699 254.643 264.271 255.704 263.681 253.156C263.09 250.608 258.079 248.567 253.531 247.19C248.982 245.813 247.993 243.677 242.359 242.443C236.725 241.208 230.453 235.701 227.708 235.78C224.963 235.86 217.494 233.533 216.44 231.175C215.387 228.818 209.849 225.083 207.902 225.21C205.955 225.336 203.162 219.339 203.433 218.152Z" fill="#7BB027"/>
<path d="M209.284 216.812C209.284 216.684 209.284 216.539 209.46 216.716C209.983 216.593 210.521 216.55 211.057 216.588V216.443C211.711 216.556 212.446 216.443 213.069 216.443C213.062 216.406 213.062 216.368 213.069 216.331C214.396 216.834 215.75 217.262 217.125 217.614C218.354 218.272 219.616 220.053 217.987 220.984C217.236 221.401 216.39 221.112 216.071 222.139C216.003 222.534 216.021 222.939 216.122 223.327C216.224 223.714 216.408 224.075 216.661 224.385C218.191 225.595 219.929 226.514 221.787 227.096C223.209 227.594 226.115 228.701 227.057 226.888C227.44 226.422 226.77 225.7 226.929 225.091C227.051 224.755 227.266 224.461 227.549 224.245C227.832 224.029 228.172 223.899 228.526 223.871C229.314 224.187 230.142 224.392 230.985 224.481C231.965 224.976 232.992 225.369 234.051 225.652C234.922 226.092 235.764 226.585 236.574 227.128C236.989 227.658 237.389 228.316 237.836 228.733C238.283 229.15 238.411 230.61 237.644 231.252C237.181 231.637 236.494 231.38 236.047 231.476C235.493 231.643 234.957 231.869 234.45 232.15C234.383 232.423 234.374 232.707 234.423 232.983C234.473 233.26 234.58 233.523 234.738 233.754C234.882 233.899 234.977 233.915 235.089 234.188C237.181 234.91 238.874 236.658 241.029 237.156C241.147 237.279 241.293 237.371 241.455 237.424C241.616 237.477 241.788 237.49 241.956 237.461C242.419 237.754 242.925 237.97 243.457 238.102V237.942C243.507 238.016 243.58 238.073 243.664 238.102C243.68 238.076 243.688 238.045 243.688 238.014C243.688 237.983 243.68 237.953 243.664 237.926C245.261 237.926 243.169 235.776 242.978 235.247C242.291 233.418 244.574 233.642 245.74 233.899C248.678 234.685 252.718 236.354 254.363 239.177C254.227 239.718 253.889 240.186 253.42 240.484C252.95 240.783 252.385 240.889 251.84 240.782C251.505 240.942 250.802 241.07 250.371 241.295C250.371 241.295 250.211 241.648 250.148 241.744C250.294 241.99 250.471 242.217 250.674 242.418C251.042 243.108 252.271 243.397 252.766 243.637C252.859 243.703 252.961 243.751 253.07 243.782C253.332 243.966 253.617 244.117 253.916 244.231V244.071C254.331 244.279 255.194 244.391 255.513 243.782C256.79 243.076 255.736 240.3 258.116 241.279C259.473 241.824 260.974 243.349 262.427 242.482C263.481 242.643 264.28 242.595 265.046 243.365C265.525 245.707 263.577 245.803 261.852 246.573L261.677 246.67C261.677 246.862 261.533 247.055 261.469 247.247C261.405 247.44 261.549 247.456 261.565 247.568C261.581 247.527 261.581 247.481 261.565 247.44C261.741 248.114 263.162 249.205 263.705 249.044C264.966 250.504 267.473 248.579 268.783 247.905C269.644 247.385 270.567 246.975 271.529 246.686C272.599 246.445 273.222 247.023 274.116 246.975C275.196 247.736 276.003 248.828 276.416 250.087C276.719 251.13 276.416 252.814 277.789 253.103C281.286 255.574 285.486 249.895 289.079 249.782C289.314 249.756 289.552 249.776 289.779 249.842C290.006 249.909 290.218 250.02 290.402 250.169C290.586 250.318 290.739 250.503 290.852 250.712C290.965 250.921 291.035 251.15 291.059 251.387C291.187 252.301 290.516 253.087 290.628 253.97C290.664 254.185 290.743 254.392 290.861 254.575C290.979 254.759 291.134 254.917 291.315 255.039C291.495 255.16 291.699 255.244 291.913 255.283C292.128 255.323 292.348 255.318 292.56 255.269C293.566 255.061 293.885 254.018 294.7 253.585C295.164 253.315 295.703 253.203 296.235 253.268C296.768 253.332 297.265 253.568 297.652 253.941C298.04 254.314 298.296 254.803 298.382 255.335C298.469 255.866 298.382 256.412 298.133 256.89C297.501 257.76 296.694 258.487 295.764 259.024C294.834 259.56 293.802 259.893 292.736 260.002C291.624 260.797 290.282 261.197 288.919 261.141C288.562 261.08 288.223 260.936 287.931 260.721C287.638 260.507 287.398 260.227 287.231 259.903C287.064 259.58 286.974 259.222 286.968 258.858C286.961 258.494 287.039 258.133 287.195 257.804C287.61 256.601 288.712 254.964 287.706 253.921C287.454 253.742 287.17 253.615 286.869 253.546C286.568 253.477 286.257 253.469 285.953 253.521C285.649 253.573 285.358 253.685 285.097 253.85C284.836 254.015 284.61 254.23 284.432 254.483C283.667 255.266 283.007 256.145 282.468 257.098C281.866 257.902 281.131 258.597 280.296 259.152C280.057 259.152 280.041 259.152 279.945 259.264C277.118 259.264 275.362 256.424 275.713 253.52C275.266 252.349 274.691 249.814 273.014 251.916C272.529 252.658 272.158 253.469 271.913 254.323C271.457 255.031 271.051 255.771 270.699 256.537C269.965 257.05 269.105 257.352 268.213 257.409C267.32 257.465 266.429 257.275 265.637 256.857C263.609 255.94 261.849 254.515 260.527 252.718C259.409 251.354 258.435 250.312 259.681 248.691C260.032 248.21 260.958 247.408 260.942 246.702C260.91 246.299 260.728 245.923 260.432 245.649C260.136 245.376 259.748 245.224 259.345 245.226C257.413 244.279 256.711 246.83 255.705 248.001C255.021 248.693 254.137 249.151 253.18 249.309C252.222 249.468 251.24 249.319 250.371 248.884C249.014 248.386 244.878 246.525 245.852 244.616C246.267 243.766 247.561 243.718 248.072 243.012C248.302 242.549 248.374 242.023 248.276 241.515C248.178 241.007 247.915 240.546 247.529 240.204C247.018 239.61 244.702 238.215 244.702 239.771C244.495 240.172 244.702 240.862 244.59 241.375C244.393 241.899 244.227 242.435 244.095 242.98C243.409 243.268 243.01 244.103 242.499 244.488C241.855 244.981 241.085 245.281 240.279 245.354C240.099 245.331 239.916 245.331 239.736 245.354C237.41 244.389 235.339 242.895 233.684 240.99C233.098 240.343 232.638 239.593 232.327 238.776C232.119 237.733 232.981 236.995 232.949 235.969C232.949 234.22 229.899 231.845 229.277 234.364C228.973 235.648 229.66 236.546 229.021 237.846C228.606 238.664 228.127 239.45 227.105 239.45V239.546C222.187 238.856 227.217 233.402 224.374 231.38C223.464 230.738 221.069 229.968 220.031 230.578C218.434 231.508 220.398 233.434 218.434 234.236L218.051 234.107C215.959 233.674 213.26 231.54 213.611 229.054C213.755 228.091 214.857 227.449 214.873 226.535C214.69 225.658 214.175 224.887 213.436 224.385C213.214 224.103 212.919 223.89 212.584 223.768C212.248 223.646 211.885 223.621 211.536 223.695C210.466 223.871 210.45 224.481 210.498 225.46C210.625 227.786 210.37 228.973 208.214 230.161C207.301 230.044 206.421 229.742 205.628 229.274C204.834 228.805 204.144 228.179 203.599 227.433C202.865 226.15 203.599 223.968 203.599 222.62C203.424 221.593 201.252 220.791 200.406 220.599C196.845 218.465 198.346 212.464 202.657 214.598C204.153 215.633 205.366 217.029 206.186 218.657C206.985 219.78 208.981 221.866 210.242 219.973C211.248 218.497 209.252 217.871 209.348 216.523C209.444 216.539 209.06 216.844 209.284 216.812Z" fill="#9FCC29"/>
<path d="M224.823 198.524C224.823 198.524 210.813 196.767 204.415 200.834L204.831 203.413C204.831 203.413 227.35 207.59 241.825 216.83C256.299 226.071 271.285 237.748 275.3 242.146C275.3 242.146 292.189 234.235 306.279 241.529L307.415 239.14C304.93 235.35 301.57 232.199 297.611 229.947C291.485 226.656 246.863 213.428 224.823 198.524Z" fill="#FFCF08"/>
<path d="M281.697 237.675C278.498 238.205 275.875 238.784 275.875 238.784C261.481 227.01 250.829 217.873 239.234 212.372C228.106 207.031 216.43 202.931 204.415 200.146L204.831 202.768C204.831 202.768 227.35 207.015 241.825 216.409C256.299 225.803 271.285 237.675 275.3 242.146C275.3 242.146 292.189 234.103 306.279 241.519L307.415 239.09C295.532 233.975 285.903 236.951 281.697 237.675Z" fill="#EFA708"/>
<path d="M301.292 224.123C301.732 224.635 302.055 225.234 302.239 225.88C302.423 226.525 302.463 227.202 302.358 227.865C301.776 229.68 299.612 232.896 298.417 233.135C295.832 233.629 249.379 217.787 216.558 198.107C216.558 198.107 215.702 197.009 218.174 190.146C218.174 190.146 226.508 198.521 263.302 214.029C292.489 226.241 301.292 224.123 301.292 224.123Z" fill="#E72124"/>
<g style="mix-blend-mode:multiply" opacity="0.55">
<path d="M258.77 216.543C266.271 219.684 273.929 222.437 281.716 224.79C288.58 227.099 294.517 228.898 301.381 227.831C301.458 227.188 301.403 226.536 301.219 225.915C301.034 225.293 300.725 224.716 300.309 224.217C300.309 224.217 291.589 226.271 262.723 214.028C226.272 198.584 218.015 190.146 218.015 190.146C217.325 191.95 216.79 193.809 216.415 195.703C228.912 205.303 244.625 210.095 258.77 216.543Z" fill="#C42124"/>
</g>
<path d="M274.723 177.674C266.947 174.144 258.747 171.631 250.327 170.197C244.67 169.071 238.871 168.848 233.144 169.538C227.963 170.255 223.14 172.584 219.36 176.195C217.736 178.019 216.563 180.199 215.937 182.559C215.31 184.919 215.247 187.392 215.753 189.781C217.363 198.157 288.717 228.465 301.922 226.005C301.922 226.005 307.51 223.464 308.363 215.522C308.766 211.358 306.753 206.357 304.724 202.82C301.36 197.284 297.042 192.385 291.97 188.35C286.709 184.06 280.911 180.471 274.723 177.674V177.674Z" fill="#F89945"/>
<path d="M289.4 214.288C278.004 212.7 268.642 207.126 258.296 202.553C247.659 197.789 236.295 193.883 226.788 187.087C222.575 184.054 219.718 181.084 219.072 177.146C217.55 178.939 216.461 181.048 215.885 183.314C215.309 185.58 215.262 187.944 215.747 190.231C217.361 198.504 288.884 228.436 302.12 226.007C303.891 225.01 305.39 223.605 306.486 221.912C307.583 220.219 308.245 218.289 308.415 216.289C302.152 216.971 296.18 215.288 289.4 214.288Z" fill="#E8761F"/>
<g style="mix-blend-mode:screen" opacity="0.32">
<path d="M275.21 181.835C273.229 179.931 267.12 176.141 264.839 179.46C262.875 182.324 268.268 185.747 270.099 186.76C272.18 187.93 275.759 189.101 277.058 186.935C278.04 185.276 276.858 183.389 275.21 181.835Z" fill="#FDE5C1"/>
</g>
<g style="mix-blend-mode:screen" opacity="0.32">
<path d="M288.586 196.385C283.756 193.487 277.982 191.147 272.852 192.58C268.636 193.726 270.697 196.974 273.01 199.107C276.61 202.496 280.848 205.117 285.471 206.812C288.523 207.847 294.046 209.742 295.32 205.539C295.447 204.897 295.447 204.235 295.32 203.593C295.193 202.951 294.942 202.341 294.581 201.797C292.921 199.642 290.89 197.809 288.586 196.385V196.385Z" fill="#FDE5C1"/>
</g>
<path d="M252.415 179.584C252.415 180.428 251.347 181.146 249.967 181.146C248.588 181.146 247.445 180.553 247.416 179.709C247.386 178.865 248.499 178.146 249.878 178.146C251.258 178.146 252.4 178.756 252.415 179.584Z" fill="#FBD198"/>
<path d="M267.415 199.592C267.415 200.431 266.115 201.146 264.46 201.146C262.804 201.146 261.433 200.54 261.415 199.701C261.397 198.861 262.715 198.146 264.371 198.146C266.026 198.146 267.379 198.722 267.415 199.592Z" fill="#FBD198"/>
<path d="M284.415 205.584C284.415 206.428 283.347 207.146 281.952 207.146C280.558 207.146 279.445 206.537 279.416 205.709C279.386 204.881 280.499 204.146 281.878 204.146C283.258 204.146 284.4 204.756 284.415 205.584Z" fill="#FBD198"/>
<path d="M238.415 178.584C238.415 179.428 237.347 180.146 235.967 180.146C234.588 180.146 233.445 179.537 233.416 178.709C233.386 177.881 234.499 177.146 235.878 177.146C237.258 177.146 238.4 177.693 238.415 178.584Z" fill="#FBD198"/>
<path d="M303.415 207.584C303.415 208.428 302.133 209.146 300.46 209.146C298.787 209.146 297.451 208.537 297.416 207.709C297.38 206.881 298.715 206.146 300.371 206.146C302.026 206.146 303.326 206.771 303.415 207.584Z" fill="#FBD198"/>
<path d="M274.038 197.915C273.408 198.506 272.149 197.915 271.259 196.715C270.368 195.516 270.138 193.969 270.783 193.378C271.428 192.787 272.671 193.378 273.577 194.577C274.483 195.777 274.682 197.341 274.038 197.915Z" fill="#FBD198"/>
<path d="M291.389 200.224C291.154 200.998 289.577 201.349 288 201.027C286.423 200.706 285.209 199.844 285.444 199.069C285.68 198.295 287.257 197.944 288.834 198.265C290.411 198.587 291.607 199.464 291.389 200.224Z" fill="#FBD198"/>
<path d="M247.072 190.962C246.422 191.433 245.171 190.962 244.259 190.006C243.347 189.049 243.146 187.802 243.795 187.331C244.444 186.859 245.696 187.331 246.592 188.301C247.489 189.271 247.659 190.491 247.072 190.962Z" fill="#FBD198"/>
<path d="M260.082 191.987C259.474 192.471 258.226 191.815 257.306 190.519C256.387 189.223 256.14 187.789 256.748 187.305C257.356 186.822 258.604 187.478 259.524 188.774C260.443 190.07 260.69 191.504 260.082 191.987Z" fill="#FBD198"/>
<path d="M232.233 184.85C231.704 185.426 230.259 185.138 228.972 184.194C227.685 183.25 227.086 182.018 227.597 181.443C228.108 180.867 229.571 181.155 230.858 182.098C232.145 183.042 232.744 184.274 232.233 184.85Z" fill="#FBD198"/>
<path d="M284.02 190.984C283.361 191.408 282.111 190.984 281.222 189.91C280.333 188.835 280.152 187.733 280.811 187.309C281.469 186.885 282.719 187.309 283.608 188.383C284.497 189.457 284.678 190.56 284.02 190.984Z" fill="#FBD198"/>
<path d="M299.03 200.944C298.372 201.474 297.121 200.944 296.233 199.601C295.344 198.258 295.146 196.879 295.805 196.349C296.463 195.819 297.73 196.349 298.602 197.692C299.474 199.035 299.688 200.413 299.03 200.944Z" fill="#FBD198"/>
<path d="M260.02 178.944C259.361 179.472 258.111 178.944 257.222 177.606C256.333 176.268 256.152 174.877 256.811 174.349C257.469 173.82 258.719 174.349 259.608 175.687C260.497 177.025 260.678 178.416 260.02 178.944Z" fill="#FBD198"/>
<g style="mix-blend-mode:multiply" opacity="0.35">
<path d="M308.334 214.24C296.201 214.524 282.554 210.338 271.904 206.5C264.202 203.736 255.792 200.734 249.54 195.332C243.289 189.93 240.469 182.854 245.077 175.525C246.28 173.673 247.943 172.151 249.911 171.102C244.389 170.061 238.736 169.869 233.154 170.533C227.97 171.238 223.144 173.526 219.362 177.073C217.737 178.865 216.564 181.007 215.937 183.325C215.31 185.643 215.247 188.074 215.753 190.42C217.364 198.649 288.757 228.424 301.969 226.007C301.969 226.007 307.56 223.512 308.414 215.709C308.42 215.218 308.393 214.727 308.334 214.24Z" fill="#D48745"/>
</g>
<g style="mix-blend-mode:multiply" opacity="0.32">
<path d="M261.863 204.442L258.028 202.667C247.678 197.978 236.662 193.908 227.303 187.395C223.127 184.496 220.283 181.696 219.487 178.146C218.112 179.698 217.154 181.575 216.705 183.601C216.256 185.627 216.33 187.734 216.92 189.723C218.041 193.94 240.642 205.338 262.415 214.146C261.79 210.952 261.604 207.687 261.863 204.442V204.442Z" fill="#BA773D"/>
</g>
<path d="M189.415 260.8C189.415 260.8 152.577 230.266 133.063 238.607C113.549 246.947 106.078 250.322 101.715 260.591C99.0418 266.858 97.3673 287.911 95.9505 294.741C94.5336 301.57 89.5102 316.516 110.86 313.848C132.209 311.181 168.13 261.041 189.415 260.8Z" fill="#F89945"/>
<g style="mix-blend-mode:multiply" opacity="0.35">
<path d="M150.799 238.163H149.834H149.705C149.576 238.51 149.334 238.801 149.018 238.99C148.702 239.178 148.331 239.252 147.967 239.199C141.805 238.568 137.67 239.992 131.765 242.079C128.901 243.083 124.186 245.833 121.033 245.073C120.912 245.024 120.798 244.959 120.695 244.879C119.987 245.073 119.279 245.251 118.603 245.494C113.374 247.257 112.167 249.798 109.818 254.669C108.209 258.034 104.798 265.995 100.759 268.196C100.998 270.51 101.353 272.811 101.821 275.089C102.394 277.911 102.503 280.808 102.143 283.666C101.628 286.756 100.261 289.782 96.8173 289.669C96.6725 290.672 96.5438 291.578 96.415 292.404C97.743 294.743 98.5808 297.331 98.8768 300.009C99.0055 302.905 98.1045 305.786 98.3941 308.407C100.357 309.621 100.856 311.433 101.355 313.601C104.5 314.265 107.739 314.342 110.912 313.828C132.215 311.125 168.144 260.656 189.415 260.429C189.415 260.381 169.206 243.487 150.799 238.163Z" fill="#E09945"/>
</g>
<path d="M114.04 257.021C113.685 257.713 113.476 258.474 113.426 259.254C113.377 260.033 113.489 260.815 113.754 261.548C114.019 262.281 114.432 262.949 114.966 263.509C115.5 264.07 116.143 264.51 116.854 264.801C118.201 265.206 119.625 265.273 121.003 264.996C127.49 264.072 133.292 260.603 139.111 257.556C144.93 254.509 151.273 251.754 157.775 252.402C159.556 252.58 161.305 253.018 163.101 253.05C164.9 253.199 166.683 252.616 168.061 251.429C169.402 249.768 170.158 247.697 170.208 245.546C170.51 243.293 170.7 240.684 169.158 239.063C168.204 238.074 166.79 237.669 165.804 236.713C164.807 235.44 164.008 234.019 163.435 232.499C162.533 230.926 161.172 229.679 159.542 228.932C157.912 228.186 156.094 227.976 154.341 228.333C153.61 228.495 152.752 229.03 152.911 229.776C153.069 230.521 154.071 230.586 154.802 230.44C155.534 230.294 156.392 230.116 156.885 230.732C157.378 231.348 156.885 232.353 156.106 232.547C155.369 232.728 154.596 232.689 153.88 232.434C149.552 231.411 145.06 231.333 140.701 232.207C139.954 232.305 139.24 232.583 138.618 233.017C138.314 233.246 138.088 233.566 137.971 233.932C137.854 234.298 137.853 234.692 137.966 235.059C138.507 236.34 140.701 236.372 140.907 237.75C140.931 238.094 140.847 238.436 140.667 238.727C140.487 239.019 140.22 239.244 139.906 239.371C139.275 239.604 138.602 239.692 137.935 239.63L132.02 239.517C131.035 238.761 129.893 238.245 128.682 238.009C128.074 237.907 127.45 238.011 126.905 238.303C126.36 238.596 125.923 239.062 125.661 239.63C125.2 240.992 126.122 242.742 125.2 243.828C124.767 244.194 124.221 244.395 123.658 244.395C123.095 244.395 122.55 244.194 122.116 243.828C121.253 243.086 120.34 242.409 119.382 241.802C118.538 241.47 117.609 241.437 116.744 241.707C115.879 241.977 115.128 242.536 114.612 243.293C114.126 244.059 113.847 244.942 113.805 245.854C113.764 246.765 113.96 247.671 114.374 248.48C115.089 249.971 116.456 251.284 116.377 252.937C116.297 254.59 114.866 255.595 114.04 257.021Z" fill="#9FCC29"/>
<path d="M163.928 236.523C163.023 235.299 162.499 233.834 161.689 232.546C161.328 231.872 160.806 231.3 160.171 230.883C159.535 230.467 158.806 230.219 158.051 230.163C158.3 230.337 158.51 230.563 158.667 230.825C158.824 231.087 158.924 231.379 158.962 231.683C158.999 231.987 158.973 232.296 158.885 232.589C158.796 232.882 158.647 233.153 158.448 233.383C158.316 233.534 158.166 233.669 158.004 233.786C158.396 234.289 158.741 234.828 159.036 235.396C159.672 236.748 160.227 238.133 160.752 239.517C161.53 241.578 162.642 243.928 161.721 246.102C160.799 248.275 157.94 247.486 157.988 245.732C157.931 245.64 157.883 245.543 157.845 245.442C157.263 242.799 156.283 240.263 154.938 237.923C153.953 236.313 152.651 235.074 151.586 233.609C149.178 232.939 146.665 232.748 144.184 233.045C143.565 233.045 142.802 233.351 142.596 233.979C142.389 234.607 143.057 235.154 143.66 235.38C144.293 235.498 144.894 235.75 145.423 236.12C145.593 236.344 145.713 236.601 145.777 236.876C145.841 237.15 145.847 237.435 145.794 237.712C145.742 237.989 145.632 238.251 145.472 238.482C145.313 238.712 145.106 238.906 144.867 239.05C143.867 239.596 142.716 239.789 141.595 239.598C140.903 239.541 140.207 239.541 139.514 239.598C139.295 239.651 139.072 239.689 138.847 239.71C138.64 239.753 138.437 239.817 138.244 239.904C137.297 240.467 136.466 241.21 135.798 242.093C135.457 242.533 135.023 242.888 134.528 243.134C134.033 243.379 133.489 243.508 132.938 243.51C131.35 243.301 129.984 241.208 128.443 241.9C126.902 242.592 127.49 245.458 126.108 246.73C125.677 247.024 125.172 247.19 124.653 247.207C124.133 247.224 123.619 247.092 123.17 246.826C122.232 246.392 121.422 245.683 120.453 245.216C119.988 244.977 119.462 244.887 118.946 244.959C118.429 245.031 117.946 245.261 117.562 245.619C117.247 246.154 117.105 246.775 117.156 247.396C117.207 248.017 117.449 248.606 117.848 249.08C118.674 250.025 119.225 251.185 119.437 252.429C119.437 254.86 116.26 256.067 115.529 258.386C115.32 259.351 115.399 260.358 115.756 261.278C116.112 262.198 116.73 262.99 117.531 263.554C118.405 264.249 119.387 264.793 120.437 265.163L121.057 265.083C127.538 264.165 133.335 260.72 139.149 257.693C144.963 254.667 151.301 251.93 157.797 252.574C159.576 252.751 161.323 253.186 163.118 253.218C164.915 253.365 166.697 252.786 168.074 251.608C169.414 249.958 170.169 247.9 170.219 245.764C170.407 244.615 170.46 243.448 170.377 242.286C168.583 240.048 165.644 238.809 163.928 236.523Z" fill="#73A624"/>
<path d="M107.415 269.09C107.415 269.09 109.814 256.141 110.102 254.163C110.102 254.163 118.244 259.541 126.337 258.32L134.415 267.189C134.415 267.189 117.396 274.683 107.415 269.09Z" fill="#FFCF08"/>
<g style="mix-blend-mode:multiply" opacity="0.35">
<path d="M125.923 259.163L125.109 259.258C124.428 260.995 123.312 262.54 121.863 263.757C120.413 264.973 118.675 265.823 116.803 266.229C115.435 266.433 114.036 266.282 112.749 265.792C111.461 265.301 110.331 264.489 109.474 263.437C108.92 266.497 108.415 269.241 108.415 269.241C117.65 274.429 133.415 267.474 133.415 267.474L125.923 259.163Z" fill="#E6B970"/>
</g>
<path d="M111.079 255.163C110.792 257.327 108.415 270.728 108.415 270.728C109.133 271.147 109.069 270.873 109.851 271.163C109.596 267.014 112.531 257.924 112.531 257.924C122.406 260.637 127.639 260.717 126.171 258.958C120.923 258.858 115.764 257.561 111.079 255.163Z" fill="#EFA708"/>
<path d="M117.433 270.834C117.449 270.944 117.449 271.054 117.433 271.163C123.29 270.809 129.039 269.431 134.415 267.09L130.921 265.163C127.065 266.135 116.93 267.968 117.433 270.834Z" fill="#EFA708"/>
<path d="M126.397 280.193C126.474 277.954 126.304 275.713 125.889 273.512C125.746 272.526 125.587 271.523 125.445 270.521C125.302 269.519 124.571 269.137 123.746 269.201C122.929 269.37 122.124 269.588 121.333 269.853C119.555 270.235 117.824 269.201 116.189 268.406C113.22 266.959 109.965 266.198 106.664 266.179C105.162 266.085 103.664 266.422 102.346 267.149C101.695 267.533 101.184 268.115 100.887 268.81C100.59 269.506 100.523 270.278 100.695 271.014C101.425 273.337 104.854 273.846 105.712 276.137C105.854 276.518 105.87 277.043 105.505 277.25C105.14 277.457 104.68 277.139 104.346 276.852C102.889 275.51 101.064 274.635 99.1074 274.339C98.1197 274.204 97.1144 274.288 96.1625 274.585C95.2106 274.881 94.3354 275.384 93.5987 276.057C92.8749 276.751 92.3669 277.64 92.1359 278.616C91.9049 279.593 91.9608 280.615 92.2969 281.561C92.6775 282.485 93.3733 283.243 94.2602 283.7C95.1471 284.158 96.1673 284.285 97.1389 284.058C98.1549 283.772 99.2979 283.056 100.155 283.676C100.315 283.843 100.437 284.043 100.512 284.262C100.587 284.482 100.613 284.714 100.589 284.945C100.564 285.175 100.49 285.397 100.372 285.596C100.253 285.794 100.092 285.964 99.9012 286.094C99.4907 286.338 99.0306 286.487 98.5551 286.528C98.0796 286.569 97.601 286.503 97.1547 286.333C96.2407 286.009 95.3006 285.764 94.3448 285.601C93.384 285.541 92.4282 285.781 91.6093 286.288C90.7904 286.795 90.1487 287.545 89.7727 288.433C89.431 289.332 89.3318 290.305 89.4851 291.254C89.6384 292.204 90.0388 293.096 90.6459 293.841C91.2737 294.57 92.0511 295.155 92.925 295.556C93.799 295.957 94.7489 296.164 95.7101 296.163C97.5782 295.999 99.4212 295.62 101.203 295.034C106.124 293.905 111.427 294.827 116.237 293.237C118.999 292.265 121.425 290.52 123.226 288.208C125.027 285.895 126.128 283.114 126.397 280.193V280.193Z" fill="#9FCC29"/>
<path d="M102.531 284.141C102.973 285.506 101.774 286.937 100.449 287.43C99.0815 287.696 97.6845 287.757 96.3005 287.611C95.6117 287.542 94.9174 287.657 94.2829 287.945C93.6483 288.232 93.0942 288.683 92.6726 289.255C92.3471 290.054 92.3295 290.952 92.6233 291.764C92.9171 292.576 93.4997 293.238 94.2499 293.613C95.8011 294.285 97.5343 294.344 99.1239 293.778C102.074 292.939 104.787 291.245 107.799 290.653C109.818 290.242 111.9 290.357 113.951 290.094C116.029 289.982 117.987 289.047 119.424 287.479C120.351 286.166 120.972 284.646 121.238 283.039C122.23 278.706 122.957 274.312 123.415 269.883C120.781 271.232 117.831 272.63 114.992 271.824C113.865 271.448 112.801 270.894 111.837 270.179C110.862 269.46 109.801 268.874 108.683 268.436C108.118 268.225 107.518 268.135 106.919 268.171C106.32 268.208 105.734 268.371 105.197 268.65C104.668 268.952 104.251 269.431 104.014 270.009C103.776 270.588 103.732 271.232 103.887 271.84C104.122 272.341 104.463 272.781 104.883 273.125C105.304 273.47 105.794 273.711 106.317 273.83C107.361 274.042 108.385 274.35 109.377 274.751C109.859 274.973 110.268 275.341 110.549 275.807C110.83 276.273 110.971 276.816 110.954 277.366C110.857 277.803 110.652 278.207 110.358 278.536C110.065 278.865 109.694 279.108 109.282 279.24C107.906 279.652 106.431 279.511 105.149 278.846C103.84 278.287 102.626 277.481 101.301 276.971C100.649 276.674 99.9455 276.521 99.2343 276.521C98.5231 276.521 97.8196 276.674 97.168 276.971C96.5518 277.315 96.0865 277.893 95.8691 278.585C95.6516 279.277 95.6988 280.031 96.0008 280.688C96.4353 281.18 96.965 281.571 97.555 281.835C98.1449 282.098 98.7818 282.229 99.4236 282.217C100.733 282.414 102.137 282.858 102.531 284.141Z" fill="#73A624"/>
<path d="M108.415 292.41C108.412 292.834 108.529 293.25 108.753 293.616C108.977 293.982 109.3 294.284 109.688 294.49C110.464 294.91 111.341 295.133 112.233 295.136C114.743 295.288 117.251 294.81 119.506 293.749C122.292 292.465 124.486 290.25 125.672 287.525C126.249 286.169 126.495 284.706 126.392 283.245C126.289 281.785 125.839 280.366 125.076 279.096C124.283 277.841 123.148 276.814 121.792 276.123C120.436 275.432 118.91 275.104 117.374 275.172C116.25 275.267 114.944 275.818 114.861 276.89C114.779 277.961 116.018 278.686 116.514 279.679C116.674 280.032 116.732 280.42 116.682 280.802C116.633 281.184 116.478 281.547 116.233 281.853C115.979 282.153 115.647 282.385 115.271 282.526C114.894 282.667 114.485 282.712 114.085 282.657C112.729 282.468 111.605 281.081 110.266 281.38C109.75 281.522 109.303 281.831 109.001 282.254C108.699 282.677 108.562 283.187 108.613 283.697C108.758 284.691 109.076 285.655 109.556 286.549C110.039 287.447 110.173 288.48 109.936 289.464C109.655 290.519 108.564 291.307 108.415 292.41Z" fill="#9FCC29"/>
<path d="M124.085 279.011C123.254 278.836 122.47 278.488 121.786 277.988C121.101 277.483 120.278 277.195 119.424 277.163C119.004 277.163 118.6 277.32 118.293 277.604C117.986 277.887 117.8 278.276 117.773 278.69C117.773 279.316 118.375 279.789 118.684 280.339C118.896 280.717 119.007 281.143 119.007 281.576C119.007 282.008 118.896 282.434 118.684 282.812C118.457 283.182 118.141 283.491 117.764 283.709C117.387 283.928 116.96 284.05 116.523 284.064C115.897 284.006 115.277 283.893 114.671 283.728C114.331 283.606 113.962 283.596 113.616 283.698C113.27 283.8 112.967 284.01 112.751 284.295C112.534 284.581 112.417 284.928 112.415 285.285C112.413 285.642 112.528 285.99 112.741 286.278C113.36 287.633 114.458 288.719 115.828 289.331C117.188 289.971 118.694 290.25 120.196 290.14C122.026 290.114 123.8 289.509 125.258 288.415C125.981 287.826 126.551 287.076 126.924 286.227C127.297 285.378 127.462 284.454 127.404 283.53C127.322 282.61 126.955 281.738 126.353 281.032C125.751 280.327 124.942 279.824 124.039 279.591L124.085 279.011Z" fill="#73A624"/>
<path d="M155.553 246.225L157.996 251.163L179.415 250.126L178.952 246.076C178.952 246.076 172.355 236.676 165.184 236.199C158.012 235.721 154.674 240.166 155.553 246.225Z" fill="#D12424"/>
<path d="M155.555 246.163H179.415C179.415 246.163 172.689 236.682 165.376 236.2C158.064 235.718 154.66 240.053 155.555 246.163Z" fill="#EA3333"/>
<path d="M161.213 243.459C161.963 243.771 164.475 245.737 164.769 245.787C164.107 244.646 163.372 243.551 162.567 242.509C162.567 242.509 164.084 240.87 168.52 242.656C168.52 242.656 167.704 244.41 168.977 245.36C170.249 246.311 170.216 243.312 170.135 242.886C170.053 242.459 173.152 243.607 174.783 246.032H179.415C179.415 246.032 172.679 236.674 165.356 236.199C158.033 235.723 154.624 240.132 155.57 246.163H160.267C160.365 245.033 160.691 243.23 161.213 243.459Z" fill="#C91D1D"/>
<path d="M163.888 239.853C166.32 239.688 168.753 240.173 170.939 241.258C173.124 242.343 174.985 243.991 176.332 246.032H179.415C179.415 246.032 172.679 236.674 165.356 236.199C158.033 235.723 154.624 240.132 155.57 246.163H157.804C157.543 240.984 160.61 240.001 163.888 239.853Z" fill="#FF3333"/>
<path d="M162.415 244.862C162.415 245.117 162.274 245.237 162.009 245.117C161.864 245.058 161.735 244.968 161.632 244.853C161.529 244.739 161.455 244.604 161.415 244.458C161.415 244.204 161.571 244.099 161.837 244.204C161.98 244.264 162.106 244.354 162.206 244.468C162.306 244.583 162.378 244.717 162.415 244.862V244.862Z" fill="#FF7E70"/>
<path d="M165.415 243.844C165.415 244.102 165.281 244.231 165.012 244.128C164.86 244.069 164.727 243.98 164.623 243.868C164.519 243.756 164.448 243.624 164.415 243.483C164.415 243.225 164.549 243.096 164.818 243.199C164.968 243.26 165.1 243.349 165.204 243.461C165.308 243.573 165.38 243.704 165.415 243.844V243.844Z" fill="#FF7E70"/>
<path d="M167.415 244.833C167.415 245.088 167.288 245.228 167.007 245.135C166.857 245.068 166.727 244.975 166.625 244.863C166.523 244.75 166.451 244.621 166.415 244.484C166.415 244.229 166.542 244.101 166.823 244.194C166.973 244.258 167.103 244.349 167.205 244.459C167.307 244.57 167.379 244.697 167.415 244.833V244.833Z" fill="#FF7E70"/>
<path d="M172.415 244.854C172.415 245.097 172.279 245.233 172.008 245.127C171.862 245.063 171.734 244.972 171.631 244.859C171.529 244.747 171.455 244.616 171.415 244.475C171.415 244.217 171.551 244.096 171.839 244.202C171.984 244.264 172.112 244.355 172.212 244.468C172.312 244.581 172.381 244.713 172.415 244.854V244.854Z" fill="#FF7E70"/>
<path d="M121.779 246.351L118.415 249.541L135.474 277.163L139.312 276.541C140.695 273.785 141.415 270.739 141.415 267.65C141.415 264.561 140.695 261.515 139.312 258.759C134.511 249.461 127.371 245.187 121.779 246.351Z" fill="#D12424"/>
<path d="M121.415 246.349L139.273 276.163C140.681 273.439 141.415 270.428 141.415 267.374C141.415 264.32 140.681 261.308 139.273 258.584C134.382 249.423 127.11 245.198 121.415 246.349Z" fill="#EA3333"/>
<path d="M128.484 253.444C128.709 254.39 128.484 257.59 128.645 257.874C128.806 258.158 130.432 255.131 130.432 255.131C130.432 255.131 133.362 257.023 134.699 262.557C134.699 262.557 132.251 261.548 132.187 263.14C132.123 264.733 135.278 264.717 135.665 264.575C136.051 264.433 137.162 268.359 135.794 270.393L139.272 276.163C140.681 273.439 141.415 270.428 141.415 267.374C141.415 264.32 140.681 261.308 139.272 258.584C134.441 249.423 127.115 245.198 121.415 246.349L124.925 252.167C126.165 252.387 128.323 252.782 128.484 253.444Z" fill="#C91D1D"/>
<path d="M134.184 256.707C137.178 261.437 139.69 267.129 136.969 272.332L139.272 276.163C140.681 273.439 141.415 270.428 141.415 267.374C141.415 264.32 140.681 261.308 139.272 258.584C134.441 249.423 127.115 245.198 121.415 246.349L123.025 249.124C128.258 248.793 131.591 252.608 134.184 256.707Z" fill="#FF3333"/>
<path d="M128.062 255.163C127.807 255.163 127.536 254.874 127.456 254.32C127.401 254.105 127.401 253.867 127.458 253.652C127.514 253.438 127.621 253.263 127.759 253.163C128.014 253.163 128.285 253.453 128.38 254.007C128.431 254.225 128.426 254.464 128.367 254.677C128.308 254.891 128.2 255.064 128.062 255.163Z" fill="#FF7E70"/>
<path d="M131.052 258.162C130.907 258.172 130.763 258.134 130.65 258.058C130.537 257.982 130.464 257.873 130.447 257.753C130.398 257.64 130.406 257.516 130.467 257.407C130.529 257.299 130.641 257.215 130.777 257.174C131.039 257.117 131.3 257.299 131.383 257.571C131.432 257.686 131.425 257.812 131.363 257.922C131.301 258.033 131.19 258.119 131.052 258.162V258.162Z" fill="#FF7E70"/>
<path d="M132.06 261.156C131.922 261.186 131.782 261.122 131.67 260.976C131.559 260.83 131.485 260.615 131.464 260.375C131.432 260.262 131.415 260.137 131.415 260.011C131.415 259.884 131.431 259.759 131.462 259.645C131.493 259.531 131.539 259.431 131.596 259.351C131.653 259.272 131.719 259.215 131.79 259.186C131.861 259.157 131.935 259.156 132.006 259.183C132.077 259.21 132.144 259.264 132.201 259.342C132.259 259.419 132.306 259.519 132.338 259.632C132.37 259.745 132.388 259.869 132.389 259.996C132.432 260.225 132.422 260.475 132.36 260.691C132.299 260.908 132.191 261.075 132.06 261.156V261.156Z" fill="#FF7E70"/>
<path d="M135.062 267.163C134.805 267.163 134.532 267.034 134.452 266.761C134.399 266.647 134.403 266.521 134.463 266.41C134.523 266.298 134.634 266.21 134.773 266.164C134.92 266.159 135.064 266.2 135.177 266.276C135.29 266.353 135.363 266.461 135.383 266.579C135.431 266.691 135.425 266.814 135.365 266.923C135.306 267.031 135.197 267.117 135.062 267.163V267.163Z" fill="#FF7E70"/>
<path d="M120.925 245.365L117.415 248.553L135.213 276.163L139.217 275.542C140.662 272.785 141.415 269.737 141.415 266.646C141.415 263.556 140.662 260.508 139.217 257.751C134.208 248.426 126.775 244.153 120.925 245.365Z" fill="#D12424"/>
<path d="M121.415 245.369L139.27 276.163C140.68 273.349 141.415 270.237 141.415 267.081C141.415 263.926 140.68 260.814 139.27 257.999C134.38 248.494 127.125 244.132 121.415 245.369Z" fill="#EA3333"/>
<path d="M128.493 252.683C128.718 253.66 128.493 256.965 128.67 257.258C128.846 257.551 130.439 254.425 130.439 254.425C130.439 254.425 133.383 256.379 134.702 262.094C134.702 262.094 132.257 261.052 132.192 262.697C132.128 264.342 135.281 264.325 135.667 264.195C136.053 264.065 137.163 268.087 135.811 270.187L139.27 276.163C140.68 273.347 141.415 270.235 141.415 267.077C141.415 263.92 140.68 260.807 139.27 257.991C134.444 248.53 127.125 244.166 121.415 245.355L124.938 251.412C126.192 251.592 128.348 251.999 128.493 252.683Z" fill="#C91D1D"/>
<path d="M134.187 256.053C137.195 260.938 139.688 266.833 136.97 272.19L139.27 276.163C140.68 273.347 141.415 270.235 141.415 267.077C141.415 263.92 140.68 260.807 139.27 257.991C134.444 248.53 127.125 244.166 121.415 245.355L123.024 248.237C128.267 247.879 131.597 251.917 134.187 256.053Z" fill="#FF3333"/>
<path d="M127.077 254.163C126.817 254.163 126.526 254.018 126.444 253.751C126.363 253.484 126.444 253.205 126.752 253.168C127.061 253.132 127.287 253.302 127.385 253.581C127.482 253.86 127.336 254.115 127.077 254.163Z" fill="#FF7E70"/>
<path d="M130.711 258.16C130.42 258.18 130.131 258.108 129.902 257.959C129.673 257.81 129.523 257.594 129.481 257.357C129.381 257.125 129.395 256.871 129.521 256.648C129.646 256.425 129.873 256.251 130.152 256.163C130.439 256.168 130.716 256.251 130.939 256.399C131.162 256.548 131.318 256.753 131.382 256.983C131.447 257.212 131.416 257.453 131.294 257.666C131.172 257.88 130.967 258.053 130.711 258.16Z" fill="#FF7E70"/>
<path d="M131.058 260.159C130.99 260.167 130.92 260.164 130.852 260.149C130.785 260.135 130.722 260.108 130.667 260.072C130.611 260.036 130.565 259.99 130.53 259.938C130.495 259.886 130.472 259.828 130.464 259.769C130.432 259.712 130.415 259.65 130.415 259.586C130.415 259.523 130.431 259.461 130.462 259.404C130.493 259.347 130.539 259.297 130.595 259.257C130.652 259.218 130.718 259.189 130.789 259.175C130.859 259.16 130.933 259.16 131.004 259.173C131.075 259.187 131.141 259.214 131.199 259.253C131.256 259.291 131.303 259.341 131.335 259.397C131.367 259.454 131.385 259.516 131.386 259.579C131.409 259.636 131.418 259.696 131.414 259.756C131.41 259.816 131.392 259.874 131.362 259.928C131.331 259.982 131.289 260.03 131.237 260.07C131.184 260.109 131.124 260.14 131.058 260.159Z" fill="#FF7E70"/>
<path d="M135.06 266.163C134.802 266.163 134.528 266.032 134.447 265.756C134.399 265.642 134.405 265.517 134.465 265.407C134.525 265.298 134.634 265.21 134.77 265.163C135.028 265.163 135.302 265.295 135.383 265.571C135.431 265.685 135.425 265.809 135.365 265.919C135.305 266.029 135.196 266.117 135.06 266.163Z" fill="#FF7E70"/>
<path d="M153.581 247.353C154.238 246.996 154.791 246.472 155.189 245.832C155.372 245.341 155.445 244.814 155.404 244.29C155.362 243.767 155.206 243.259 154.947 242.805C154.417 241.631 153.65 240.583 152.697 239.729C151.968 239.021 151.071 238.519 150.093 238.273C149.606 238.146 149.098 238.129 148.604 238.223C148.11 238.316 147.642 238.517 147.232 238.812C146.83 239.12 146.53 239.544 146.369 240.029C146.208 240.513 146.195 241.036 146.332 241.529C145.735 240.61 144.916 239.864 143.953 239.362C142.99 238.861 141.916 238.621 140.835 238.665C139.509 238.733 138.259 239.319 137.347 240.301C136.897 240.781 136.572 241.368 136.401 242.008C136.23 242.647 136.218 243.321 136.366 243.966C136.549 244.6 136.915 245.162 137.417 245.579C137.919 245.997 138.533 246.25 139.179 246.306C138.377 246.008 137.505 245.96 136.676 246.169C135.846 246.378 135.097 246.834 134.524 247.479C133.951 248.124 133.58 248.928 133.459 249.789C133.337 250.65 133.471 251.528 133.843 252.311C134.226 253.034 134.768 253.658 135.425 254.135C136.083 254.611 136.839 254.928 137.636 255.06C139.272 255.318 140.946 255.091 142.458 254.405C143.914 253.724 145.303 252.902 146.605 251.951L153.581 247.353Z" fill="#FFCF08"/>
<path d="M152.757 247.296C153.055 246.866 153.258 246.376 153.353 245.861C153.448 245.345 153.433 244.814 153.309 244.305C153.185 243.795 152.955 243.318 152.633 242.905C152.312 242.493 151.907 242.154 151.445 241.911C150.984 241.668 150.476 241.527 149.956 241.497C149.436 241.468 148.916 241.55 148.43 241.738C147.944 241.927 147.503 242.218 147.138 242.591C146.772 242.965 146.489 243.413 146.309 243.905C145.821 242.987 145.07 242.237 144.154 241.755C143.238 241.272 142.199 241.078 141.172 241.198C140.73 241.225 140.302 241.363 139.927 241.6C139.552 241.836 139.241 242.163 139.023 242.551C138.865 243.022 138.854 243.53 138.989 244.008C139.125 244.486 139.401 244.911 139.781 245.226C140.557 245.844 141.45 246.294 142.405 246.548C140.636 246.438 138.891 247.007 137.521 248.14C137.183 248.375 136.906 248.689 136.713 249.055C136.521 249.421 136.418 249.828 136.415 250.242C136.475 250.577 136.618 250.891 136.831 251.156C137.044 251.42 137.319 251.626 137.632 251.755C138.26 252.008 138.931 252.138 139.608 252.137C142.114 252.248 144.624 252.012 147.068 251.436C148.443 251.145 149.755 250.606 150.94 249.844C152.125 249.071 152.96 247.858 153.263 246.468L152.757 247.296Z" fill="#EFA708"/>
<path d="M181.975 249.046C182.457 249.704 183.128 250.189 183.894 250.432C184.656 250.661 185.395 250.967 186.099 251.346C186.452 251.53 186.757 251.8 186.986 252.132C187.215 252.465 187.363 252.85 187.415 253.254C187.411 253.642 187.328 254.025 187.173 254.379C187.017 254.733 186.792 255.049 186.511 255.309C185.583 256.24 184.4 256.856 183.121 257.075C181.842 257.294 180.529 257.104 179.358 256.532C178.516 256.042 177.733 255.45 177.026 254.771L174.98 252.879L172.648 250.53C171.04 248.449 168.872 246.901 166.415 246.077C166.704 245.372 167.151 244.746 167.718 244.25C168.286 243.755 168.959 243.403 169.682 243.223C171.132 242.872 172.642 242.872 174.092 243.223C174.47 243.364 174.874 243.417 175.275 243.377C175.675 243.338 176.062 243.207 176.407 242.995C176.899 242.522 176.931 241.722 177.296 241.135C177.527 240.776 177.857 240.495 178.244 240.33C178.631 240.164 179.058 240.121 179.469 240.206C179.878 240.301 180.262 240.486 180.596 240.748C180.93 241.01 181.205 241.342 181.404 241.722C181.784 242.493 181.944 243.358 181.864 244.218C181.864 245.05 181.61 245.849 181.531 246.697C181.412 247.509 181.569 248.339 181.975 249.046V249.046Z" fill="#9FCC29"/>
<path d="M167.415 248.394C170.816 248.022 174.025 246.608 176.612 244.342C177.032 243.897 177.53 243.537 178.081 243.279C178.351 243.164 178.649 243.134 178.937 243.192C179.225 243.251 179.488 243.395 179.694 243.606C179.861 243.87 179.95 244.176 179.95 244.489C179.95 244.802 179.861 245.108 179.694 245.371C179.388 245.91 178.936 246.368 178.646 246.924C178.45 247.294 178.332 247.701 178.296 248.119C178.26 248.537 178.309 248.958 178.439 249.357C178.568 249.756 178.777 250.123 179.051 250.438C179.325 250.753 179.659 251.009 180.033 251.189C180.523 251.396 181.031 251.555 181.55 251.663C182.068 251.777 182.55 252.018 182.954 252.366C183.149 252.541 183.291 252.77 183.363 253.025C183.434 253.28 183.432 253.55 183.357 253.804C183.214 254.128 182.978 254.401 182.68 254.588C181.121 255.771 179.181 256.319 177.243 256.125C175.305 255.932 173.508 255.01 172.207 253.542C171.417 252.643 170.836 251.581 170.126 250.617C169.481 249.601 168.53 248.822 167.415 248.394Z" fill="#73A624"/>
<path d="M100.475 312.113C103.92 313.451 107.76 313.513 111.25 312.287C112.979 311.669 114.557 310.716 115.886 309.488C117.214 308.26 118.265 306.783 118.973 305.148C119.774 302.977 120.246 300.706 120.375 298.405L121.415 287.594C118.774 288.045 116.054 287.76 113.577 286.771C112.133 285.94 110.527 285.401 108.858 285.188C108.026 285.1 107.185 285.248 106.44 285.614C105.695 285.98 105.078 286.547 104.666 287.246C104.237 288.148 104.303 289.225 103.858 290.111C103.171 291.241 102.052 292.07 100.739 292.422C99.4384 292.761 98.202 293.295 97.0757 294.005C96.5204 294.375 96.1132 294.915 95.9212 295.536C95.7291 296.158 95.7639 296.824 96.0196 297.424C96.5477 298.358 97.8018 298.785 98.2143 299.767C98.3435 300.211 98.3553 300.68 98.2487 301.131C98.1421 301.581 97.9205 301.999 97.6038 302.347C96.9586 303.038 96.3736 303.779 95.8546 304.563C95.4882 305.328 95.3468 306.175 95.4457 307.012C95.5446 307.849 95.88 308.644 96.4157 309.311C97.4629 310.597 98.8713 311.569 100.475 312.113V312.113Z" fill="#B55728"/>
<g style="mix-blend-mode:multiply" opacity="0.32">
<path d="M115.751 291.118C112.727 293.28 112.409 295.731 111.295 298.902C110.854 299.867 110.169 300.699 109.309 301.315C108.449 301.93 107.443 302.308 106.392 302.41C105.29 302.584 104.162 302.459 103.124 302.048C102.086 301.637 101.176 300.954 100.487 300.071C98.6246 297.621 98.2903 294.754 95.8709 295.41C95.7683 295.699 95.7267 296.007 95.7486 296.313C95.7705 296.619 95.8555 296.917 95.9982 297.188C96.5076 298.133 97.7173 298.566 98.1152 299.559C98.2398 300.009 98.2512 300.483 98.1484 300.939C98.0456 301.395 97.8318 301.818 97.5263 302.17C96.904 302.869 96.3397 303.619 95.8391 304.412C95.4856 305.187 95.3492 306.044 95.4446 306.89C95.54 307.737 95.8635 308.542 96.3803 309.217C97.401 310.546 98.7835 311.548 100.36 312.1C103.683 313.454 107.387 313.517 110.753 312.277C112.421 311.651 113.943 310.687 115.225 309.444C116.506 308.201 117.52 306.707 118.203 305.053C118.994 302.831 119.46 300.506 119.587 298.149C119.858 295.154 120.144 292.159 120.415 289.163C118.76 289.539 117.182 290.2 115.751 291.118V291.118Z" fill="#B55728"/>
</g>
<path d="M113.904 290.259C113.35 289.81 112.688 289.475 111.966 289.278C111.24 289.087 110.459 289.136 109.773 289.416C109.424 289.559 109.121 289.773 108.888 290.04C108.656 290.307 108.501 290.619 108.438 290.949C108.382 291.283 108.429 291.624 108.574 291.937C108.719 292.25 108.957 292.524 109.264 292.731C109.576 292.928 109.935 293.062 110.314 293.124C110.693 293.186 111.084 293.175 111.457 293.09C112.203 292.902 112.888 292.566 113.459 292.109C114.031 291.681 114.587 291.046 114.365 290.424C114.142 289.803 114.444 290.134 113.904 290.259Z" fill="#8D3800"/>
<path d="M110.609 296.814C110.205 296.444 109.704 296.22 109.177 296.173C108.65 296.126 108.123 296.259 107.668 296.552C107.224 296.864 106.872 297.308 106.655 297.832C106.439 298.357 106.366 298.938 106.447 299.506C106.544 300.087 106.786 300.629 107.147 301.071C107.508 301.513 107.974 301.838 108.494 302.011C108.997 302.179 109.53 302.209 110.047 302.098C110.563 301.987 111.046 301.739 111.452 301.375C111.731 301.132 111.961 300.829 112.127 300.485C112.293 300.141 112.391 299.763 112.415 299.375C112.4 298.971 112.308 298.575 112.145 298.211C111.982 297.848 111.752 297.525 111.469 297.263C110.919 296.646 111.228 297.356 110.609 296.814Z" fill="#8D3800"/>
<path d="M104.352 303.63C103.661 303.399 102.943 303.247 102.214 303.178C101.476 303.109 100.736 303.294 100.134 303.699C99.84 303.908 99.6208 304.196 99.5057 304.524C99.3906 304.853 99.385 305.206 99.4897 305.538C99.7374 306.071 100.201 306.491 100.778 306.704C101.566 307.103 102.472 307.248 103.356 307.116C103.794 307.044 104.205 306.868 104.549 306.603C104.893 306.339 105.158 305.995 105.318 305.606C105.46 305.211 105.446 304.78 105.279 304.393C105.113 304.006 104.805 303.687 104.41 303.493C104.059 303.37 104.703 303.63 104.352 303.63Z" fill="#8D3800"/>
<g style="mix-blend-mode:multiply" opacity="0.55">
<path d="M189.253 260.478H189.172L189.011 260.335L188.833 260.208C188.786 260.157 188.732 260.114 188.671 260.081L188.041 259.573L187.895 259.461L187.394 259.08L187.248 258.969C186.423 258.334 185.34 257.524 184.014 256.602C184.395 256.465 184.763 256.295 185.114 256.094C184.074 255.909 183.084 255.514 182.208 254.934C181.331 254.355 180.586 253.603 180.02 252.727C177.885 249.963 175.928 245.754 171.724 245.722C169.892 245.775 168.096 245.215 166.63 244.134C162.975 241.179 158.221 242.069 153.418 243.435C150.674 244.221 148.285 245.902 146.643 248.2C145.559 249.788 144.152 251.123 143.166 252.377C141.42 254.601 139.285 257.428 136.164 257.667C133.997 257.841 131.507 256.936 131.313 254.49C131.296 254.342 131.296 254.193 131.313 254.045C128.078 257.825 125.232 262.082 122.936 264.909C122.804 265.07 122.664 265.224 122.516 265.37C122.516 265.561 122.516 265.767 122.516 265.974C122.731 267.879 122.437 269.807 121.663 271.567C120.888 273.328 119.661 274.859 118.101 276.012C119.071 279.411 119.637 283.334 116.807 285.05C116.13 285.451 115.385 285.731 114.608 285.876C114.689 290.291 115.611 292.928 113.395 297.804C110.808 303.427 112.926 306.222 107.59 310.289C106.009 311.438 104.266 312.353 102.415 313.005H102.771H103.03C103.676 313.084 104.339 313.132 105.067 313.163C105.795 313.163 106.555 313.163 107.363 313.163H107.913C108.738 313.163 109.53 313.036 110.517 312.925C131.927 310.273 168.037 260.732 189.415 260.51L189.253 260.478Z" fill="#BD9749"/>
</g>
<path d="M119.638 282.776C121.247 271.744 126.683 261.629 134.993 254.204C139.166 250.563 144.108 247.915 149.449 246.457C154.79 245 160.391 244.77 165.833 245.787C174.019 247.544 181.157 252.349 188.069 257.074C192.903 260.428 194.144 262.185 199.058 265.539C199.912 266.119 205.31 267.006 205.407 268.022C205.584 269.635 202.893 272.021 201.282 272.489C183.362 277.614 166.23 285.177 150.365 294.966C142.615 299.803 135.171 305.06 126.921 308.946C118.671 312.832 109.39 315.218 100.415 313.703C102.691 314.059 105.021 313.81 107.17 312.981C109.319 312.152 111.213 310.771 112.661 308.978C115.658 305.511 118.913 287.307 119.638 282.776Z" fill="#FAD15F"/>
<path d="M176.178 254.223C166.873 249.468 154.537 245.219 144.526 250.847C137.002 255.08 132.158 261.357 127.858 268.634C123.559 275.91 123.479 285.009 121.121 293.142C119.677 298.135 118.233 305.602 114.27 309.454C112.617 311.099 110.618 312.365 108.415 313.163C114.952 312.693 121.336 310.981 127.217 308.122C135.43 304.302 142.842 299.071 150.558 294.378C166.368 284.75 183.442 277.315 201.3 272.28C202.904 271.82 205.583 269.521 205.407 267.888C205.414 267.857 205.414 267.825 205.407 267.793C194.707 267.492 185.498 258.995 176.178 254.223Z" fill="#F9C22D"/>
<path d="M176.178 254.223C166.873 249.468 154.537 245.219 144.526 250.847C137.002 255.08 132.158 261.357 127.858 268.634C123.559 275.91 123.479 285.009 121.121 293.142C119.677 298.135 118.233 305.602 114.27 309.454C112.617 311.099 110.618 312.365 108.415 313.163C114.952 312.693 121.336 310.981 127.217 308.122C135.43 304.302 142.842 299.071 150.558 294.378C166.368 284.75 183.442 277.315 201.3 272.28C202.904 271.82 205.583 269.521 205.407 267.888C205.414 267.857 205.414 267.825 205.407 267.793C194.707 267.492 185.498 258.995 176.178 254.223Z" fill="#F9C22D"/>
<g style="mix-blend-mode:multiply" opacity="0.55">
<path d="M189.108 263.167C181.993 263.051 175.104 265.613 169.857 270.325C163.44 275.596 157.376 281.055 149.002 282.911C138.719 285.176 131.356 278.931 126.8 271.033C123.495 277.955 123.254 285.963 121.121 293.294C119.677 298.25 118.233 305.659 114.27 309.482C112.617 311.114 110.618 312.371 108.415 313.163C114.952 312.697 121.336 310.998 127.217 308.161C135.43 304.369 142.842 299.178 150.558 294.521C166.368 284.967 183.442 277.588 201.3 272.591C202.904 272.135 205.583 269.853 205.407 268.233C205.414 268.202 205.414 268.17 205.407 268.139C199.597 268.067 193.934 266.34 189.108 263.167V263.167Z" fill="#F2CC49"/>
</g>
<g style="mix-blend-mode:multiply" opacity="0.55">
<path d="M164.576 280.164C153.94 282.678 147.413 287.106 139.611 294.648C135.726 298.362 131.65 302.352 127.415 306.163L128.052 305.888C136.108 301.979 143.48 296.627 151.138 291.761C160.17 286.14 169.625 281.259 179.415 277.163C174.193 277.812 168.986 279.11 164.576 280.164Z" fill="#D68902"/>
</g>
<path d="M159.145 252.558C157.937 252.124 156.601 252.046 155.337 252.334C154.074 252.622 152.953 253.262 152.142 254.155C151.791 254.516 151.554 254.951 151.454 255.416C151.396 255.646 151.403 255.884 151.473 256.111C151.543 256.338 151.675 256.547 151.857 256.72C152.235 256.971 152.687 257.122 153.16 257.156C153.633 257.19 154.108 257.105 154.527 256.911C155.885 256.46 157.096 255.725 158.054 254.771C158.571 254.327 158.882 253.732 158.927 253.1C158.91 252.47 159.867 252.441 159.145 252.558Z" fill="#E9A000"/>
<path d="M147.062 262.578C146.373 262.191 145.579 262.07 144.815 262.236C144.051 262.402 143.366 262.845 142.875 263.488C142.619 263.776 142.46 264.146 142.423 264.54C142.387 264.935 142.475 265.331 142.673 265.666C142.939 265.898 143.255 266.056 143.593 266.125C143.931 266.193 144.28 266.171 144.607 266.059C145.345 265.961 146.05 265.673 146.659 265.22C146.961 264.984 147.189 264.657 147.313 264.28C147.436 263.904 147.448 263.497 147.348 263.113C147.096 262.381 147.601 262.024 147.062 262.578Z" fill="#E9A000"/>
<path d="M164.259 267.85C163.369 266.962 162.211 266.388 160.961 266.217C159.712 266.046 158.44 266.287 157.342 266.904C156.244 267.521 155.38 268.478 154.882 269.63C154.385 270.782 154.281 272.064 154.588 273.28C154.657 273.643 154.806 273.986 155.023 274.286C155.24 274.586 155.521 274.835 155.845 275.015C156.216 275.137 156.607 275.185 156.997 275.155C157.386 275.125 157.766 275.019 158.114 274.842C160.035 274.055 161.719 272.788 163.002 271.164C163.526 270.556 164.87 268.44 164.259 267.85Z" fill="#E9A000"/>
<path d="M178.902 256.494C178.029 256.937 177.155 257.919 177.487 258.92C177.819 259.921 178.92 260.229 179.863 260.152C180.424 260.138 180.974 259.98 181.47 259.69C181.721 259.551 181.938 259.347 182.102 259.095C182.266 258.844 182.373 258.553 182.413 258.246C182.43 257.819 182.317 257.398 182.093 257.049C181.868 256.701 181.544 256.445 181.173 256.321C180.423 256.062 179.612 256.124 178.902 256.494Z" fill="#E9A000"/>
<path d="M189.666 265.871C188.97 265.584 188.234 265.366 187.474 265.221C186.703 265.083 185.896 265.197 185.228 265.538C184.901 265.71 184.652 265.964 184.52 266.262C184.388 266.559 184.38 266.883 184.498 267.185C184.642 267.451 184.872 267.681 185.164 267.852C185.455 268.022 185.797 268.126 186.155 268.153C186.87 268.191 187.588 268.128 188.276 267.965C188.785 267.9 189.275 267.758 189.72 267.546C189.938 267.434 190.117 267.278 190.238 267.093C190.36 266.908 190.421 266.701 190.415 266.492C190.365 266.299 190.256 266.119 190.097 265.97C189.938 265.821 189.734 265.707 189.506 265.64C189.06 265.481 190.094 266.044 189.666 265.871Z" fill="#E9A000"/>
<path d="M177.074 272.852C175.966 272.34 174.74 272.107 173.512 272.175C172.898 272.219 172.306 272.417 171.797 272.749C171.287 273.08 170.877 273.534 170.606 274.065C170.365 274.605 170.352 275.214 170.569 275.764C170.786 276.313 171.218 276.76 171.772 277.01C172.462 277.214 173.2 277.214 173.889 277.01C174.765 276.842 175.59 276.487 176.303 275.971C176.653 275.707 176.922 275.356 177.081 274.957C177.24 274.557 177.283 274.124 177.206 273.703C176.976 272.836 177.879 272.474 177.074 272.852Z" fill="#E9A000"/>
<path d="M150.365 280.311C149.414 280.516 148.546 280.97 147.865 281.618C147.705 281.785 147.583 281.98 147.507 282.191C147.431 282.403 147.401 282.626 147.421 282.848C147.44 283.071 147.508 283.287 147.62 283.484C147.732 283.681 147.887 283.856 148.073 283.996C148.396 284.135 148.753 284.189 149.106 284.152C149.46 284.116 149.795 283.99 150.076 283.788C150.684 283.457 151.135 282.926 151.342 282.302C151.438 281.986 151.439 281.652 151.346 281.335C151.253 281.018 151.069 280.731 150.814 280.504C150.285 280.073 151.022 280.102 150.365 280.311Z" fill="#E9A000"/>
<path d="M132.28 287.24C131.291 287.477 130.398 287.992 129.716 288.718C129.034 289.444 128.594 290.348 128.453 291.314C128.35 291.96 128.458 292.619 128.761 293.204C128.923 293.493 129.163 293.735 129.457 293.903C129.75 294.072 130.086 294.162 130.428 294.163C131.4 294.163 132.079 293.263 132.589 292.466C133.098 291.669 133.468 290.989 133.885 290.296C134.14 289.965 134.309 289.581 134.379 289.176C134.449 288.77 134.417 288.355 134.286 287.963C134.094 287.682 133.822 287.46 133.502 287.321C133.182 287.183 132.828 287.134 132.481 287.181C131.848 287.24 132.959 287.077 132.28 287.24Z" fill="#E9A000"/>
<g style="mix-blend-mode:screen" opacity="0.32">
<path d="M173.982 255.234C171.945 252.68 169.024 250.973 165.789 250.448C162.584 249.95 159.31 250.107 156.168 250.911C148.654 252.676 141.808 256.552 136.446 262.078C134.74 263.541 133.657 265.594 133.415 267.821C133.512 269.097 133.988 270.317 134.781 271.325C135.574 272.333 136.65 273.084 137.873 273.484C140.33 274.234 142.936 274.365 145.457 273.867C151.509 272.897 157.428 271.232 163.095 268.906C165.469 268.109 167.732 267.016 169.83 265.651C171.859 264.243 173.364 262.207 174.111 259.86C174.471 258.688 174.512 257.441 174.23 256.247C173.949 255.053 173.354 253.955 172.507 253.064L173.982 255.234Z" fill="#FAD15F"/>
</g>
<path d="M70.415 118.178L82.2307 139.146L132.415 117.035L100.81 103.146C100.81 103.146 78.163 112.813 70.415 118.178Z" fill="#EFEFEC"/>
<path d="M144.414 95.4389L129.415 118.146L202.415 112.817L191.529 91.1464L144.414 95.4389Z" fill="#EFEFEC"/>
<path d="M165.603 132.025L202.415 113.146L128.759 116.501L82.415 139.146L165.603 132.025Z" fill="#E2B58B"/>
<path d="M89.415 65.7844L130.309 124.146L134.415 121.53L96.4786 60.1464C96.4786 60.1464 89.4474 60.5201 89.415 65.7844Z" fill="#716361"/>
<path d="M104.415 67.0418L141.056 127.146L145.415 124.898L112.019 62.1473C112.019 62.1473 104.874 61.956 104.415 67.0418Z" fill="#716361"/>
<path d="M109.632 208.472L162.383 209.146L187.838 192.504L202.415 113.146L128.759 116.549L82.415 139.513L109.632 208.472Z" fill="#EFEFEC"/>
<g style="mix-blend-mode:multiply">
<path d="M165.883 115.146L129.014 116.826L82.415 139.722L109.781 208.474L162.823 209.146L178.415 199.034L165.883 115.146Z" fill="#EAE6DC"/>
</g>
<path d="M162.415 209.146L187.849 192.504L202.415 113.146L165.824 121.652L162.415 209.146Z" fill="#EFEFEC"/>
<path d="M143.201 177.146C138.76 178.594 134.134 179.432 129.455 179.637C125.11 180.113 120.715 179.962 116.415 179.19L117.12 191.146L145.415 189.917L143.332 177.561L143.201 177.146ZM125.043 188.512L119.728 188.768L119.302 182.893C119.302 181.84 124.403 181.488 124.502 182.558L125.043 188.512ZM133.047 188.145L127.47 188.401L126.798 182.414C126.683 181.329 132.112 180.962 132.244 182.063L133.047 188.145ZM141.462 187.762L135.59 188.033L134.786 181.935C134.638 180.834 140.314 180.451 140.494 181.568L141.462 187.762Z" fill="#716361"/>
<path d="M122.415 183.165L122.787 188.146L124.415 188.057L124.056 183.583C124.029 183.24 123.201 183.091 122.415 183.165Z" fill="#716361"/>
<path d="M121.633 183.176H121.291H120.998H120.77H120.689H120.526H120.428C120.411 183.224 120.411 183.275 120.428 183.323L120.444 188.146L122.415 188.058L122.073 183.146L121.633 183.176Z" fill="#716361"/>
<path d="M129.415 182.169L130.11 188.146L132.415 188.041L131.757 182.783C131.683 182.239 130.531 182.081 129.415 182.169Z" fill="#716361"/>
<path d="M129.526 182.182H129.216H128.948H128.737H128.596H128.511L128.426 182.27C128.411 182.327 128.411 182.388 128.426 182.445L128.849 187.724L130.415 188.146L129.907 182.146L129.526 182.182Z" fill="#716361"/>
<path d="M137.415 182.164L138.227 187.146L140.415 187.061L139.653 182.649C139.653 182.235 138.459 182.093 137.415 182.164Z" fill="#716361"/>
<path d="M137.023 182.175H136.584H136.217H135.943H135.851H135.649H135.54H135.43C135.41 182.222 135.41 182.272 135.43 182.319L136.162 186.629L138.415 187.146L137.518 182.146L137.023 182.175Z" fill="#716361"/>
<path d="M110.155 176.452C113.111 177.853 116.279 178.69 119.511 178.924H119.591C122.789 179.221 126.005 179.221 129.203 178.924C132.558 178.656 135.886 178.09 139.152 177.231V177.231C142.881 176.345 146.441 174.793 149.677 172.644C151.167 171.543 150.093 170.951 149.148 171.205C143.541 172.897 141.138 173.185 137.934 172.897L119.895 174.59C116.791 175.476 113.535 175.597 110.379 174.946C109.53 174.996 108.825 175.724 110.155 176.452Z" fill="#716361"/>
<path d="M119.415 167.344L119.878 174.146L138.415 172.263L137.422 165.146C134.457 166.195 131.385 166.874 128.27 167.17C125.333 167.569 122.364 167.627 119.415 167.344V167.344ZM129.577 168.268C129.577 167.571 132.986 167.152 133.069 167.867L133.632 171.792L130.09 172.158L129.577 168.268ZM123.304 169.001C123.304 168.303 126.615 167.902 126.615 168.617L127.012 172.472L123.702 172.821L123.304 169.001Z" fill="#716361"/>
<path d="M114.952 165.761C117.083 166.599 119.336 167.054 121.614 167.107V167.107C123.805 167.205 125.999 167.12 128.177 166.851C130.451 166.579 132.701 166.118 134.904 165.472C137.386 164.8 139.751 163.725 141.91 162.287C142.911 161.538 142.222 161.163 141.582 161.385C130.901 164.995 127.553 161.146 127.553 161.146C127.553 161.146 125.191 165.727 115.051 164.927C114.493 164.825 114.001 165.319 114.952 165.761Z" fill="#716361"/>
<path d="M125.415 169.17L125.601 172.146L126.415 172.035L126.229 169.408C126.229 169.17 125.81 169.106 125.415 169.17Z" fill="#716361"/>
<path d="M131.415 168.171L131.652 171.146L132.415 171.021L132.199 168.406C132.178 168.156 131.755 168.109 131.415 168.171Z" fill="#716361"/>
<path d="M130.83 168.618H130.692H130.575H130.479H130.415L130.617 171.146L131.415 171.04L131.17 168.146H131.021L130.83 168.618Z" fill="#716361"/>
<g style="mix-blend-mode:multiply" opacity="0.55">
<g style="mix-blend-mode:multiply" opacity="0.55">
<path d="M99.6215 169.416L153.491 166.563C153.491 166.563 164.723 135.93 165.959 132.195C167.965 126.376 167.098 122.577 170.003 117.143L109.554 126.104L82.6279 139.408L82.997 140.37C87.3136 144.458 99.6215 169.416 99.6215 169.416Z" fill="#D6C2A6"/>
</g>
</g>
<path d="M177.221 121.146C177.928 117.442 174.945 114.058 174.53 110.289C174.383 108.809 174.633 107.317 175.252 105.977C175.871 104.637 176.834 103.504 178.035 102.703C178.541 102.34 179.13 102.124 179.741 102.077C180.046 102.06 180.349 102.129 180.619 102.275C180.889 102.422 181.117 102.642 181.279 102.911C181.817 103.938 180.941 105.14 180.141 105.958C180.46 106.082 180.801 106.135 181.141 106.113C181.48 106.092 181.812 105.997 182.115 105.834C182.417 105.67 182.684 105.443 182.897 105.166C183.11 104.89 183.266 104.569 183.354 104.226C183.489 103.518 183.4 102.784 183.1 102.133C182.801 101.483 182.307 100.951 181.694 100.618C181.072 100.307 180.392 100.146 179.703 100.146C179.014 100.146 178.334 100.307 177.712 100.618C176.454 101.227 175.361 102.153 174.53 103.312C173.421 104.648 172.578 106.201 172.05 107.881C171.522 109.561 171.32 111.333 171.456 113.095C171.629 114.856 172.257 116.534 173.272 117.952C174.287 119.37 175.652 120.474 177.221 121.146V121.146Z" fill="#FBDF6A"/>
<path d="M117.21 133.146C117.768 129.105 117.181 124.992 115.513 121.248C114.649 119.386 113.3 117.772 111.6 116.566C109.9 115.36 107.907 114.602 105.814 114.367C105.007 114.249 104.182 114.331 103.416 114.606C102.651 114.88 101.969 115.337 101.433 115.934C101.005 116.641 100.858 117.476 101.019 118.281C101.179 119.086 101.637 119.807 102.306 120.308C103.001 120.778 103.828 121.03 104.674 121.03C105.521 121.03 106.348 120.778 107.043 120.308C107.719 119.815 108.261 119.168 108.619 118.425C108.977 117.681 109.14 116.864 109.096 116.044C108.973 114.396 108.218 112.852 106.978 111.717C106.487 111.199 105.886 110.791 105.216 110.52C104.546 110.25 103.824 110.123 103.098 110.15C102.378 110.204 101.704 110.517 101.207 111.027C100.711 111.537 100.429 112.208 100.415 112.909C101.195 112.373 102.132 112.093 103.088 112.11C104.044 112.128 104.97 112.441 105.728 113.006C106.487 113.57 107.04 114.355 107.306 115.246C107.571 116.137 107.536 117.087 107.204 117.956C106.945 118.69 106.416 119.304 105.717 119.681C105.362 119.854 104.962 119.922 104.568 119.874C104.174 119.827 103.803 119.667 103.503 119.414C103.178 119.063 102.998 118.608 102.998 118.137C102.998 117.665 103.178 117.21 103.503 116.859C103.843 116.52 104.265 116.267 104.73 116.122C105.195 115.977 105.689 115.945 106.17 116.028C107.129 116.202 108.032 116.594 108.805 117.173C111.1 118.801 112.843 121.057 113.811 123.651C114.778 126.245 114.926 129.06 114.236 131.736L117.21 133.146Z" fill="#FBDF6A"/>
<g style="mix-blend-mode:multiply">
<path d="M160.415 175.05C158.81 176.071 157.109 177.012 155.519 177.793C145.648 182.578 135.038 182.004 125.023 177.793C115.091 173.563 106.654 166.489 100.786 157.474C97.8191 152.648 95.4071 147.507 93.5947 142.146L87.415 145.177L111.203 204.955L158.938 205.146C159.516 201.143 160.415 175.05 160.415 175.05Z" fill="#F1EAE2"/>
</g>
<path d="M198.705 116.06C197.155 114.062 195.399 112.222 193.465 110.568C191.519 108.897 189.075 107.87 186.488 107.635C184.443 107.592 182.445 108.238 180.836 109.465C179.227 110.691 178.105 112.421 177.663 114.36C177.372 111.953 176.141 109.747 174.223 108.197C172.305 106.638 170.187 105.326 167.922 104.296C165.763 104.004 163.565 104.141 161.462 104.698C159.359 105.256 157.395 106.224 155.689 107.541C154.103 108.629 152.964 110.226 152.474 112.051C152.256 114.262 152.644 116.491 153.599 118.51C154.733 122.06 156.355 125.445 158.422 128.573C159.391 129.924 160.561 131.128 161.894 132.146L182.116 129.291C187.63 125.983 193.079 122.535 198.4 118.947C198.87 118.701 199.231 118.296 199.412 117.808C199.428 117.485 199.373 117.162 199.251 116.861C199.13 116.559 198.943 116.287 198.705 116.06V116.06Z" fill="#FBDF6A"/>
<path d="M195.813 117.091L192.123 114.239C190.616 112.923 188.88 111.915 187.01 111.27C186.09 110.95 185.099 110.923 184.165 111.192C183.23 111.461 182.395 112.014 181.766 112.78C181.234 113.756 180.826 114.799 180.553 115.884C180.458 116.527 180.163 117.12 179.712 117.572C179.261 118.024 178.68 118.311 178.056 118.387C177.433 118.463 176.803 118.325 176.263 117.994C175.723 117.663 175.303 117.157 175.067 116.555C174.258 115.363 173.821 113.937 173.06 112.696C172.221 111.401 171.109 110.32 169.808 109.535C168.508 108.751 167.052 108.283 165.551 108.166C162.626 108.003 159.73 108.846 157.314 110.565C154.952 112.245 152.861 114.3 151.116 116.655C150.534 117.393 150.032 118.618 150.825 119.239C151.618 119.86 152.346 119.239 152.929 118.769C154.709 117.276 156.343 115.598 158.221 114.223C160.095 112.751 162.347 111.887 164.694 111.74C165.893 111.684 167.087 111.934 168.171 112.47C169.255 113.005 170.195 113.809 170.908 114.81C171.652 115.967 171.992 117.343 172.72 118.484C173.559 119.772 174.844 120.676 176.309 121.008C177.774 121.339 179.305 121.072 180.585 120.262C181.64 119.327 182.576 118.256 183.368 117.075C183.763 116.495 184.271 116.009 184.86 115.648C185.448 115.287 186.103 115.058 186.783 114.978C187.563 115.078 188.314 115.347 188.989 115.765C189.663 116.184 190.246 116.744 190.699 117.41C191.588 118.755 192.734 119.897 194.065 120.765C194.709 121.128 195.463 121.218 196.169 121.017C196.519 120.906 196.827 120.685 197.05 120.384C197.273 120.084 197.401 119.719 197.415 119.339C197.399 118.333 196.574 117.662 195.813 117.091Z" fill="#E5B348"/>
<path d="M136.415 109.348C136.415 109.348 143.125 98.5769 152.897 101.722C162.668 104.867 162.414 114.758 162.414 114.758C162.414 114.758 157.164 129.163 147.709 129.146C138.255 129.13 137.954 113.047 136.415 109.348Z" fill="#BE7139"/>
<g style="mix-blend-mode:multiply" opacity="0.55">
<path d="M158.862 105.377C158.452 107.123 157.552 108.704 156.276 109.92C153.722 112.29 149.931 114.381 146.583 112.225C143.728 110.348 142.554 106.924 139.746 105.146C138.488 106.327 137.37 107.658 136.415 109.113C138.001 112.85 138.001 129.146 147.694 129.146C157.386 129.146 162.415 114.578 162.415 114.578C162.228 111.191 160.98 107.961 158.862 105.377V105.377Z" fill="#C47F4C"/>
</g>
<path d="M142.776 135.665L167.473 132.319L172.415 131.263C170.737 130.988 169.08 130.592 167.457 130.076C163.821 128.127 162.386 124.553 163.997 121.124C165.065 118.834 168.86 113.196 164.65 111.376C163.959 111.11 163.22 110.993 162.482 111.035C160.864 111.073 159.277 111.497 157.848 112.273C156.419 113.049 155.189 114.155 154.255 115.503C152.47 118.119 151.322 121.254 148.133 122.473C142.154 124.829 143.988 116.705 142.553 113.456C141.889 112.162 140.932 111.049 139.762 110.207C137.994 108.701 135.862 107.705 133.588 107.322C131.315 106.94 128.982 107.184 126.832 108.029C124.282 109.266 122.211 111.337 120.949 113.911C119.744 116.328 118.855 118.895 118.302 121.547C117.872 123.48 117.25 126.112 115.257 126.99C113.264 127.867 110.841 125.121 109.438 123.74C106.759 121.254 101.88 120.491 98.5801 120.816C92.5055 121.498 87.8022 127.851 89.9386 133.813C91.3805 137.263 93.9491 140.099 97.2089 141.839L97.3046 141.742C97.735 141.937 97.464 141.985 97.8785 141.904C99.5526 143.35 102.231 143.204 104.352 143.058C108.864 142.765 113.153 142.375 117.681 141.953C125.062 141.271 132.333 140.02 139.603 139.418L143.573 139.126L142.776 135.665Z" fill="#FBDF6A"/>
<path d="M148.213 129.337C150.069 128.505 154.475 121.725 156.573 124.252C158.187 126.292 156.96 130.624 157.477 132.946L157.574 133.26L162.415 132.57C160.974 131.642 159.939 130.227 159.51 128.599C159.148 127.171 159.192 125.673 159.639 124.268C159.909 123.629 160.037 122.943 160.015 122.253C159.992 121.563 159.82 120.886 159.51 120.266C158.816 119.858 157.622 119.418 156.993 119.999C156.912 119.999 155.718 120.893 154.491 121.568C153.485 122.191 152.53 122.889 151.635 123.655C149.643 125.291 147.235 126.375 144.663 126.794C141.758 127.124 140.806 125.382 140.225 123.043C139.741 121.16 139.644 118.163 138.111 116.577C137.64 116.105 137.071 115.733 136.443 115.487C135.815 115.241 135.141 115.126 134.464 115.149C131.737 115.119 129.083 116 126.943 117.645C124.375 119.563 122.399 122.131 121.23 125.068C120.633 126.637 120.149 128.207 119.504 129.776C118.261 132.711 115.937 134.123 112.71 131.816C110.386 130.137 108.869 128.034 106.109 126.841C102.704 125.35 99.4279 125.021 96.4262 126.7C90.2937 130.074 94.538 136.948 100.17 139.475C101.122 139.899 101.187 140.746 101.962 139.475C102.736 138.204 99.3795 136.525 98.7339 135.646C95.8936 132.177 100.558 129.556 103.979 130.137C107.4 130.718 109.482 133.966 112.855 134.892C114.283 135.218 115.775 135.16 117.171 134.723C118.567 134.286 119.814 133.487 120.779 132.413C123.215 129.839 124.845 126.418 126.847 123.53C128.138 121.678 131.381 118.822 134.109 120.925C136.497 122.714 136.61 126.48 138.805 128.599C141.484 131.141 145.325 130.655 148.213 129.337Z" fill="#E5B348"/>
<path d="M128.437 137.545C128.437 137.545 127.291 119.726 141.681 122.425C155.629 125.011 156.415 134.719 156.415 134.719C156.415 134.719 133.495 142.382 128.437 137.545Z" fill="#BE7139"/>
<path d="M192.415 121.539C192.415 121.539 181.173 109.919 171.103 120.793C165.209 127.162 170.846 134.146 170.846 134.146L192.415 121.539Z" fill="#BE7139"/>
<g style="mix-blend-mode:multiply" opacity="0.55">
<path d="M198.72 116.228L197.788 115.067C195.054 113.198 192.723 111.103 188.88 112.731C185.97 115.051 184.057 119.273 180.841 121.255C177.626 123.238 173.044 122.545 169.78 124.011C168.772 125.39 167.544 126.593 166.146 127.572C165.458 128.607 164.556 129.482 163.503 130.138C162.449 130.794 161.267 131.216 160.036 131.375C158.537 131.645 156.996 131.576 155.528 131.171C154.059 130.767 152.699 130.038 151.547 129.039C151.419 129.039 146.354 127.621 146.241 127.621C138.829 128.298 143.556 132.761 129.07 131.81C127.339 132.931 125.34 133.565 123.282 133.648C119.503 135.565 114.326 135.791 109.921 136.258C107.075 136.548 102.107 137.451 98.9878 135.968C97.9586 135.49 96.8216 135.294 95.6921 135.398C94.5626 135.503 93.4809 135.905 92.5566 136.564L91.415 137.386C92.8958 139.175 94.6813 140.686 96.6887 141.85L96.7851 141.753C97.2192 141.947 96.9459 141.995 97.3639 141.914C99.0521 143.349 101.753 143.204 103.892 143.058C108.442 142.768 112.767 142.382 117.333 141.963C124.777 141.286 132.109 140.045 139.44 139.449L143.444 139.159L143.331 138.675C147.574 137.766 151.761 136.615 155.872 135.227C155.828 134.79 155.742 134.358 155.615 133.938L167.497 132.326L169.104 131.988C169.438 132.781 169.853 133.537 170.342 134.244L176.42 130.731L182.112 129.893C186.613 127.105 191.051 124.188 195.44 121.207C195.643 121.195 195.842 121.157 196.035 121.094C196.287 121.011 196.517 120.874 196.712 120.693C196.906 120.513 197.059 120.292 197.161 120.047L198.399 119.209C198.869 118.955 199.23 118.536 199.412 118.033C199.429 117.7 199.377 117.367 199.258 117.056C199.139 116.745 198.956 116.463 198.72 116.228V116.228Z" fill="#C47F4C"/>
</g>
<path d="M82.415 138.592L100.504 162.146L149.76 158.104L166.415 132.146L82.415 138.592Z" fill="#EFEFEC"/>
<g style="mix-blend-mode:multiply">
<path d="M112.923 138.146L85.415 140.301L102.063 161.146L144.415 157.603C133.799 151.346 123.377 144.722 112.923 138.146Z" fill="#F2EBE5"/>
</g>
<g style="mix-blend-mode:multiply">
<path d="M179.243 175.727L181.62 133.146L177.712 133.727L177.058 176.098L162.543 205.646L162.415 209.146L164.106 208.033L178.079 184.179L187.139 192.824L187.761 192.421L188.415 188.824L179.243 175.727Z" fill="#EBE5DF"/>
</g>
<g style="mix-blend-mode:multiply" opacity="0.55">
<path d="M196.827 144.154L202.415 113.146L166.415 132.234C166.415 132.234 175.18 154.01 179.265 159.146C182.709 157.274 196.827 144.154 196.827 144.154Z" fill="#DBC9B0"/>
</g>
<path d="M180.783 151.146L207.415 132.283L203.305 113.146L166.415 132.331L180.783 151.146Z" fill="#EFEFEC"/>
<g style="mix-blend-mode:multiply">
<path d="M169.415 134.081L180.741 148.146L205.415 131.485L204.687 128.146C193.62 129.692 180.45 132.52 169.415 134.081Z" fill="#F2EBE5"/>
</g>
<circle cx="112.915" cy="221.646" r="3.5" fill="#73A624"/>
<path d="M188.293 227.214C187.254 229.04 184.279 228.498 182.658 227.524C181.037 226.55 178.861 224.231 180.71 221.154C182.559 218.077 185.733 220.079 187.355 221.053C188.976 222.028 189.332 225.387 188.293 227.214Z" fill="#73A624"/>
<path d="M219.185 150.885C220.991 152.467 219.011 156.376 217.092 158.434C215.172 160.491 211.344 163.144 208.345 160.347C205.347 157.549 209.223 153.531 211.142 151.474C213.062 149.416 217.38 149.303 219.185 150.885Z" fill="#BE7139"/>
<path d="M259.533 317.116C255.226 321.022 249.056 322.124 246.643 319.463C244.23 316.802 244.205 313.204 248.512 309.298C252.82 305.392 255.971 305.407 258.384 308.068C260.798 310.729 263.84 313.21 259.533 317.116Z" fill="#FF3333"/>
</svg>
