<svg width="52" height="18" viewBox="0 0 52 18" fill="none" xmlns="http://www.w3.org/2000/svg">
<path d="M22.6426 16.9185H18.5223L21.0975 1.09254H25.2182L22.6426 16.9185ZM15.0561 1.09254L11.1279 11.9777L10.6631 9.63373L10.6635 9.63458L9.27712 2.51748C9.27712 2.51748 9.10948 1.09254 7.32259 1.09254H0.828642L0.752441 1.36051C0.752441 1.36051 2.7383 1.77368 5.06241 3.16942L8.64212 16.9189H12.9352L19.4905 1.09254H15.0561V1.09254ZM47.4644 16.9185H51.2477L47.9491 1.09212H44.637C43.1075 1.09212 42.7349 2.27153 42.7349 2.27153L36.5898 16.9185H40.8849L41.7439 14.5677H46.9818L47.4644 16.9185ZM42.9305 11.3203L45.0954 5.39785L46.3134 11.3203H42.9305ZM36.912 4.89831L37.5 1.49979C37.5 1.49979 35.6856 0.809753 33.7941 0.809753C31.7494 0.809753 26.8938 1.70341 26.8938 6.04894C26.8938 10.1375 32.5927 10.1883 32.5927 12.3359C32.5927 14.4834 27.4809 14.0986 25.7939 12.7444L25.1814 16.2979C25.1814 16.2979 27.0212 17.1915 29.8321 17.1915C32.6439 17.1915 36.8857 15.7357 36.8857 11.7733C36.8857 7.65845 31.1356 7.27534 31.1356 5.48633C31.136 3.69689 35.1488 3.92676 36.912 4.89831V4.89831Z" fill="#2566AF"/>
</svg>
